<svg id="Capa_1" enable-background="new 0 0 497 497" height="512" viewBox="0 0 497 497" width="512" xmlns="http://www.w3.org/2000/svg"><g><g><path d="m469.97 304.903h-443.755c-5.629 0-10.193-4.563-10.193-10.193v-18.359c0-5.629 4.563-10.193 10.193-10.193h443.755c5.629 0 10.193 4.563 10.193 10.193v18.359c0 5.629-4.563 10.193-10.193 10.193z" fill="#eec06b"/></g><g><path d="m469.97 203.101h-443.755c-5.629 0-10.193-4.563-10.193-10.193v-18.359c0-5.629 4.563-10.193 10.193-10.193h443.755c5.629 0 10.193 4.563 10.193 10.193v18.359c0 5.629-4.563 10.193-10.193 10.193z" fill="#eec06b"/></g><g><path d="m111.066 367.961-30 10-30.542-10v-250.047c0-16.718 13.553-30.271 30.271-30.271 16.718 0 30.271 13.553 30.271 30.271z" fill="#c7865b"/></g><g><path d="m80.795 87.644c-5.46 0-10.577 1.453-15 3.982 9.12 5.215 15.271 15.031 15.271 26.289v250.046l12.101 10 17.899-10v-250.047c0-16.718-13.552-30.27-30.271-30.27z" fill="#c27e4e"/></g><g><path d="m222.869 367.961-30 10-30.541-10v-250.047c0-16.718 13.553-30.271 30.271-30.271 16.718 0 30.271 13.553 30.271 30.271v250.047z" fill="#b36d3c"/></g><g><path d="m192.599 87.644c-5.46 0-10.577 1.453-15 3.982 9.12 5.215 15.271 15.031 15.271 26.289v250.046l15.298 10 14.702-10v-250.047c-.001-16.718-13.553-30.27-30.271-30.27z" fill="#995e34"/></g><g><path d="m334.672 367.961-30 10-30.542-10v-250.047c0-16.718 13.553-30.271 30.271-30.271 16.718 0 30.271 13.553 30.271 30.271z" fill="#c7865b"/></g><g><path d="m304.402 87.644c-5.46 0-10.577 1.453-15 3.982 9.12 5.215 15.271 15.031 15.271 26.289v250.046l12.828 10 17.172-10v-250.047c-.001-16.718-13.553-30.27-30.271-30.27z" fill="#c27e4e"/></g><g><path d="m446.475 367.961-30 10-30.542-10v-250.047c0-16.718 13.553-30.271 30.271-30.271 16.718 0 30.271 13.553 30.271 30.271z" fill="#b36d3c"/></g><g><path d="m416.205 87.644c-5.46 0-10.577 1.453-15 3.982 9.12 5.215 15.271 15.031 15.271 26.289v250.046l11.691 10 18.309-10v-250.047c0-16.718-13.553-30.27-30.271-30.27z" fill="#995e34"/></g><g><ellipse cx="80.703" cy="178.738" fill="#804e2b" rx="7.408" ry="7.408" transform="matrix(.23 -.973 .973 .23 -111.795 216.217)"/></g><g><circle cx="80.703" cy="284.129" fill="#804e2b" r="7.408"/></g><g><ellipse cx="191.134" cy="178.738" fill="#804e2b" rx="7.408" ry="7.408" transform="matrix(.707 -.707 .707 .707 -70.405 187.503)"/></g><g><circle cx="192.598" cy="285.531" fill="#804e2b" r="7.5"/></g><g><circle cx="304.401" cy="178.83" fill="#804e2b" r="7.5"/></g><g><circle cx="304.401" cy="285.531" fill="#804e2b" r="7.5"/></g><g><circle cx="416.205" cy="178.83" fill="#804e2b" r="7.5"/></g><g><circle cx="416.205" cy="285.531" fill="#804e2b" r="7.5"/></g><g><path d="m492.283 409.356h-487.566c-2.605 0-4.717-2.112-4.717-4.717v-26.874c0-5.415 4.39-9.805 9.805-9.805h477.391c5.415 0 9.805 4.39 9.805 9.805v26.874c-.001 2.605-2.113 4.717-4.718 4.717z" fill="#8d562f"/></g></g></svg>