<svg id="Capa_1" enable-background="new 0 0 497 497" height="512" viewBox="0 0 497 497" width="512" xmlns="http://www.w3.org/2000/svg"><g><g><path d="m83.65 334.035c-4.142 0-7.5-5.007-7.5-11.184v-73.735c0-6.177 3.358-11.184 7.5-11.184s7.5 5.007 7.5 11.184v73.735c0 6.177-3.358 11.184-7.5 11.184z" fill="#caa828"/></g><g><path d="m57.203 148.928h56.843v112.332h-56.843z" fill="#e9a52d"/></g><g><path d="m83.65 261.26-3.528 1.068c-23.849 7.221-49.036-6.259-56.257-30.108l-5.333-17.615 3.528-1.068c23.849-7.221 49.036 6.259 56.257 30.108z" fill="#f5de46"/></g><g><path d="m83.65 261.26 3.528 1.068c23.849 7.221 49.036-6.259 56.257-30.108l5.333-17.615-3.528-1.068c-23.849-7.221-49.036 6.259-56.257 30.108z" fill="#f5de46"/></g><g><path d="m83.65 216.38-3.528 1.068c-23.849 7.221-49.036-6.259-56.257-30.108l-5.333-17.615 3.528-1.068c23.849-7.221 49.036 6.259 56.257 30.108z" fill="#ecc52e"/></g><g><path d="m83.65 216.38 3.528 1.068c23.849 7.221 49.036-6.259 56.257-30.108l5.333-17.615-3.528-1.068c-23.849-7.221-49.036 6.259-56.257 30.108z" fill="#ecc52e"/></g><g><path d="m83.65 171.312-3.528 1.068c-23.849 7.221-49.036-6.259-56.257-30.108l-5.333-17.615 3.528-1.068c23.849-7.221 49.036 6.259 56.257 30.108z" fill="#f5de46"/></g><g><path d="m83.65 171.312 3.528 1.068c23.849 7.221 49.036-6.259 56.257-30.108l5.333-17.615-3.528-1.068c-23.849-7.221-49.036 6.259-56.257 30.108z" fill="#f5de46"/></g><g><path d="m248.44 321.844c-4.142 0-7.5-3.737-7.5-8.346v-55.028c0-4.609 3.358-8.346 7.5-8.346s7.5 3.737 7.5 8.346v55.028c0 4.609-3.358 8.346-7.5 8.346z" fill="#caa828"/></g><g><path d="m423.21 334.035c-4.142 0-7.5-5.007-7.5-11.184v-73.735c0-6.177 3.358-11.184 7.5-11.184s7.5 5.007 7.5 11.184v73.735c0 6.177-3.358 11.184-7.5 11.184z" fill="#caa828"/></g><g><path d="m497 360.702-247.56 30-249.44-30v-32.295c0-9.223 7.476-16.699 16.699-16.699h463.602c9.223 0 16.699 7.476 16.699 16.699z" fill="#6dc17d"/></g><g><path d="m480.301 311.708h-30c9.223 0 16.699 7.476 16.699 16.699v32.295l15 20 15-20v-32.295c0-9.223-7.476-16.699-16.699-16.699z" fill="#68b76a"/></g><g><path d="m396.763 148.928h56.843v112.332h-56.843z" fill="#e9a52d"/></g><g><path d="m423.211 261.26-3.528 1.068c-23.849 7.221-49.036-6.259-56.257-30.108l-5.333-17.615 3.528-1.068c23.849-7.221 49.036 6.259 56.257 30.108z" fill="#f5de46"/></g><g><path d="m423.21 261.26 3.528 1.068c23.849 7.221 49.036-6.259 56.257-30.108l5.333-17.615-3.528-1.068c-23.849-7.221-49.036 6.259-56.257 30.108z" fill="#f5de46"/></g><g><path d="m423.211 216.38-3.528 1.068c-23.849 7.221-49.036-6.259-56.257-30.108l-5.333-17.615 3.528-1.068c23.849-7.221 49.036 6.259 56.257 30.108z" fill="#ecc52e"/></g><g><path d="m423.21 216.38 3.528 1.068c23.849 7.221 49.036-6.259 56.257-30.108l5.333-17.615-3.528-1.068c-23.849-7.221-49.036 6.259-56.257 30.108z" fill="#ecc52e"/></g><g><path d="m423.211 171.312-3.528 1.068c-23.849 7.221-49.036-6.259-56.257-30.108l-5.333-17.615 3.528-1.068c23.849-7.221 49.036 6.259 56.257 30.108z" fill="#f5de46"/></g><g><path d="m423.21 171.312 3.528 1.068c23.849 7.221 49.036-6.259 56.257-30.108l5.333-17.615-3.528-1.068c-23.849-7.221-49.036 6.259-56.257 30.108z" fill="#f5de46"/></g><g><path d="m221.018 53.623h56.843v207.637h-56.843z" fill="#e9a52d"/></g><g><path d="m248.5 261.26-3.528 1.068c-23.849 7.221-49.036-6.259-56.257-30.108l-5.333-17.615 3.528-1.068c23.849-7.221 49.036 6.259 56.257 30.108z" fill="#f5de46"/></g><g><path d="m248.5 261.26 3.528 1.068c23.849 7.221 49.036-6.259 56.257-30.108l5.333-17.615-3.528-1.068c-23.849-7.221-49.036 6.259-56.257 30.108z" fill="#f5de46"/></g><g><path d="m248.5 217.38-3.528 1.068c-23.849 7.221-49.036-6.259-56.257-30.108l-5.333-17.615 3.528-1.068c23.849-7.221 49.036 6.259 56.257 30.108z" fill="#ecc52e"/></g><g><path d="m248.5 217.38 3.528 1.068c23.849 7.221 49.036-6.259 56.257-30.108l5.333-17.615-3.528-1.068c-23.849-7.221-49.036 6.259-56.257 30.108z" fill="#ecc52e"/></g><g><path d="m248.5 172.312-3.528 1.068c-23.849 7.221-49.036-6.259-56.257-30.108l-5.333-17.615 3.528-1.068c23.849-7.221 49.036 6.259 56.257 30.108z" fill="#f5de46"/></g><g><path d="m248.5 172.312 3.528 1.068c23.849 7.221 49.036-6.259 56.257-30.108l5.333-17.615-3.528-1.068c-23.849-7.221-49.036 6.259-56.257 30.108z" fill="#f5de46"/></g><g><path d="m248.5 126.636-3.528 1.068c-23.849 7.221-49.036-6.259-56.257-30.108l-5.333-17.615 3.528-1.068c23.849-7.221 49.036 6.259 56.257 30.108z" fill="#ecc52e"/></g><g><path d="m248.5 126.636 3.528 1.068c23.849 7.221 49.036-6.259 56.257-30.108l5.333-17.615-3.528-1.068c-23.849-7.221-49.036 6.259-56.257 30.108z" fill="#ecc52e"/></g><g><path d="m248.5 81.711-3.528 1.068c-23.849 7.221-49.036-6.259-56.256-30.107l-5.333-17.615 3.528-1.068c23.849-7.221 49.036 6.259 56.257 30.108z" fill="#f5de46"/></g><g><path d="m248.5 81.711 3.528 1.068c23.849 7.221 49.036-6.259 56.257-30.108l5.333-17.615-3.528-1.068c-23.849-7.221-49.036 6.259-56.257 30.108z" fill="#f5de46"/></g><g><path d="m497 360.702h-497v59.043l248.5 22.607 248.5-22.607z" fill="#c7865b"/></g><g><path d="m467 360.702v59.043l15 10 15-10v-59.043z" fill="#c27e4e"/></g><g><path d="m488.655 464.96h-480.31c-4.609 0-8.345-3.736-8.345-8.345v-36.87h497v36.87c0 4.609-3.736 8.345-8.345 8.345z" fill="#b36d3c"/></g><g><path d="m467 419.745v36.87c0 4.609-3.736 8.345-8.345 8.345h30c4.609 0 8.345-3.736 8.345-8.345v-36.87z" fill="#995e34"/></g></g></svg>