<svg id="Capa_1" enable-background="new 0 0 497 497" height="512" viewBox="0 0 497 497" width="512" xmlns="http://www.w3.org/2000/svg"><g><g><path d="m497 363.24-248.786 40-248.214-40v-32.295c0-9.223 7.476-16.699 16.699-16.699h77.503l23.215-10 22.168 10h87.246l23.215-10 22.168 10h87.246l23.215-10 22.168 10h75.456c9.223 0 16.699 7.476 16.699 16.699v32.295z" fill="#6dc17d"/></g><g><path d="m480.301 314.246h-30c9.223 0 16.699 7.476 16.699 16.699v32.295l15 30 15-30v-32.295c0-9.223-7.476-16.699-16.699-16.699z" fill="#68b76a"/></g><g><path d="m0 363.24h497v99.043h-497z" fill="#c7865b"/></g><g><path d="m467 363.24h30v99.043h-30z" fill="#c27e4e"/></g><g><path d="m117.417 427.956c-4.142 0-7.5-3.358-7.5-7.5v-107.211c0-4.142 3.358-7.5 7.5-7.5s7.5 3.358 7.5 7.5v107.211c0 4.142-3.358 7.5-7.5 7.5z" fill="#995e34"/></g><g><path d="m140.498 199.125-22.081 20-25.128-20-17.381-47.224c-1.271-3.452 1.284-7.115 4.963-7.115h72.044c3.679 0 6.234 3.663 4.963 7.115z" fill="#62a4fb"/></g><g><path d="m70.592 58.041c-3.687-8.421.151-18.235 8.572-21.922 8.42-3.687 18.235.151 21.922 8.571 2.537 5.795.153 20.007-1.58 28.305-.664 3.181-4.256 4.753-7.043 3.084-7.274-4.355-19.333-12.243-21.871-18.038z" fill="#9ec8fc"/></g><g><path d="m163.195 58.041c3.687-8.421-.151-18.235-8.572-21.922s-18.235.151-21.922 8.571c-2.537 5.795-.153 20.007 1.58 28.305.664 3.181 4.256 4.753 7.043 3.084 7.274-4.355 19.334-12.243 21.871-18.038z" fill="#9ec8fc"/></g><path d="m143.888 102.384h-53.988c-4.142 0-7.5 3.358-7.5 7.5s3.358 7.5 7.5 7.5h19.494v54.572c0 4.142 3.358 7.5 7.5 7.5s7.5-3.358 7.5-7.5v-54.572h19.494c4.142 0 7.5-3.358 7.5-7.5s-3.358-7.5-7.5-7.5z" fill="#4981f8"/><g><path d="m94.202 199.125h45.384v115.102h-45.384z" fill="#c8d2dc"/></g><g><path d="m250.047 427.956c-4.142 0-7.5-3.358-7.5-7.5v-107.211c0-4.142 3.358-7.5 7.5-7.5s7.5 3.358 7.5 7.5v107.211c0 4.142-3.358 7.5-7.5 7.5z" fill="#995e34"/></g><g><path d="m273.128 199.125-22.081 20-25.128-20-17.381-47.224c-1.271-3.452 1.284-7.115 4.963-7.115h72.044c3.679 0 6.234 3.663 4.963 7.115z" fill="#62a4fb"/></g><g><path d="m203.222 58.041c-3.687-8.421.151-18.235 8.572-21.922s18.235.151 21.922 8.571c2.537 5.795.153 20.007-1.58 28.305-.664 3.181-4.256 4.753-7.043 3.084-7.274-4.355-19.333-12.243-21.871-18.038z" fill="#9ec8fc"/></g><g><path d="m295.825 58.041c3.687-8.421-.151-18.235-8.572-21.922s-18.235.151-21.922 8.571c-2.537 5.795-.153 20.007 1.58 28.305.664 3.181 4.256 4.753 7.043 3.084 7.274-4.355 19.334-12.243 21.871-18.038z" fill="#9ec8fc"/></g><path d="m276.518 102.384h-53.988c-4.142 0-7.5 3.358-7.5 7.5s3.358 7.5 7.5 7.5h19.494v54.572c0 4.142 3.358 7.5 7.5 7.5s7.5-3.358 7.5-7.5v-54.572h19.494c4.142 0 7.5-3.358 7.5-7.5s-3.358-7.5-7.5-7.5z" fill="#4981f8"/><g><path d="m226.832 199.125h45.384v115.102h-45.384z" fill="#c8d2dc"/></g><g><path d="m382.677 427.956c-4.142 0-7.5-3.358-7.5-7.5v-107.211c0-4.142 3.358-7.5 7.5-7.5s7.5 3.358 7.5 7.5v107.211c0 4.142-3.358 7.5-7.5 7.5z" fill="#995e34"/></g><g><path d="m405.758 199.125-22.081 20-25.128-20-17.381-47.224c-1.271-3.452 1.284-7.115 4.963-7.115h72.044c3.679 0 6.234 3.663 4.963 7.115z" fill="#62a4fb"/></g><g><path d="m335.852 58.041c-3.687-8.421.151-18.235 8.572-21.922s18.235.151 21.922 8.571c2.537 5.795.153 20.007-1.58 28.305-.664 3.181-4.256 4.753-7.043 3.084-7.274-4.355-19.333-12.243-21.871-18.038z" fill="#9ec8fc"/></g><g><path d="m428.455 58.041c3.687-8.421-.151-18.235-8.572-21.922s-18.235.151-21.922 8.571c-2.537 5.795-.153 20.007 1.58 28.305.664 3.181 4.256 4.753 7.043 3.084 7.274-4.355 19.334-12.243 21.871-18.038z" fill="#9ec8fc"/></g><path d="m409.148 102.384h-53.988c-4.142 0-7.5 3.358-7.5 7.5s3.358 7.5 7.5 7.5h19.494v54.572c0 4.142 3.358 7.5 7.5 7.5s7.5-3.358 7.5-7.5v-54.572h19.494c4.142 0 7.5-3.358 7.5-7.5s-3.358-7.5-7.5-7.5z" fill="#4981f8"/><g><path d="m359.462 199.125h45.384v115.102h-45.384z" fill="#c8d2dc"/></g></g></svg>