<svg id="Capa_1" enable-background="new 0 0 497 497" height="512" viewBox="0 0 497 497" width="512" xmlns="http://www.w3.org/2000/svg"><g><g><path d="m228.706 450.113-148.695 13.167 13.167-253.15h81.168c30.022 0 54.361 24.338 54.361 54.361v185.622z" fill="#518f60"/></g><g><g><path d="m249.616 284.492c-4.142 0-7.5-3.358-7.5-7.5v-32.045c0-11.669 9.493-21.162 21.162-21.162 4.142 0 7.5 3.358 7.5 7.5s-3.358 7.5-7.5 7.5c-3.398 0-6.162 2.764-6.162 6.162v32.045c0 4.142-3.358 7.5-7.5 7.5z" fill="#4e5a61"/></g><g><path d="m216.69 432.756c-4.142 0-7.5-3.358-7.5-7.5s3.358-7.5 7.5-7.5c17.266 0 32.158-6.55 43.067-18.943 10.601-12.042 16.439-28.705 16.439-46.919v-28.094c0-7.418-6.035-13.453-13.453-13.453-4.142 0-7.5-3.358-7.5-7.5s3.358-7.5 7.5-7.5c15.689 0 28.453 12.764 28.453 28.453v28.094c0 21.865-7.167 42.048-20.18 56.831-13.641 15.496-32.935 24.031-54.326 24.031z" fill="#c8d2dc"/></g><g><path d="m228.706 328.37h23.943c8.854 0 16.031-7.177 16.031-16.031v-34.57c0-4.121-3.34-7.461-7.461-7.461h-32.514l-20 23.35z" fill="#7e8b96"/></g><g><g><path d="m343.454 133.563c-4.142 0-7.5-3.358-7.5-7.5v-32.77c0-4.142 3.358-7.5 7.5-7.5s7.5 3.358 7.5 7.5v32.77c0 4.142-3.358 7.5-7.5 7.5z" fill="#c8d2dc"/></g><g><path d="m457.455 133.563c-4.142 0-7.5-3.358-7.5-7.5v-32.77c0-4.142 3.358-7.5 7.5-7.5s7.5 3.358 7.5 7.5v32.77c0 4.142-3.358 7.5-7.5 7.5z" fill="#c8d2dc"/></g></g><g><path d="m93.178 490.541v-490.541h-76.71c-8.449 0-15.297 6.849-15.297 15.297v475.244z" fill="#d7efdd"/></g><g><path d="m63.178 0h30v490.541h-30z" fill="#c0e6c9"/></g><g><path d="m476.264 93.294h-475.093v-77.997c0-8.448 6.848-15.297 15.297-15.297h459.796c10.806 0 19.565 8.76 19.565 19.565v54.163c0 10.806-8.76 19.566-19.565 19.566z" fill="#94d4a2"/></g><g><path d="m476.264 0h-30c10.806 0 19.565 8.76 19.565 19.565v54.163c0 10.805-8.76 19.565-19.565 19.565h30c10.806 0 19.565-8.76 19.565-19.565v-54.163c0-10.805-8.76-19.565-19.565-19.565z" fill="#7fcb8f"/></g><g><path d="m174.346 210.13h-30c30.022 0 54.361 24.338 54.361 54.361v185.623h30v-185.623c-.001-30.023-24.339-54.361-54.361-54.361z" fill="#457a51"/></g><g><path d="m158.225 270.308c11.49 0 20.804 9.314 20.804 20.804v159.002l-21.836 10-19.772-10v-159.002c0-11.49 9.314-20.804 20.804-20.804z" fill="#a2abb8"/></g><g><path d="m463.318 171.828h-125.728c-6.795 0-12.303-5.508-12.303-12.303v-28.444c0-6.795 5.508-12.303 12.303-12.303h125.728c6.795 0 12.303 5.508 12.303 12.303v28.444c0 6.794-5.508 12.303-12.303 12.303z" fill="#f0e9e6"/></g><g><path d="m495.829 497h-494.658v-46.647h464.132c16.859 0 30.527 13.667 30.527 30.527v16.12z" fill="#c8d2dc"/></g></g></g></svg>