<svg id="Capa_1" enable-background="new 0 0 490.642 490.642" height="512" viewBox="0 0 490.642 490.642" width="512" xmlns="http://www.w3.org/2000/svg"><g><path d="m315.556 447.316-28.037-250.6h-16.881c-.651.25-24.909 19.658-24.909 19.658l-22.639-19.658h-24.127l-24.225 250.708c-.397 4.123 2.623 7.787 6.747 8.184.245.024.487.035.728.035 3.818 0 7.083-2.903 7.457-6.782l.696-7.228c.059-.047.12-.09.178-.139l3.577-3.071c.001-.001.002-.002.003-.003l50.054-42.978 55.852 47.958.618 5.57c.425 3.836 3.673 6.673 7.445 6.673.276 0 .555-.015.836-.046 4.117-.457 7.084-4.165 6.627-8.281zm-28.688-122.573-31.178-26.77 25.755-22.114zm-12.584-112.142 3.458 29.875-20.058-16.356zm1.927 47.982-32.034 27.505-31.859-27.355 33.103-25.256zm-66.823-16.482 3.503-36.374 20.577 18.002zm-3.015 31.299 26.29 22.574-31.03 26.643zm-13.934 144.695 6.144-63.801 34.081 29.263zm51.738-44.423-39.489-33.907 39.49-33.907 39.489 33.906zm11.513 9.885 34.626-29.731 7.29 65.721z" fill="#c8d2dc"/><g><path d="m369.963 490.642h-249.284c-3.541 0-6.412-2.871-6.412-6.412v-7.72c0-15.115 12.253-27.368 27.368-27.368h207.372c15.115 0 27.368 12.253 27.368 27.368v7.72c0 3.542-2.87 6.412-6.412 6.412z" fill="#b9c3cd"/></g><g><path d="m349.007 449.142h-30c15.115 0 27.368 12.253 27.368 27.368v14.132h23.588c3.541 0 6.412-2.871 6.412-6.412v-7.72c0-15.115-12.253-27.368-27.368-27.368z" fill="#a2abb8"/></g><g><path d="m281.612 130.321 7.663-19.81c.956-2.472 3.552-3.897 6.151-3.376l50.968 10.207c3.315.664 5.231 4.155 4.011 7.307l-14.062 36.352c-1.22 3.153-4.986 4.445-7.884 2.705l-44.569-26.75c-2.273-1.362-3.234-4.163-2.278-6.635zm-80.245-31.041 7.663-19.81c.956-2.472-.005-5.273-2.277-6.636l-44.569-26.75c-2.898-1.74-6.665-.447-7.884 2.706l-14.062 36.352c-1.219 3.153.697 6.643 4.011 7.307l50.968 10.207c2.598.52 5.194-.905 6.15-3.376zm-13.414 97.195 36.352 14.062c3.153 1.219 6.643-.697 7.307-4.011l10.208-50.968c.52-2.599-.905-5.195-3.376-6.151l-19.81-7.663c-2.472-.956-5.273.005-6.637 2.277l-26.75 44.569c-1.739 2.899-.446 6.665 2.706 7.885zm88.812-130.661 26.107-43.498c1.74-2.898.447-6.665-2.706-7.884l-36.352-14.062c-3.153-1.219-6.643.697-7.307 4.011l-10.207 50.968m-.001 0c-.52 2.598.905 5.195 3.376 6.151l19.81 7.663c2.472.956 5.273-.005 6.637-2.277l.643-1.071" fill="#62a4fb"/></g><g><path d="m288.579 96.848-8.589-19.426c-1.072-2.424-.244-5.267 1.962-6.736l43.257-28.822c2.813-1.874 6.636-.761 8.003 2.331l15.761 35.648c1.367 3.092-.382 6.669-3.662 7.488l-50.43 12.6c-2.57.642-5.23-.659-6.302-3.083zm-78.691 34.792-8.589-19.426c-1.072-2.424-3.732-3.725-6.303-3.082l-50.43 12.6c-3.279.819-5.029 4.397-3.662 7.488l15.761 35.648c1.367 3.092 5.19 4.205 8.003 2.331l43.257-28.822c2.206-1.47 3.034-4.313 1.963-6.737zm59.242 78.213 35.648-15.761c3.092-1.367 4.205-5.19 2.331-8.003l-28.822-43.258c-1.469-2.205-4.313-3.033-6.737-1.962l-19.426 8.589c-2.424 1.072-3.725 3.732-3.082 6.303l12.6 50.43c.819 3.279 4.397 5.029 7.488 3.662zm-51.798-139.086 19.426-8.589c2.424-1.072 3.725-3.732 3.082-6.303l-12.6-50.43c-.819-3.28-4.397-5.029-7.488-3.662l-35.648 15.761c-3.092 1.367-4.205 5.19-2.331 8.003l28.822 43.257c1.47 2.206 4.313 3.034 6.737 1.963z" fill="#62a4fb"/></g><g><ellipse cx="244.047" cy="104.926" fill="#f0e9e6" rx="50.302" ry="50.302" transform="matrix(.159 -.987 .987 .159 101.672 329.197)"/></g><g><ellipse cx="244.047" cy="104.926" fill="#c8d2dc" rx="18.505" ry="18.505" transform="matrix(.406 -.914 .914 .406 48.993 285.265)"/></g></g></svg>