<svg id="Capa_1" enable-background="new 0 0 504.5 504.5" height="512" viewBox="0 0 504.5 504.5" width="512" xmlns="http://www.w3.org/2000/svg"><g><g><path d="m252.242 255.673c-4.142 0-7.5-4.848-7.5-10.828v-55.942c0-5.98 3.358-10.829 7.5-10.829 4.143 0 7.5 4.848 7.5 10.829v55.942c0 5.98-3.357 10.828-7.5 10.828z" fill="#b9c3cd"/></g><path d="m374.805 56.81c-4.212-32.387-32.052-56.81-64.757-56.81-25.063 0-46.861 14.2-57.806 34.97-10.944-20.77-32.742-34.97-57.806-34.97-30.925 0-57.838 21.964-63.994 52.226-.826 4.059 1.795 8.019 5.854 8.845 4.062.825 8.019-1.796 8.845-5.854 4.74-23.303 25.472-40.217 49.295-40.217 27.739 0 50.306 22.567 50.306 50.306v23.459c0 4.142 3.358 7.5 7.5 7.5 4.143 0 7.5-3.358 7.5-7.5v-23.459c0-27.739 22.567-50.306 50.306-50.306 25.194 0 46.639 18.806 49.882 43.745.534 4.108 4.294 7.002 8.404 6.47 4.108-.534 7.005-4.298 6.471-8.405z" fill="#b9c3cd"/><g><path d="m172.961 84.32c1.09 3.52 1.677 7.261 1.677 11.138 0 20.773-16.84 37.613-37.613 37.613s-37.613-16.84-37.613-37.613 16.84-37.613 37.613-37.613c16.894.001 31.188 11.14 35.936 26.475" fill="#faf0b0"/></g><g><path d="m403.624 84.32c1.09 3.52 1.677 7.261 1.677 11.138 0 20.773-16.84 37.613-37.613 37.613s-37.613-16.84-37.613-37.613 16.84-37.613 37.613-37.613c16.895.001 31.188 11.14 35.936 26.475" fill="#faf0b0"/></g><g><path d="m252.39 236.937h-.296c-9.924 0-17.968 8.045-17.968 17.968v171.484l17.116 20 19.117-20v-171.484c-.001-9.923-8.045-17.968-17.969-17.968z" fill="#7e8b96"/></g><g><path d="m174.415 90.197c3.88 0 6.724-3.603 5.887-7.391-4.43-20.039-22.3-35.028-43.671-35.028s-39.242 14.989-43.672 35.028c-.837 3.788 2.007 7.391 5.887 7.391z" fill="#c8d2dc"/></g><g><path d="m405.733 95.342c3.831 0 6.631-3.556 5.812-7.298-4.395-20.086-22.288-35.121-43.692-35.121s-39.297 15.036-43.692 35.121c-.819 3.742 1.981 7.298 5.812 7.298z" fill="#c8d2dc"/></g><g><path d="m270.358 176.938v-69.634c0-9.823-7.639-18.19-17.456-18.539-10.307-.366-18.777 7.88-18.777 18.105v70.068c0 10.005 8.111 18.116 18.116 18.116 10.006.001 18.117-8.111 18.117-18.116z" fill="#7e8b96"/></g><g><path d="m339.129 475.444h-173.775v-18.66c0-16.787 13.608-30.395 30.395-30.395h112.985c16.787 0 30.395 13.608 30.395 30.395z" fill="#dce6eb"/></g><g><path d="m308.734 426.389h-30c16.787 0 30.395 13.608 30.395 30.395v8.66l16.95 10 13.05-10v-8.66c0-16.787-13.608-30.395-30.395-30.395z" fill="#c8d2dc"/></g><g><path d="m371.96 504.5h-239.436c-2.392 0-4.33-1.939-4.33-4.33 0-19.178 15.547-34.725 34.725-34.725h182.976c16.787 0 30.395 13.608 30.395 30.395v4.33c0 2.391-1.939 4.33-4.33 4.33z" fill="#6dc17d"/></g><g><path d="m345.895 465.445h-30c16.787 0 30.395 13.608 30.395 30.395v8.66h25.67c2.392 0 4.33-1.939 4.33-4.33v-4.33c0-16.787-13.609-30.395-30.395-30.395z" fill="#68b76a"/></g></g></svg>