<svg id="Capa_1" enable-background="new 0 0 497 497" height="512" viewBox="0 0 497 497" width="512" xmlns="http://www.w3.org/2000/svg"><g><g><ellipse cx="319.646" cy="78.373" fill="#6dc17d" rx="46.15" ry="46.15" transform="matrix(.707 -.707 .707 .707 38.204 248.979)"/></g><g><path d="m319.646 32.224c-3.865 0-7.617.482-11.205 1.377 20.072 5.007 34.945 23.15 34.945 44.773s-14.873 39.765-34.945 44.773c3.588.895 7.34 1.377 11.205 1.377 25.488 0 46.15-20.662 46.15-46.15s-20.662-46.15-46.15-46.15z" fill="#68b76a"/></g><path d="m340.622 67.765c-2.929-2.929-7.678-2.929-10.607 0l-1.314 1.314v-5.214c0-4.142-3.358-7.5-7.5-7.5s-7.5 3.358-7.5 7.5v25.141l-.609-.609c-2.929-2.929-7.678-2.929-10.606 0-2.929 2.929-2.929 7.678 0 10.607l10.971 10.972c.079.079.164.147.245.221v42.219c0 4.142 3.358 7.5 7.5 7.5s7.5-3.358 7.5-7.5v-62.148c.081-.074.166-.143.245-.221l11.676-11.676c2.928-2.929 2.928-7.678-.001-10.606z" fill="#995e34"/><g><g><ellipse cx="58.647" cy="109.373" fill="#68b76a" rx="46.15" ry="46.15" transform="matrix(.988 -.156 .156 .988 -16.353 10.494)"/></g><path d="m75.807 119.397c-2.929-2.929-7.678-2.929-10.606 0l-.609.609v-25.141c0-4.142-3.358-7.5-7.5-7.5s-7.5 3.358-7.5 7.5v5.214l-1.314-1.314c-2.929-2.929-7.678-2.929-10.607 0s-2.929 7.677 0 10.606l11.676 11.676c.079.079.163.147.245.221v62.147c0 4.142 3.358 7.5 7.5 7.5s7.5-3.358 7.5-7.5v-42.219c.081-.074.166-.143.245-.221l10.971-10.971c2.928-2.929 2.928-7.678-.001-10.607z" fill="#995e34"/></g><g><path d="m0 366.142h186.757l-.495-49.091c-.498-49.367-28.467-94.342-72.524-116.621l-30.962-15.657c-19.368-9.794-40.407-14.468-61.303-14.198-11.878.153-21.473 9.718-21.473 21.597z" fill="#5ea570"/></g><g><path d="m201.194 336.142.495-49.091c.498-49.367 28.467-94.342 72.524-116.621l30.962-15.657c44.899-22.705 98.795-17.95 139.025 12.265 33.241 24.966 52.8 64.116 52.8 105.689v63.415z" fill="#518f60"/></g><g><path d="m444.2 167.038c-27.501-20.654-61.386-29.403-94.419-25.625 22.942 2.613 45.235 11.216 64.419 25.625 33.241 24.966 52.8 64.116 52.8 105.689v63.415h30v-63.415c0-41.573-19.559-80.723-52.8-105.689z" fill="#457a51"/></g><g><path d="m488.164 464.776h-479.328c-4.88 0-8.836-3.956-8.836-8.836v-123.845c0-17.849 14.469-32.318 32.318-32.318h119.525c33.304 0 66.142-7.831 95.862-22.859l12.951-6.549c72.16-36.49 158.778-28.848 223.434 19.712 8.128 6.104 12.91 15.677 12.91 25.842v140.017c0 4.88-3.956 8.836-8.836 8.836z" fill="#6dc17d"/></g><g><path d="m484.09 290.08c-41.651-31.282-92.416-45.578-142.558-42.041 40.03 2.837 79.214 16.998 112.558 42.04 8.128 6.104 12.91 15.677 12.91 25.842v140.019c0 4.88-3.956 8.836-8.836 8.836h30c4.88 0 8.836-3.956 8.836-8.836v-140.018c0-10.165-4.782-19.737-12.91-25.842z" fill="#68b76a"/></g><g><path d="m126.069 243.443h-31.227v-53.984c0-6.739 5.463-12.202 12.202-12.202h6.822c6.739 0 12.202 5.463 12.202 12.202v53.984z" fill="#b9c3cd"/></g><g><path d="m335.117 329.712v-50.312l-124.638-149.514-124.637 149.514v50.312l124.706 60z" fill="#f1cd88"/></g><g><path d="m305.117 311.868v65.681l30-47.836v-50.313l-124.638-149.514-23.336 27.994 109.99 131.943c5.159 6.188 7.984 13.989 7.984 22.045z" fill="#eec06b"/></g><g><path d="m171.685 329.712h-85.843v63.227c0 9.595 7.778 17.373 17.373 17.373h70.997l36.335-20 36.335 20h70.86c9.595 0 17.373-7.778 17.373-17.373v-63.227h-83.608" fill="#909ba6"/></g><g><path d="m84.842 299.144 120.368-147.237c2.91-2.91 7.629-2.91 10.539 0l120.368 147.238h20.397c7.76 0 11.947-9.101 6.899-14.994l-147.664-172.385c-2.91-2.91-7.629-2.91-10.539 0l-147.665 172.384c-5.048 5.893-.861 14.994 6.899 14.994z" fill="#5f6c75"/></g><g><path d="m246.883 410.313h-72.671v-109.975c0-7.742 6.277-14.019 14.019-14.019h44.632c7.743 0 14.019 6.277 14.019 14.019v109.975z" fill="#dce6eb"/></g><g><ellipse cx="424.253" cy="149.848" fill="#6dc17d" rx="46.15" ry="46.15" transform="matrix(.928 -.372 .372 .928 -25.293 168.642)"/></g><g><path d="m424.253 103.699c-3.865 0-7.617.482-11.204 1.377 20.072 5.007 34.945 23.15 34.945 44.773s-14.873 39.765-34.945 44.773c3.588.895 7.339 1.377 11.204 1.377 25.488 0 46.15-20.662 46.15-46.15 0-25.489-20.662-46.15-46.15-46.15z" fill="#68b76a"/></g><path d="m445.229 139.239c-2.929-2.929-7.678-2.929-10.606 0l-1.314 1.314v-5.213c0-4.142-3.358-7.5-7.5-7.5s-7.5 3.358-7.5 7.5v25.142l-.61-.61c-2.929-2.929-7.678-2.929-10.606 0-2.929 2.929-2.929 7.678 0 10.607l10.972 10.971c.079.079.163.147.245.221v42.219c0 4.142 3.358 7.5 7.5 7.5s7.5-3.358 7.5-7.5v-62.147c.081-.074.166-.143.245-.221l11.676-11.676c2.927-2.929 2.927-7.678-.002-10.607z" fill="#995e34"/><path d="m246.883 397.928-25.315-28.077 25.315-28.077v-23.77c-.973.455-1.872 1.108-2.637 1.956l-33.831 37.522-33.831-37.522c-.694-.769-1.502-1.369-2.372-1.816v23.924l25.05 27.784-25.05 27.784v12.678h10.874l25.329-28.092 25.328 28.092h11.139v-12.386z" fill="#c8d2dc"/></g></svg>