<svg id="Capa_1" enable-background="new 0 0 497 497" height="512" viewBox="0 0 497 497" width="512" xmlns="http://www.w3.org/2000/svg"><g><g fill="#909ba6"><path d="m216.491 117.705-47.01-4.02c-4.128-.349-7.759 2.707-8.112 6.833-.353 4.128 2.707 7.759 6.833 8.112l16.033 1.371-3.454 40.396c-.353 4.127 2.706 7.759 6.833 8.112.217.019.434.028.647.028 3.853 0 7.13-2.952 7.464-6.861l3.454-40.396 16.032 1.371c.217.019.434.028.648.028 3.853 0 7.13-2.952 7.464-6.861.355-4.128-2.705-7.76-6.832-8.113z"/><path d="m339.514 129.043-47.009-4.02c-4.132-.349-7.759 2.706-8.112 6.833s2.706 7.759 6.833 8.112l16.032 1.371-3.454 40.396c-.353 4.127 2.706 7.759 6.833 8.112.217.019.434.028.647.028 3.853 0 7.13-2.952 7.464-6.861l3.455-40.396 16.032 1.371c.217.019.434.028.648.028 3.853 0 7.13-2.952 7.464-6.861.354-4.129-2.706-7.76-6.833-8.113z"/></g><g><path d="m317 310.999-68.745 20-68.255-20 20.941-99.401 47.412-15.451 49.481 24.748z" fill="#c8d2dc"/></g><g><circle cx="248.5" cy="263.298" fill="#909ba6" r="24.67"/></g><g><path d="m76.396 263.798c-4.142 0-7.5-3.358-7.5-7.5 0-7.9 4.639-12.186 7.411-14.746 2.413-2.229 2.589-2.576 2.589-3.727s-.176-1.498-2.589-3.727c-2.772-2.56-7.411-6.845-7.411-14.746s4.64-12.185 7.412-14.745c2.413-2.228 2.588-2.575 2.588-3.725 0-4.142 3.358-7.5 7.5-7.5s7.5 3.358 7.5 7.5c0 7.9-4.64 12.185-7.412 14.745-2.413 2.228-2.588 2.575-2.588 3.725 0 1.151.176 1.498 2.589 3.727 2.772 2.56 7.411 6.845 7.411 14.746 0 7.9-4.639 12.186-7.411 14.746-2.413 2.229-2.589 2.576-2.589 3.727 0 4.143-3.357 7.5-7.5 7.5z" fill="#b9c3cd"/></g><g><path d="m404.014 291.506c-4.142 0-7.5-3.358-7.5-7.5 0-7.9 4.639-12.185 7.411-14.746 2.413-2.229 2.589-2.576 2.589-3.727s-.176-1.498-2.589-3.727c-2.772-2.56-7.411-6.845-7.411-14.746 0-7.9 4.64-12.185 7.412-14.745 2.413-2.228 2.588-2.575 2.588-3.725 0-4.142 3.358-7.5 7.5-7.5s7.5 3.358 7.5 7.5c0 7.9-4.64 12.185-7.412 14.745-2.413 2.228-2.588 2.575-2.588 3.725 0 1.151.176 1.498 2.589 3.727 2.772 2.56 7.411 6.845 7.411 14.746s-4.64 12.185-7.412 14.746c-2.413 2.228-2.588 2.575-2.588 3.726 0 4.143-3.358 7.501-7.5 7.501z" fill="#b9c3cd"/></g><g><path d="m128.607 175.081-70.138-6.73c-5.246-.503-9.091-5.164-8.587-10.41l3.021-27.396c.503-5.246 5.164-9.091 10.41-8.587l70.138 6.73c5.246.503 9.091 5.164 8.587 10.41l-3.021 27.396c-.503 5.246-5.164 9.09-10.41 8.587z" fill="#dd552d"/></g><g><path d="m444.341 206.473-70.138-6.73c-5.246-.503-9.091-5.164-8.587-10.41l2.877-25.894c.503-5.246 5.164-9.091 10.41-8.587l70.138 6.73c5.246.503 9.091 5.164 8.587 10.41l-2.877 25.894c-.503 5.245-5.164 9.09-10.41 8.587z" fill="#dd552d"/></g><g><path d="m479.99 238.374-467.069-44.817c-7.638-.733-13.235-7.519-12.503-15.157l1.435-14.952c.733-7.638 7.519-13.236 15.157-12.503l467.069 44.817c7.638.733 13.235 7.519 12.503 15.157l-1.435 14.953c-.733 7.637-7.519 13.234-15.157 12.502z" fill="#f5de46"/></g><g><path d="m486.402 383.342h-475.804c-5.853 0-10.598-4.745-10.598-10.598v-37.678c0-13.292 10.775-24.067 24.067-24.067h448.866c13.292 0 24.067 10.775 24.067 24.067v37.678c0 5.853-4.745 10.598-10.598 10.598z" fill="#6dc17d"/></g><g><path d="m472.933 310.999h-30c13.292 0 24.067 10.775 24.067 24.067v48.276h19.402c5.853 0 10.598-4.745 10.598-10.598v-37.678c0-13.292-10.775-24.067-24.067-24.067z" fill="#68b76a"/></g></g></svg>