<svg id="Capa_1" enable-background="new 0 0 497 497" height="512" viewBox="0 0 497 497" width="512" xmlns="http://www.w3.org/2000/svg"><g><g><path d="m461.045 204.61h2.276v-141.899c0-10.945-8.873-19.818-19.818-19.818h-5.218c-10.945 0-19.818 8.873-19.818 19.818v99.32c-.001 23.516 19.062 42.579 42.578 42.579z" fill="#62a4fb"/></g><g><path d="m434.779 358.216h28.542v-121.241h-28.542c-7.07 0-12.854 5.784-12.854 12.854v95.533c0 7.07 5.784 12.854 12.854 12.854z" fill="#bed9fd"/></g><g><path d="m463.321 458.009c-4.142 0-7.5-3.358-7.5-7.5v-410.616c0-4.142 3.358-7.5 7.5-7.5s7.5 3.358 7.5 7.5v410.616c0 4.142-3.358 7.5-7.5 7.5z" fill="#dce6eb"/></g><g><g><path d="m150.117 435.384-18.95 10-21.714-10c-7.966 0-14.424-6.458-14.424-14.424v-50.581h69.512v50.581c0 7.966-6.458 14.424-14.424 14.424z" fill="#5f6c75"/></g><g><path d="m305.288 435.384-13.121 10-27.543-10c-7.966 0-14.424-6.458-14.424-14.424v-50.581h69.512v50.581c0 7.966-6.458 14.424-14.424 14.424z" fill="#5f6c75"/></g></g><g><path d="m488.562 488.818h-480.124c-4.66 0-8.438-3.778-8.438-8.438v-20.838c0-13.292 10.775-24.067 24.067-24.067h448.866c13.292 0 24.067 10.775 24.067 24.067v20.838c0 4.66-3.778 8.438-8.438 8.438z" fill="#a2abb8"/></g><g><path d="m472.933 435.475h-30c13.292 0 24.067 10.775 24.067 24.067v29.276h21.562c4.66 0 8.438-3.778 8.438-8.438v-20.838c0-13.292-10.775-24.067-24.067-24.067z" fill="#909ba6"/></g><g><path d="m284.956 52.52-73.289 20-75.124-20v-30.68c0-7.543 6.115-13.658 13.658-13.658h121.097c7.543 0 13.658 6.115 13.658 13.658z" fill="#f0e9e6"/></g><g><path d="m358.54 295.217-6.116-205.773c-.544-20.548-17.358-36.923-37.913-36.923h-214.282c-20.556 0-37.37 16.375-37.913 36.923l-6.116 205.773 140.967 32.06z" fill="#ddebfd"/></g><g><path d="m322.425 89.444 6.799 228.757 29.317-22.984-6.116-205.773c-.544-20.548-17.358-36.924-37.913-36.924h-30c20.555 0 37.369 16.376 37.913 36.924z" fill="#bed9fd"/></g><g><path d="m358.54 295.217h-302.34l-1.629 54.822c-.564 21.331 16.574 38.929 37.913 38.929h229.772c21.339 0 38.478-17.598 37.913-38.929z" fill="#5392f9"/></g><g><path d="m360.17 350.039-1.629-54.822h-30l1.629 54.822c.564 21.331-16.574 38.929-37.913 38.929h30c21.339 0 38.477-17.598 37.913-38.929z" fill="#5392f9"/></g><g><path d="m352.584 94.79-.159-5.347c-.544-20.548-17.358-36.923-37.913-36.923h-214.283c-20.555 0-37.37 16.375-37.913 36.923l-.159 5.347z" fill="#5392f9"/></g><g><path d="m352.425 89.444c-.544-20.548-17.358-36.924-37.913-36.924h-30c20.555 0 37.37 16.375 37.913 36.924l.159 5.346h30z" fill="#4981f8"/></g><g><path d="m150.483 357.192h-39.395c-8.316 0-15.058-6.742-15.058-15.058v-2.338c0-8.316 6.742-15.058 15.058-15.058h39.395c8.317 0 15.058 6.742 15.058 15.058v2.338c0 8.316-6.742 15.058-15.058 15.058z" fill="#faf8f8"/></g><g><path d="m307.253 357.192h-39.395c-8.316 0-15.058-6.742-15.058-15.058v-2.338c0-8.316 6.742-15.058 15.058-15.058h39.395c8.316 0 15.058 6.742 15.058 15.058v2.338c0 8.316-6.742 15.058-15.058 15.058z" fill="#faf8f8"/></g><g><path d="m158.296 195.032c-1.919 0-3.839-.732-5.303-2.197-2.929-2.929-2.929-7.678 0-10.607l24.081-24.081c2.929-2.929 7.678-2.929 10.606 0 2.929 2.929 2.929 7.678 0 10.606l-24.081 24.081c-1.464 1.466-3.384 2.198-5.303 2.198z" fill="#faf8f8"/></g><g><path d="m165.381 232.856c-1.919 0-3.839-.732-5.303-2.197-2.929-2.929-2.929-7.678 0-10.606l83.455-83.455c2.929-2.929 7.678-2.929 10.607 0s2.929 7.678 0 10.606l-83.455 83.455c-1.465 1.464-3.385 2.197-5.304 2.197z" fill="#faf8f8"/></g><g><path d="m228.286 221.154c-1.919 0-3.839-.732-5.303-2.197-2.929-2.929-2.929-7.678 0-10.606l15.682-15.682c2.929-2.929 7.678-2.929 10.607 0s2.929 7.678 0 10.606l-15.682 15.682c-1.465 1.465-3.384 2.197-5.304 2.197z" fill="#faf8f8"/></g></g></svg>