<svg id="Capa_1" enable-background="new 0 0 497 497" height="512" viewBox="0 0 497 497" width="512" xmlns="http://www.w3.org/2000/svg"><g><g><g><path d="m97.917 281.429c18.724 8.433 20.163 17.436 16.303 26.005-3.859 8.569-11.555 13.458-30.279 5.025-12.044-5.424-21.925-17.597-27.443-25.591-2.476-3.588-.261-8.507 4.067-9.03 9.644-1.167 25.308-1.834 37.352 3.591z" fill="#7fbd93"/></g><g><path d="m134.257 281.429c-18.724 8.433-20.163 17.436-16.303 26.005 3.859 8.569 11.555 13.458 30.279 5.025 12.044-5.424 21.926-17.597 27.443-25.591 2.476-3.588.26-8.507-4.067-9.03-9.644-1.167-25.308-1.834-37.352 3.591z" fill="#7fbd93"/></g><g><path d="m97.917 366.623c18.724 8.433 20.163 17.436 16.303 26.005-3.859 8.569-11.555 13.458-30.279 5.025-12.044-5.424-21.925-17.597-27.443-25.591-2.476-3.588-.261-8.507 4.067-9.03 9.644-1.167 25.308-1.833 37.352 3.591z" fill="#7fbd93"/></g><g><path d="m134.257 366.623c-18.724 8.433-20.163 17.436-16.303 26.005 3.859 8.569 11.555 13.458 30.279 5.025 12.044-5.424 21.926-17.597 27.443-25.591 2.476-3.588.26-8.507-4.067-9.03-9.644-1.167-25.308-1.833-37.352 3.591z" fill="#7fbd93"/></g><g><path d="m115.953 474.247c-4.143 0-7.5-3.749-7.5-8.373v-243.06c0-4.624 3.357-8.373 7.5-8.373s7.5 3.749 7.5 8.373v243.06c0 4.624-3.357 8.373-7.5 8.373z" fill="#518f60"/></g><g><path d="m168.03 53.596c-4.086 10.632-16.017 15.938-26.649 11.852s-15.938-16.017-11.852-26.649 17.863-35.676 33.496-29.668c14.9 5.726 9.091 33.833 5.005 44.465z" fill="#e9a52d"/></g><g><path d="m201.122 110.445c-10.407 4.628-22.596-.056-27.224-10.463s.056-22.596 10.463-27.224 37.858-12.596 44.664 2.707c6.486 14.584-17.496 30.351-27.903 34.98z" fill="#e9a52d"/></g><g><path d="m184.324 174.043c-10.632-4.086-15.938-16.017-11.852-26.649s16.017-15.938 26.649-11.852 35.676 17.863 29.668 33.496c-5.726 14.899-33.834 9.091-44.465 5.005z" fill="#e9a52d"/></g><g><path d="m127.475 207.135c-4.628-10.407.056-22.596 10.463-27.224s22.596.056 27.224 10.463 12.596 37.858-2.707 44.664c-14.585 6.486-30.352-17.496-34.98-27.903z" fill="#e9a52d"/></g><g><path d="m63.876 190.336c4.086-10.632 16.017-15.938 26.649-11.852s15.938 16.017 11.852 26.649-17.863 35.676-33.496 29.668c-14.899-5.726-9.091-33.833-5.005-44.465z" fill="#e9a52d"/></g><g><path d="m30.785 133.487c10.407-4.628 22.596.056 27.224 10.463s-.056 22.596-10.463 27.224-37.858 12.596-44.664-2.707c-6.487-14.584 17.495-30.351 27.903-34.98z" fill="#e9a52d"/></g><g><path d="m47.583 69.889c10.632 4.086 15.938 16.017 11.852 26.649s-16.017 15.938-26.649 11.852-35.676-17.863-29.668-33.496c5.726-14.899 33.833-9.091 44.465-5.005z" fill="#e9a52d"/></g><g><path d="m104.432 36.797c4.629 10.407-.056 22.596-10.463 27.224s-22.596-.056-27.224-10.463c-4.629-10.407-12.596-37.858 2.707-44.664 14.584-6.486 30.352 17.496 34.98 27.903z" fill="#e9a52d"/></g><g><path d="m140.043 54.836c0 13.304-10.785 24.09-24.09 24.09s-24.09-10.785-24.09-24.09 4.527-46.384 24.09-46.384c18.645-.001 24.09 33.08 24.09 46.384z" fill="#f5de46"/></g><g><path d="m183.083 146.055c-13.304 0-24.09-10.785-24.09-24.09s10.785-24.09 24.09-24.09c13.304 0 46.384 4.527 46.384 24.09.001 18.645-33.079 24.09-46.384 24.09z" fill="#f5de46"/></g><g><path d="m91.864 189.096c0-13.304 10.785-24.09 24.09-24.09s24.09 10.785 24.09 24.09c0 13.304-4.527 46.384-24.09 46.384-18.645 0-24.09-33.08-24.09-46.384z" fill="#f5de46"/></g><g><path d="m48.823 97.876c13.304 0 24.09 10.785 24.09 24.09s-10.785 24.09-24.09 24.09c-13.304 0-46.384-4.527-46.384-24.09 0-18.644 33.08-24.09 46.384-24.09z" fill="#f5de46"/></g><g><path d="m180.455 91.532c-9.408 9.408-24.66 9.408-34.068 0s-9.408-24.66 0-34.068 36-29.598 49.833-15.765c13.184 13.184-6.357 40.425-15.765 49.833z" fill="#f5de46"/></g><g><path d="m146.388 186.468c-9.408-9.408-9.408-24.66 0-34.068s24.66-9.408 34.068 0 29.598 36 15.765 49.833c-13.184 13.183-40.426-6.357-49.833-15.765z" fill="#f5de46"/></g><g><path d="m51.451 152.4c9.408-9.408 24.66-9.408 34.068 0s9.408 24.66 0 34.068-36 29.598-49.833 15.765c-13.183-13.184 6.358-40.425 15.765-49.833z" fill="#f5de46"/></g><g><path d="m85.519 57.464c9.408 9.407 9.408 24.66 0 34.068s-24.66 9.408-34.068 0-29.598-36-15.765-49.833c13.184-13.183 40.426 6.357 49.833 15.765z" fill="#f5de46"/></g><g><ellipse cx="115.953" cy="121.966" fill="#faf0b0" rx="67.614" ry="67.614" transform="matrix(.23 -.973 .973 .23 -29.391 206.795)"/></g><g><path d="m115.953 54.352c-5.158 0-10.173.597-15 1.691 30.12 6.826 52.614 33.739 52.614 65.923 0 32.185-22.494 59.098-52.614 65.924 4.827 1.094 9.842 1.691 15 1.691 37.342 0 67.614-30.272 67.614-67.614 0-37.343-30.272-67.615-67.614-67.615z" fill="#f8e883"/></g></g><g><g><path d="m360.371 281.429c18.724 8.433 20.163 17.436 16.303 26.005-3.859 8.569-11.555 13.458-30.279 5.025-12.044-5.424-21.926-17.597-27.443-25.591-2.476-3.588-.261-8.507 4.067-9.03 9.644-1.167 25.308-1.834 37.352 3.591z" fill="#7fbd93"/></g><g><path d="m396.711 281.429c-18.724 8.433-20.163 17.436-16.303 26.005 3.859 8.569 11.555 13.458 30.279 5.025 12.044-5.424 21.926-17.597 27.443-25.591 2.476-3.588.26-8.507-4.067-9.03-9.643-1.167-25.307-1.834-37.352 3.591z" fill="#7fbd93"/></g><g><path d="m360.371 366.623c18.724 8.433 20.163 17.436 16.303 26.005-3.859 8.569-11.555 13.458-30.279 5.025-12.044-5.424-21.926-17.597-27.443-25.591-2.476-3.588-.26-8.507 4.067-9.03 9.644-1.167 25.308-1.833 37.352 3.591z" fill="#7fbd93"/></g><g><path d="m396.711 366.623c-18.724 8.433-20.163 17.436-16.303 26.005 3.859 8.569 11.555 13.458 30.279 5.025 12.044-5.424 21.926-17.597 27.443-25.591 2.476-3.588.26-8.507-4.067-9.03-9.643-1.167-25.307-1.833-37.352 3.591z" fill="#7fbd93"/></g><g><path d="m378.407 474.247c-4.143 0-7.5-3.749-7.5-8.373v-243.06c0-4.624 3.357-8.373 7.5-8.373s7.5 3.749 7.5 8.373v243.06c0 4.624-3.357 8.373-7.5 8.373z" fill="#518f60"/></g><g><path d="m430.484 53.596c-4.086 10.632-16.017 15.938-26.649 11.852s-15.938-16.017-11.852-26.649 17.863-35.676 33.496-29.668c14.9 5.726 9.091 33.833 5.005 44.465z" fill="#e9a52d"/></g><g><path d="m463.576 110.445c-10.407 4.628-22.596-.056-27.224-10.463s.056-22.596 10.463-27.224 37.858-12.596 44.664 2.707c6.487 14.584-17.496 30.351-27.903 34.98z" fill="#e9a52d"/></g><g><path d="m446.778 174.043c-10.632-4.086-15.938-16.017-11.852-26.649s16.017-15.938 26.649-11.852 35.676 17.863 29.668 33.496c-5.726 14.899-33.834 9.091-44.465 5.005z" fill="#e9a52d"/></g><g><path d="m389.929 207.135c-4.628-10.407.056-22.596 10.463-27.224s22.596.056 27.224 10.463 12.596 37.858-2.707 44.664c-14.584 6.486-30.352-17.496-34.98-27.903z" fill="#e9a52d"/></g><g><path d="m326.331 190.336c4.086-10.632 16.017-15.938 26.649-11.852s15.938 16.017 11.852 26.649-17.863 35.676-33.496 29.668c-14.9-5.726-9.091-33.833-5.005-44.465z" fill="#e9a52d"/></g><g><path d="m293.239 133.487c10.407-4.628 22.596.056 27.224 10.463s-.056 22.596-10.463 27.224-37.858 12.596-44.664-2.707c-6.487-14.584 17.496-30.351 27.903-34.98z" fill="#e9a52d"/></g><g><path d="m310.037 69.889c10.632 4.086 15.938 16.017 11.852 26.649s-16.017 15.938-26.649 11.852-35.676-17.863-29.668-33.496c5.726-14.899 33.834-9.091 44.465-5.005z" fill="#e9a52d"/></g><g><path d="m366.886 36.797c4.629 10.407-.056 22.596-10.463 27.224s-22.596-.056-27.224-10.463c-4.629-10.407-12.596-37.858 2.707-44.664 14.584-6.486 30.352 17.496 34.98 27.903z" fill="#e9a52d"/></g><g><path d="m402.497 54.836c0 13.304-10.785 24.09-24.09 24.09s-24.09-10.785-24.09-24.09 4.527-46.384 24.09-46.384c18.645-.001 24.09 33.08 24.09 46.384z" fill="#f5de46"/></g><g><path d="m445.538 146.055c-13.304 0-24.09-10.785-24.09-24.09s10.785-24.09 24.09-24.09 46.384 4.527 46.384 24.09c0 18.645-33.08 24.09-46.384 24.09z" fill="#f5de46"/></g><g><path d="m354.318 189.096c0-13.304 10.785-24.09 24.09-24.09s24.09 10.785 24.09 24.09c0 13.304-4.527 46.384-24.09 46.384-18.645 0-24.09-33.08-24.09-46.384z" fill="#f5de46"/></g><g><path d="m311.277 97.876c13.304 0 24.09 10.785 24.09 24.09s-10.785 24.09-24.09 24.09c-13.304 0-46.384-4.527-46.384-24.09 0-18.644 33.08-24.09 46.384-24.09z" fill="#f5de46"/></g><g><path d="m442.909 91.532c-9.407 9.408-24.66 9.408-34.068 0s-9.408-24.66 0-34.068 36-29.598 49.833-15.765c13.184 13.184-6.357 40.425-15.765 49.833z" fill="#f5de46"/></g><g><path d="m408.842 186.468c-9.408-9.408-9.408-24.66 0-34.068s24.66-9.408 34.068 0 29.598 36 15.765 49.833c-13.184 13.183-40.426-6.357-49.833-15.765z" fill="#f5de46"/></g><g><path d="m313.905 152.4c9.408-9.408 24.66-9.408 34.068 0s9.408 24.66 0 34.068-36 29.598-49.833 15.765c-13.183-13.184 6.358-40.425 15.765-49.833z" fill="#f5de46"/></g><g><path d="m347.973 57.464c9.408 9.407 9.408 24.66 0 34.068s-24.66 9.408-34.068 0-29.598-36-15.765-49.833c13.184-13.183 40.426 6.357 49.833 15.765z" fill="#f5de46"/></g><g><ellipse cx="378.408" cy="121.966" fill="#faf0b0" rx="67.614" ry="67.614" transform="matrix(.23 -.973 .973 .23 172.764 462.229)"/></g><g><path d="m378.408 54.352c-5.158 0-10.173.597-15 1.691 30.12 6.826 52.614 33.739 52.614 65.923 0 32.185-22.494 59.098-52.614 65.924 4.827 1.094 9.842 1.691 15 1.691 37.342 0 67.614-30.272 67.614-67.614 0-37.343-30.272-67.615-67.614-67.615z" fill="#f8e883"/></g></g><g><path d="m490.297 489.202h-483.594c-3.702 0-6.703-3.001-6.703-6.703v-8.592c0-9.223 7.476-16.699 16.699-16.699h463.602c9.223 0 16.699 7.476 16.699 16.699v8.592c0 3.702-3.001 6.703-6.703 6.703z" fill="#6dc17d"/></g></g></svg>