<svg id="Capa_1" enable-background="new 0 0 490.419 490.419" height="512" viewBox="0 0 490.419 490.419" width="512" xmlns="http://www.w3.org/2000/svg"><g><g><ellipse cx="118.51" cy="214.603" fill="#d4cdcb" rx="86.946" ry="127.876" transform="matrix(.995 -.099 .099 .995 -20.587 12.734)"/></g><g><path d="m205.032 206.028c-6.965-70.279-51.348-123.413-99.133-118.678-3.073.304-6.083.845-9.027 1.601 39.18 9.85 72.231 57.246 78.16 117.077 6.517 65.76-22.038 123.228-64.884 134.226 6.842 1.72 13.869 2.304 20.973 1.6 47.785-4.735 80.876-65.547 73.911-135.826z" fill="#c4bebc"/></g><g><ellipse cx="382.762" cy="214.603" fill="#d4cdcb" rx="127.876" ry="86.946" transform="matrix(.099 -.995 .995 .099 131.457 574.334)"/></g><g><path d="m395.373 87.35c-7.104-.704-14.131-.119-20.973 1.601 42.846 10.998 71.401 68.466 64.884 134.226-5.93 59.831-38.98 107.227-78.16 117.077 2.944.756 5.955 1.296 9.027 1.6 47.785 4.736 92.168-48.398 99.133-118.677s-26.126-131.091-73.911-135.827z" fill="#c4bebc"/></g><g><ellipse cx="248.489" cy="202.902" fill="#faf8f8" rx="138.124" ry="93.914" transform="matrix(.017 -1 1 .017 41.442 447.949)"/></g><g><path d="m250.808 64.798c-5.475-.092-10.851.515-16.092 1.75 45.085 10.661 78.837 68.623 77.673 137.931-1.146 68.22-35.731 124.315-80.129 134.778 4.53 1.071 9.173 1.67 13.908 1.75 51.86.871 94.939-60.254 96.22-136.528 1.282-76.273-39.72-138.81-91.58-139.681z" fill="#f0e9e6"/></g><g><path d="m406.769 425.63h-323.12c-.838 0-1.673-.012-2.506-.036-51.395-1.488-88.948-49.296-79.755-99.884l4.528-24.917c1.821-10.019 1.73-20.291-.267-30.276l-3.152-15.758c-1.979-9.896 5.59-19.13 15.682-19.13h454.056c10.092 0 17.662 9.233 15.682 19.13l-3.152 15.758c-1.997 9.985-2.087 20.258-.267 30.276l4.528 24.917c9.194 50.588-28.359 98.396-79.755 99.884-.828.024-1.664.036-2.502.036z" fill="#f1cd88"/></g><g><path d="m489.03 325.71-4.528-24.916c-1.821-10.019-1.73-20.291.267-30.276l3.152-15.758c1.979-9.896-5.59-19.129-15.682-19.129h-30c10.092 0 17.662 9.233 15.682 19.129l-3.152 15.758c-1.997 9.985-2.087 20.258-.267 30.276l4.528 24.916c9.194 50.588-28.359 98.396-79.755 99.884-.832.024-1.668.036-2.505.036h30c.838 0 1.673-.012 2.505-.036 51.395-1.489 88.948-49.296 79.755-99.884z" fill="#eec06b"/></g><g><path d="m216.973 297.056h-179.819c-4.142 0-7.5-3.358-7.5-7.5s3.358-7.5 7.5-7.5h179.819c4.142 0 7.5 3.358 7.5 7.5s-3.358 7.5-7.5 7.5z" fill="#eec06b"/></g><g><path d="m317.726 334.64h-280.572c-4.142 0-7.5-3.358-7.5-7.5s3.358-7.5 7.5-7.5h280.572c4.142 0 7.5 3.358 7.5 7.5s-3.358 7.5-7.5 7.5z" fill="#eec06b"/></g><g><path d="m421.633 297.056h-46.428c-4.142 0-7.5-3.358-7.5-7.5s3.358-7.5 7.5-7.5h46.428c4.142 0 7.5 3.358 7.5 7.5s-3.358 7.5-7.5 7.5z" fill="#eec06b"/></g><g><path d="m410.398 164.99c-1.156 0-2.308-.267-3.36-.795l-16.177-8.107c-3.703-1.856-5.201-6.362-3.345-10.065s6.362-5.201 10.065-3.345l13.401 6.716 28.88-9.586c3.934-1.304 8.176.824 9.481 4.755s-.824 8.176-4.755 9.481l-31.828 10.564c-.768.255-1.566.382-2.362.382z" fill="#c4bebc"/></g><path d="m76.535 178.665-5.706-17.171c-.627-1.887-1.978-3.447-3.755-4.339l-25.127-12.603c-1.824 4.594-3.44 9.387-4.829 14.359l20.456 10.26 4.727 14.225c1.045 3.146 3.973 5.137 7.116 5.137.784 0 1.581-.124 2.366-.385 3.931-1.306 6.058-5.551 4.752-9.483z" fill="#c4bebc"/></g></svg>