<svg id="Capa_1" enable-background="new 0 0 497 497" height="512" viewBox="0 0 497 497" width="512" xmlns="http://www.w3.org/2000/svg"><g><g><path d="m353.556 320.168-50.695-32.971c-90.798-55.154-208.049-48.902-302.861.344v9.59 103.565h350.556z" fill="#518f60"/></g><g><path d="m302.861 287.196c-88.851-53.971-203.032-58.702-296.73-12.736-3.756 1.843-6.131 5.673-6.131 9.857v23.239c94.811-49.245 212.063-45.513 302.861 9.641l47.695 28.971 3-26z" fill="#457a51"/></g><g fill="#3b6845"><path d="m162.488 306.995c5.44 18.708 5.452 31.889 5.451 32.226-.057 5.179 3.433 9.404 7.867 9.605.103.005.207.007.311.008 4.589.013 8.368-4.282 8.441-9.594.03-2.194.2-48.63-34.772-96.089-7.553-.165-15.114-.063-22.665.312 20.642 23.27 30.611 47.177 35.367 63.532z"/><path d="m110.309 342c.579 4.608 3.901 7.929 7.778 8.105.537.024 1.086-.012 1.639-.113 4.543-.833 7.69-5.761 7.032-11.007-2.471-19.679-10.505-55.679-36.486-91.515-6.506 1.098-12.981 2.402-19.414 3.912 28.704 35.038 37.049 71.482 39.451 90.618z"/><path d="m224.703 317.529c4.299 22.906 2.198 40.29 2.177 40.463-.672 5.254 2.449 10.092 6.98 10.812.273.044.543.071.812.083 4.221.192 8.002-3.358 8.645-8.305.359-2.762 7.138-59.159-27.532-108.985-9.12-2.169-18.334-3.924-27.608-5.266 18.929 18.945 31.209 42.867 36.526 71.198z"/><path d="m46.795 352.506c.478 4.716 3.837 8.185 7.807 8.366.464.021.937-.003 1.414-.075 4.559-.689 7.821-5.517 7.288-10.784-1.508-14.878-7.931-50.015-34.987-85.34-5.714 2.254-11.368 4.687-16.955 7.295 27.79 33.191 34.04 66.79 35.433 80.538z"/><path d="m289.163 279.377c-10.129-5.434-20.54-10.262-31.173-14.479.388.961.914 1.865 1.597 2.659 24.462 28.484 31.411 60.608 32.934 82.54.337 4.855 3.741 8.528 7.836 8.714.365.017.737.005 1.112-.035 4.575-.496 7.986-5.185 7.619-10.474-1.298-18.695-6.042-43.855-19.925-68.925z"/></g><g><path d="m205.824 377.135 39.616-24.064c70.473-42.808 160.133-48.321 235.843-15.486 9.515 4.127 15.718 13.456 15.718 23.827v85.933h-291.177z" fill="#6dc17d"/></g><g><path d="m487.688 340.472c-38.968-18.216-81.966-26.036-124.329-23.621 35.815 2.045 71.3 11.415 103.641 28.213v102.282h30v-92.262c0-6.266-3.636-11.959-9.312-14.612z" fill="#68b76a"/></g><g fill="#5ea55b"><path d="m304.169 380.958c.867.014 1.704-.105 2.492-.338 3.385-1.001 5.879-4.106 5.94-7.822.163-9.929 3.223-29.816 21.583-52.643-8.02 1.368-15.977 3.113-23.838 5.231-11.228 18.92-14.147 35.521-14.338 47.139-.074 4.583 3.579 8.358 8.161 8.433z"/><path d="m391.13 394.217c-.164 4.579 3.414 8.425 7.994 8.59.586.021 1.161-.019 1.717-.115 3.787-.653 6.729-3.885 6.873-7.878.511-14.234 4.783-42.413 27.642-71.197.207-.26.389-.531.56-.806-6.015-1.356-12.073-2.494-18.16-3.418-21.795 30.367-26.078 59.572-26.626 74.824z"/><path d="m347.112 393.349c.65.035 1.286-.007 1.901-.116 3.711-.66 6.616-3.804 6.824-7.729.693-13.043 5.209-38.904 27.674-65.551.869-1.031 1.436-2.212 1.725-3.44-6.781-.177-13.565-.093-20.335.253-20.476 27.683-24.897 53.988-25.634 67.858-.244 4.576 3.269 8.482 7.845 8.725z"/><path d="m440.03 404.832c.634.085 1.262.095 1.874.038 3.765-.352 6.924-3.26 7.445-7.168 1.648-12.386 7.967-36.466 31.616-60.245-5.492-2.373-11.057-4.543-16.683-6.514-23.06 25.544-29.579 51.016-31.382 64.57-.604 4.542 2.588 8.714 7.13 9.319z"/></g><g><path d="m263.016 86.333h21.975c4.584-7.234 12.657-12.041 21.857-12.041 2.288 0 4.506.3 6.619.858 5.875-9.629 16.48-16.058 28.588-16.058 6.464 0 12.497 1.837 17.613 5.011 8.942-15.368 25.737-25.605 44.899-25.183 26.883.592 48.817 22.489 49.445 49.362.004.18.007.36.01.54.128 9.916-7.941 17.997-17.861 17.997h-143.984-10.316-19.114c-5.594 0-10.141-4.481-10.245-10.048-.107-5.739 4.771-10.438 10.514-10.438z" fill="#80b6fc"/></g><g><circle cx="267.533" cy="92.662" fill="#f5de46" r="60.174"/></g><g><path d="m328.386 128.785h-29.96c-6.25-9.863-17.256-16.417-29.799-16.417-3.12 0-6.143.41-9.024 1.17-8.01-13.128-22.469-21.893-38.976-21.893-8.813 0-17.038 2.505-24.014 6.831-12.191-20.952-35.09-34.909-61.214-34.334-36.652.807-66.556 30.661-67.413 67.3-.006.246-.01.492-.013.737-.175 13.519 10.827 24.537 24.351 24.537h196.305 14.064 26.059c7.626 0 13.826-6.109 13.968-13.699.146-7.826-6.504-14.232-14.334-14.232z" fill="#80b6fc"/></g><g><path d="m328.39 128.785h-29.965c-6.25-9.863-17.256-16.417-29.799-16.417-3.12 0-6.143.409-9.024 1.17-8.01-13.128-22.469-21.893-38.976-21.893-8.813 0-17.038 2.505-24.014 6.831-12.191-20.952-35.09-34.909-61.214-34.334-17.939.395-34.259 7.751-46.35 19.452 7.862-3.377 16.461-5.334 25.469-5.532 21.242-.468 40.35 8.672 53.305 23.367 4.861 5.515 12.452 7.839 19.527 5.843 3.941-1.112 8.099-1.708 12.396-1.708 13.224 0 25.133 5.625 33.466 14.612 3.715 4.007 8.977 6.125 14.44 6.111h.094c9.856 0 18.762 4.046 25.158 10.564 3.605 3.674 8.461 5.853 13.608 5.853h20.994c7.756 0 14.35 6.286 14.332 14.011h6.915c7.874 0 14.227-6.513 13.962-14.444-.253-7.585-6.733-13.486-14.324-13.486z" fill="#62a4fb"/></g><g><path d="m0 379.007c0-11.448 8.077-21.305 19.302-23.556l72.638-14.564c57.519-11.533 117.532-6.866 172.067 13.378l32.355 12.011c58.515 21.723 121.111 32.894 184.309 32.894 9.018 0 16.329 7.311 16.329 16.329v41.713c0 4.031-3.268 7.3-7.3 7.3h-482.4c-4.031 0-7.3-3.268-7.3-7.3z" fill="#68b76a"/></g><g><path d="m480.671 399.171c-63.198 0-125.793-11.172-184.309-32.894l-32.355-12.011c-39.661-14.723-82.22-21.198-124.609-19.203 32.316 1.523 64.308 7.954 94.609 19.203l32.355 12.011c58.515 21.723 121.111 32.894 184.309 32.894 9.018 0 16.329 7.311 16.329 16.329v41.713c0 4.031-3.268 7.3-7.3 7.3h30c4.032 0 7.3-3.268 7.3-7.3v-41.713c0-9.018-7.311-16.329-16.329-16.329z" fill="#5ea55b"/></g></g></svg>