<svg id="Capa_1" enable-background="new 0 0 497 497" height="512" viewBox="0 0 497 497" width="512" xmlns="http://www.w3.org/2000/svg"><g><g><path d="m319.589 130.403h39.112v89.276h-39.112z" fill="#e18720"/></g><g><path d="m485.402 116.917h-473.804c-6.405 0-11.598 5.193-11.598 11.599v9.964c0 6.406 5.193 11.598 11.598 11.598h97.187l-48.781 48.781c-4.529 4.529-4.529 11.873 0 16.403l7.046 7.046c4.529 4.53 11.873 4.53 16.402 0l72.229-72.229h329.72c6.405 0 11.598-5.193 11.598-11.598v-9.964c.001-6.407-5.192-11.6-11.597-11.6z" fill="#cf9875"/></g><g><path d="m88.07 106.257c8.111 18.866 17.089 20.458 25.722 16.746s13.654-11.323 5.543-30.188c-5.25-12.21-17.367-22.348-25.264-27.981-3.481-2.484-8.335-.397-8.928 3.838-1.344 9.606-2.323 25.374 2.927 37.585z" fill="#5ea570"/></g><g><path d="m207.022 173.798c10.482-17.659 6.488-25.855-1.593-30.652s-17.189-4.379-27.671 13.28c-6.785 11.429-7.853 27.192-7.762 36.891.04 4.277 4.583 6.973 8.357 4.961 8.558-4.565 21.885-13.051 28.669-24.48z" fill="#5ea570"/></g><g><path d="m470.374 293.252h-24.523c12.875 0 23.312-10.437 23.312-23.312s-10.438-23.312-23.312-23.312h-29.052c12.875 0 23.312-10.437 23.312-23.312s-10.437-23.313-23.312-23.313h-155.309c-12.875 0-23.312 10.438-23.312 23.313s10.438 23.312 23.312 23.312h-29.052c-12.875 0-23.312 10.437-23.312 23.312s10.437 23.312 23.312 23.312h-24.523c-12.875 0-23.312 10.438-23.312 23.313s10.437 23.312 23.312 23.312h24.523l.516.108h-.516c-12.875 0-23.312 10.437-23.312 23.312s10.437 23.313 23.312 23.313h29.052c-12.875 0-23.312 10.437-23.312 23.312s10.438 23.312 23.312 23.312h155.309c12.875 0 23.312-10.437 23.312-23.312s-10.437-23.312-23.312-23.312h29.052c12.875 0 23.312-10.438 23.312-23.313s-10.438-23.312-23.312-23.312h-.443l24.966-.108c12.875 0 23.312-10.438 23.312-23.312 0-12.875-10.437-23.313-23.312-23.313z" fill="#ebb34c"/></g><g><path d="m493.673 315.766c-.423-12.663-11.24-22.513-23.91-22.513h-23.912c13.14 0 23.74-10.87 23.299-24.109-.422-12.663-11.239-22.515-23.909-22.515h-28.442c13.14 0 23.741-10.872 23.299-24.111-.423-12.663-11.24-22.514-23.91-22.514h-39.389c12.875 0 23.312 10.438 23.312 23.313 0 6.175-2.402 11.786-6.322 15.957-.758.807-1.179 1.871-1.179 2.978 0 2.417 1.96 4.377 4.377 4.377h8.287c12.746 0 23.809 10.418 23.888 23.164.039 6.331-2.447 12.078-6.508 16.301-.552.574-1.003 1.255-1.18 2.032-.616 2.717 1.433 5.128 4.045 5.128h4.243c12.67 0 23.487 9.851 23.91 22.513.442 13.239-10.159 24.112-23.299 24.112l-7.086.031c-1.846.008-3.337 1.506-3.337 3.352 0 .959.402 1.883 1.131 2.505 4.115 3.513 7.017 8.403 7.832 14.073 2.073 14.411-9.052 26.772-23.063 26.772h-11.212c-1.248 0-2.467.614-3.059 1.713-.784 1.453-.446 3.161.683 4.163 4.813 4.27 7.849 10.497 7.849 17.437 0 12.875-10.437 23.313-23.312 23.313h39.389c12.67 0 23.487-9.851 23.91-22.514.442-13.239-10.159-24.111-23.299-24.111h28.903c13.108 0 23.827-10.758 23.437-23.861-.418-14.041-10.574-22.921-23.289-22.764h-.443l24.965-.108c13.142-.003 23.743-10.875 23.301-24.114z" fill="#e9a52d"/></g><g><circle cx="339.145" cy="341.531" fill="#e18720" r="31.099"/></g></g></svg>