<svg id="Capa_1" enable-background="new 0 0 497 497" height="512" viewBox="0 0 497 497" width="512" xmlns="http://www.w3.org/2000/svg"><g><g><path d="m366.397 185.671c1.665-6.829 1.619-13.964-.027-20.798l-.058-.242c-1.592-6.611-1.652-13.499-.175-20.137l.721-3.239c1.341-6.026 1.416-12.265.222-18.322l-1.628-8.254c-1.032-5.232-1.117-10.606-.253-15.868l2.228-13.554c.767-4.668-2.835-8.91-7.565-8.91h-94.436l-16.924 20-16.924-20h-94.438c-4.731 0-8.333 4.242-7.565 8.91l2.228 13.553c.865 5.262.779 10.637-.253 15.869l-1.628 8.254c-1.195 6.057-1.119 12.296.222 18.323l.72 3.238c1.477 6.638 1.417 13.526-.175 20.137l-.058.242c-1.646 6.834-1.692 13.969-.027 20.798 1.657 6.798 1.692 13.889.103 20.701l-2.596 11.131 120.39 20 120.39-20-2.596-11.131c-1.591-6.812-1.555-13.904.102-20.701z" fill="#f8e883"/></g><g><path d="m366.294 206.372c-1.589-6.813-1.554-13.904.103-20.701 1.665-6.83 1.619-13.964-.027-20.798l-.058-.242c-1.592-6.611-1.652-13.499-.175-20.137l.721-3.238c1.341-6.026 1.417-12.266.222-18.322l-1.628-8.254c-1.032-5.232-1.117-10.606-.253-15.868l2.228-13.554c.767-4.668-2.835-8.91-7.565-8.91h-30c4.731 0 8.333 4.242 7.565 8.91l-2.228 13.554c-.865 5.262-.779 10.636.253 15.868l1.628 8.254c1.195 6.057 1.119 12.296-.222 18.322l-.721 3.238c-1.477 6.638-1.417 13.526.175 20.137l.058.242c1.646 6.834 1.692 13.969.027 20.798-1.657 6.797-1.692 13.889-.103 20.701l2.596 11.131h30z" fill="#f7e365"/></g><g><path d="m230.576 118.112h-17.022c-4.142 0-7.5-3.358-7.5-7.5s3.358-7.5 7.5-7.5h17.022c4.142 0 7.5 3.358 7.5 7.5s-3.358 7.5-7.5 7.5z" fill="#f5de46"/></g><g><path d="m230.576 191.102h-17.022c-4.142 0-7.5-3.358-7.5-7.5s3.358-7.5 7.5-7.5h17.022c4.142 0 7.5 3.358 7.5 7.5 0 4.143-3.358 7.5-7.5 7.5z" fill="#f5de46"/></g><g><path d="m230.576 154.425h-38.954c-4.142 0-7.5-3.358-7.5-7.5s3.358-7.5 7.5-7.5h38.954c4.142 0 7.5 3.358 7.5 7.5s-3.358 7.5-7.5 7.5z" fill="#f5de46"/></g><g><path d="m283.446 118.112h-17.022c-4.142 0-7.5-3.358-7.5-7.5s3.358-7.5 7.5-7.5h17.022c4.142 0 7.5 3.358 7.5 7.5s-3.358 7.5-7.5 7.5z" fill="#f5de46"/></g><g><path d="m283.446 191.102h-17.022c-4.142 0-7.5-3.358-7.5-7.5s3.358-7.5 7.5-7.5h17.022c4.142 0 7.5 3.358 7.5 7.5 0 4.143-3.358 7.5-7.5 7.5z" fill="#f5de46"/></g><g><path d="m305.378 154.425h-38.954c-4.142 0-7.5-3.358-7.5-7.5s3.358-7.5 7.5-7.5h38.954c4.142 0 7.5 3.358 7.5 7.5s-3.358 7.5-7.5 7.5z" fill="#f5de46"/></g><g><path d="m265.424 217.503-16.924 10-16.924-10v-141.156h33.848z" fill="#a2abb8"/></g><g><path d="m260.152 326.827c1.665-6.83 1.619-13.964-.027-20.798l-.058-.242c-1.592-6.611-1.652-13.499-.175-20.138l.721-3.239c1.341-6.026 1.417-12.265.222-18.322l-1.628-8.254c-1.032-5.232-1.117-10.606-.253-15.868l2.228-13.554c.767-4.668-2.835-8.91-7.565-8.91h-222.722c-4.731 0-8.332 4.242-7.565 8.91l2.228 13.553c.865 5.262.779 10.637-.253 15.869l-1.628 8.254c-1.195 6.057-1.119 12.296.222 18.323l.721 3.238c1.477 6.638 1.417 13.526-.175 20.138l-.058.242c-1.646 6.834-1.692 13.969-.027 20.798 1.657 6.797 1.692 13.889.103 20.701l-2.597 11.131 120.39 10 120.39-10-2.596-11.131c-1.59-6.812-1.555-13.903.102-20.701z" fill="#f3d332"/></g><g><path d="m472.642 326.827c1.665-6.83 1.619-13.964-.027-20.798l-.058-.242c-1.592-6.611-1.652-13.499-.175-20.138l.721-3.239c1.341-6.026 1.417-12.265.222-18.322l-1.628-8.254c-1.032-5.232-1.117-10.606-.253-15.868l2.228-13.554c.767-4.668-2.835-8.91-7.565-8.91h-222.722c-4.731 0-8.333 4.242-7.565 8.91l2.228 13.553c.865 5.262.779 10.637-.253 15.869l-1.628 8.254c-1.195 6.057-1.119 12.296.222 18.323l.721 3.238c1.477 6.638 1.417 13.526-.175 20.138l-.058.242c-1.646 6.834-1.692 13.969-.027 20.798 1.657 6.797 1.692 13.889.103 20.701l-2.596 11.131 120.39 10 120.39-10-2.596-11.131c-1.592-6.812-1.556-13.903.101-20.701z" fill="#f7e365"/></g><g><path d="m472.539 347.529c-1.589-6.813-1.554-13.904.103-20.701 1.665-6.83 1.619-13.964-.027-20.798l-.058-.242c-1.592-6.611-1.652-13.499-.175-20.138l.721-3.238c1.341-6.026 1.417-12.266.222-18.323l-1.628-8.254c-1.032-5.232-1.117-10.606-.253-15.868l2.228-13.554c.767-4.668-2.835-8.91-7.565-8.91h-30c4.731 0 8.332 4.242 7.565 8.91l-2.228 13.554c-.865 5.262-.779 10.636.253 15.868l1.628 8.254c1.195 6.057 1.119 12.296-.222 18.323l-.721 3.238c-1.477 6.638-1.417 13.526.175 20.138l.058.242c1.646 6.834 1.692 13.969.027 20.798-1.657 6.797-1.692 13.889-.103 20.701l2.597 11.131h30z" fill="#f5de46"/></g><g><path d="m124.331 259.268h-17.022c-4.142 0-7.5-3.358-7.5-7.5s3.358-7.5 7.5-7.5h17.022c4.142 0 7.5 3.358 7.5 7.5s-3.358 7.5-7.5 7.5z" fill="#ecc52e"/></g><g><path d="m124.331 332.259h-17.022c-4.142 0-7.5-3.358-7.5-7.5s3.358-7.5 7.5-7.5h17.022c4.142 0 7.5 3.358 7.5 7.5s-3.358 7.5-7.5 7.5z" fill="#ecc52e"/></g><g><path d="m124.331 295.581h-38.954c-4.142 0-7.5-3.358-7.5-7.5s3.358-7.5 7.5-7.5h38.954c4.142 0 7.5 3.358 7.5 7.5s-3.358 7.5-7.5 7.5z" fill="#ecc52e"/></g><g><path d="m176.201 259.268h-17.021c-4.142 0-7.5-3.358-7.5-7.5s3.358-7.5 7.5-7.5h17.021c4.142 0 7.5 3.358 7.5 7.5s-3.358 7.5-7.5 7.5z" fill="#ecc52e"/></g><g><path d="m176.201 332.259h-17.021c-4.142 0-7.5-3.358-7.5-7.5s3.358-7.5 7.5-7.5h17.021c4.142 0 7.5 3.358 7.5 7.5s-3.358 7.5-7.5 7.5z" fill="#ecc52e"/></g><g><path d="m198.133 295.581h-38.954c-4.142 0-7.5-3.358-7.5-7.5s3.358-7.5 7.5-7.5h38.954c4.142 0 7.5 3.358 7.5 7.5s-3.358 7.5-7.5 7.5z" fill="#ecc52e"/></g><g><path d="m336.821 259.268h-17.022c-4.142 0-7.5-3.358-7.5-7.5s3.358-7.5 7.5-7.5h17.022c4.142 0 7.5 3.358 7.5 7.5s-3.358 7.5-7.5 7.5z" fill="#f3d332"/></g><g><path d="m336.821 332.259h-17.022c-4.142 0-7.5-3.358-7.5-7.5s3.358-7.5 7.5-7.5h17.022c4.142 0 7.5 3.358 7.5 7.5s-3.358 7.5-7.5 7.5z" fill="#f3d332"/></g><g><path d="m336.821 295.581h-38.954c-4.142 0-7.5-3.358-7.5-7.5s3.358-7.5 7.5-7.5h38.954c4.142 0 7.5 3.358 7.5 7.5s-3.358 7.5-7.5 7.5z" fill="#f3d332"/></g><g><path d="m389.691 259.268h-17.022c-4.142 0-7.5-3.358-7.5-7.5s3.358-7.5 7.5-7.5h17.022c4.142 0 7.5 3.358 7.5 7.5s-3.358 7.5-7.5 7.5z" fill="#f3d332"/></g><g><path d="m389.691 332.259h-17.022c-4.142 0-7.5-3.358-7.5-7.5s3.358-7.5 7.5-7.5h17.022c4.142 0 7.5 3.358 7.5 7.5s-3.358 7.5-7.5 7.5z" fill="#f3d332"/></g><g><path d="m411.623 295.581h-38.954c-4.142 0-7.5-3.358-7.5-7.5s3.358-7.5 7.5-7.5h38.954c4.142 0 7.5 3.358 7.5 7.5s-3.358 7.5-7.5 7.5z" fill="#f3d332"/></g><g><path d="m159.179 358.659-16.924 10-16.924-10v-141.156h33.848z" fill="#a2abb8"/></g><g><path d="m371.669 358.659-16.924 10-16.924-10v-141.156h33.848z" fill="#a2abb8"/></g><g><path d="m487.822 420.653h-478.644c-5.069 0-9.178-4.109-9.178-9.178v-36.118c0-9.223 7.476-16.699 16.699-16.699h463.602c9.223 0 16.699 7.476 16.699 16.699v36.117c0 5.07-4.109 9.179-9.178 9.179z" fill="#6dc17d"/></g><path d="m480.301 358.659h-30c9.223 0 16.699 7.476 16.699 16.699v36.117c0 5.069-4.109 9.178-9.178 9.178h30c5.069 0 9.178-4.109 9.178-9.178v-36.117c0-9.223-7.476-16.699-16.699-16.699z" fill="#68b76a"/></g></svg>