<svg id="Capa_1" enable-background="new 0 0 497 497" height="512" viewBox="0 0 497 497" width="512" xmlns="http://www.w3.org/2000/svg"><g><g><path d="m12.385 249.113h473.803c5.971 0 10.811 4.84 10.811 10.811v54.286c0 25.704-20.837 46.542-46.542 46.542l-201.171 20-201.171-20c-25.704 0-46.542-20.837-46.542-46.542v-54.286c.001-5.971 4.841-10.811 10.812-10.811z" fill="#b9c3cd"/></g><g><path d="m486.223 249.113h-29.905c5.952 0 10.777 4.825 10.777 10.777v54.468c0 25.623-20.771 46.394-46.394 46.394h29.905c25.623 0 46.394-20.771 46.394-46.394v-54.468c0-5.952-4.825-10.777-10.777-10.777z" fill="#909ba6"/></g><g><path d="m486.118 422.556h-476.81c-5.141 0-9.308-4.167-9.308-9.308v-35.791c0-9.223 7.476-16.699 16.699-16.699h462.028c9.223 0 16.699 7.476 16.699 16.699v35.791c0 5.14-4.167 9.308-9.308 9.308z" fill="#6dc17d"/></g><g><path d="m478.78 360.758h-29.905c9.193 0 16.646 7.453 16.646 16.646v45.152h20.597c5.141 0 9.308-4.167 9.308-9.308v-35.844c0-9.193-7.453-16.646-16.646-16.646z" fill="#68b76a"/></g><g><path d="m463.427 249.113-214.14 20-215.517-20v-151.482c0-12.806 10.381-23.187 23.187-23.187h383.284c12.806 0 23.187 10.381 23.187 23.187v151.482z" fill="#a2abb8"/></g><g><path d="m440.314 74.444h-29.905c12.765 0 23.113 10.348 23.113 23.113v151.555h29.905v-151.554c0-12.766-10.348-23.114-23.113-23.114z" fill="#909ba6"/></g><g><path d="m497 286.122v-26.232c0-5.952-4.825-10.777-10.777-10.777h-473.872c-5.952 0-10.777 4.825-10.777 10.777v26.232z" fill="#dce6eb"/></g><g><path d="m486.223 249.113h-29.905c5.952 0 10.777 4.825 10.777 10.777v26.232h29.905v-26.232c0-5.952-4.825-10.777-10.777-10.777z" fill="#c8d2dc"/></g><g><circle cx="106.844" cy="146.494" fill="#ecc52e" r="26.635"/></g><g><circle cx="249.287" cy="146.494" fill="#ecc52e" r="26.635"/></g><g><circle cx="391.729" cy="146.494" fill="#ecc52e" r="26.635"/></g><g><path d="m106.844 199.587c-4.142 0-7.5-3.358-7.5-7.5v-42.217c0-4.142 3.358-7.5 7.5-7.5s7.5 3.358 7.5 7.5v42.217c0 4.142-3.357 7.5-7.5 7.5z" fill="#caa828"/></g><g><path d="m249.287 199.587c-4.142 0-7.5-3.358-7.5-7.5v-42.217c0-4.142 3.358-7.5 7.5-7.5s7.5 3.358 7.5 7.5v42.217c0 4.142-3.358 7.5-7.5 7.5z" fill="#caa828"/></g><g><path d="m391.729 199.587c-4.142 0-7.5-3.358-7.5-7.5v-42.217c0-4.142 3.358-7.5 7.5-7.5s7.5 3.358 7.5 7.5v42.217c0 4.142-3.358 7.5-7.5 7.5z" fill="#caa828"/></g></g></svg>