<svg id="Capa_1" enable-background="new 0 0 497 497" height="512" viewBox="0 0 497 497" width="512" xmlns="http://www.w3.org/2000/svg"><g><g><path d="m364.362 368.025-115.862 20-118.062-20-4.912-60.467 18.095-23.45-22.425-29.858-12.568-154.72c-.462-5.683 4.026-10.55 9.728-10.55h258.088c5.702 0 10.189 4.867 9.728 10.55l-12.568 154.72-22.404 29.596 18.074 23.712z" fill="#9d6c6c"/></g><path d="m376.444 88.981h-30c5.702 0 10.189 4.867 9.728 10.55l-21.81 268.494h30l4.912-60.467-18.113-23.225 22.444-30.083 12.568-154.72c.46-5.682-4.027-10.549-9.729-10.549z" fill="#8c5e5e"/><g fill="#8c5e5e"><path d="m196.922 367.525-18.633-278.544h-15.009c0 .166-.003.332.008.5l18.633 278.543h15.008c.001-.166.004-.331-.007-.499z"/><path d="m316.545 90.477-18.666 277.044c-.012.17-.008.337-.009.504h15.009l18.632-276.54c.059-.869-.041-1.71-.261-2.504h-14.452c-.131.48-.218.98-.253 1.496z"/><path d="m248.5 276.476c4.143 0 7.5-3.916 7.5-8.746v-178.749h-15v178.749c0 4.831 3.358 8.746 7.5 8.746z"/><path d="m256 305.518c0-5.104-3.357-9.242-7.5-9.242-4.142 0-7.5 4.138-7.5 9.242v62.507h15z"/></g><g><path d="m488.44 408.019h-479.88c-4.728 0-8.56-3.832-8.56-8.56v-15.735c0-9.222 7.476-16.699 16.699-16.699h463.602c9.223 0 16.699 7.476 16.699 16.699v15.735c0 4.728-3.832 8.56-8.56 8.56z" fill="#c8d2dc"/></g><g><path d="m121.197 254.25 4.33 53.308h243.747l4.33-53.308z" fill="#f5de46"/></g><g><path d="m343.604 254.25-4.33 53.308h30l4.33-53.308z" fill="#f3d332"/></g><g><circle cx="160.105" cy="280.904" fill="#dbb72b" r="7.5"/></g><g><circle cx="220.13" cy="280.904" fill="#dbb72b" r="7.5"/></g><g><circle cx="280.154" cy="280.904" fill="#dbb72b" r="7.5"/></g><g><circle cx="340.179" cy="280.904" fill="#dbb72b" r="7.5"/></g><g><path d="m262.105 216.243h-29.301c-31.275 0-60.818-11.876-83.186-33.44-22.356-21.552-35.081-50.381-35.83-81.176-.092-3.772 2.892-6.904 6.663-6.996 3.781-.085 6.905 2.892 6.996 6.663.661 27.177 11.903 52.631 31.654 71.672 19.808 19.096 45.983 29.613 73.703 29.613h29.301c56.22 0 102.453-43.29 105.254-98.554.19-3.769 3.378-6.681 7.169-6.478 3.768.191 6.668 3.401 6.477 7.169-3.169 62.539-55.396 111.527-118.9 111.527z" fill="#664646"/></g></g></svg>