<svg id="Capa_1" enable-background="new 0 0 499.31 499.31" height="512" viewBox="0 0 499.31 499.31" width="512" xmlns="http://www.w3.org/2000/svg"><g><g><path d="m137.282 243.797c-4.143 0-7.5-3.358-7.5-7.5v-193.471c0-4.142 3.357-7.5 7.5-7.5s7.5 3.358 7.5 7.5v193.471c0 4.142-3.358 7.5-7.5 7.5z" fill="#dce6eb"/></g><g><path d="m362.028 243.797c-4.142 0-7.5-3.358-7.5-7.5v-193.471c0-4.142 3.358-7.5 7.5-7.5 4.143 0 7.5 3.358 7.5 7.5v193.471c0 4.142-3.358 7.5-7.5 7.5z" fill="#dce6eb"/></g><g><path d="m362.028 458.315-112.373 10-112.374-10v-175.691l112.374-10 112.373 10z" fill="#909ba6"/></g><g><path d="m332.028 282.624h30v175.692h-30z" fill="#7e8b96"/></g><g><path d="m376.316 5.5h-253.323c-7.195 0-13.028 5.833-13.028 13.027v10.271c0 7.195 5.833 13.028 13.028 13.028h253.323c7.195 0 13.027-5.833 13.027-13.028v-10.271c.001-7.194-5.832-13.027-13.027-13.027z" fill="#b9c3cd"/></g><g><path d="m208.096 354.158c-4.143 0-7.5-4.054-7.5-9.055v-65.131c0-5.001 3.357-9.055 7.5-9.055s7.5 4.054 7.5 9.055v65.131c0 5.001-3.357 9.055-7.5 9.055z" fill="#7e8b96"/></g><g><path d="m291.213 354.158c-4.143 0-7.5-4.054-7.5-9.055v-65.131c0-5.001 3.357-9.055 7.5-9.055s7.5 4.054 7.5 9.055v65.131c0 5.001-3.357 9.055-7.5 9.055z" fill="#7e8b96"/></g><g><path d="m208.096 469.334c-4.143 0-7.5-3.987-7.5-8.905v-64.054c0-4.918 3.357-8.905 7.5-8.905s7.5 3.987 7.5 8.905v64.054c0 4.918-3.357 8.905-7.5 8.905z" fill="#7e8b96"/></g><g><path d="m291.213 469.334c-4.143 0-7.5-3.987-7.5-8.905v-64.054c0-4.918 3.357-8.905 7.5-8.905s7.5 3.987 7.5 8.905v64.054c0 4.918-3.357 8.905-7.5 8.905z" fill="#7e8b96"/></g><g><path d="m249.655 93.726c-4.143 0-7.5-3.358-7.5-7.5v-78.726c0-4.142 3.357-7.5 7.5-7.5s7.5 3.358 7.5 7.5v78.726c0 4.142-3.358 7.5-7.5 7.5z" fill="#eec06b"/></g><g><path d="m226.397 240.797c-4.143 0-7.5-3.358-7.5-7.5v-119.992c0-4.142 3.357-7.5 7.5-7.5s7.5 3.358 7.5 7.5v119.992c0 4.142-3.357 7.5-7.5 7.5z" fill="#eec06b"/></g><g><path d="m272.913 241.797c-4.143 0-7.5-3.358-7.5-7.5v-120.992c0-4.142 3.357-7.5 7.5-7.5s7.5 3.358 7.5 7.5v120.992c0 4.142-3.358 7.5-7.5 7.5z" fill="#eec06b"/></g><g><path d="m370.316 235.298h-241.323c-7.195 0-13.027 5.833-13.027 13.027v21.271c0 7.195 5.833 13.027 13.027 13.027h241.323c7.195 0 13.027-5.833 13.027-13.027v-21.271c.001-7.195-5.832-13.027-13.027-13.027z" fill="#b9c3cd"/></g><g><path d="m370.316 235.298h-30c7.195 0 13.027 5.833 13.027 13.028v21.271c0 7.195-5.833 13.028-13.027 13.028h30c7.195 0 13.027-5.833 13.027-13.028v-21.271c.001-7.196-5.832-13.028-13.027-13.028z" fill="#a2abb8"/></g><g><path d="m137.281 342.452h224.747v56.036h-224.747z" fill="#c8d2dc"/></g><g><path d="m332.028 342.452h30v56.036h-30z" fill="#b9c3cd"/></g><path d="m242.155 342.452h15v56.036h-15z" fill="#b9c3cd"/><g><path d="m491.013 499.31h-482.717c-3.944 0-7.141-3.197-7.141-7.141v-17.154c0-9.223 7.476-16.699 16.699-16.699h463.602c9.223 0 16.699 7.476 16.699 16.699v17.154c0 3.943-3.198 7.141-7.142 7.141z" fill="#c8d2dc"/></g><path d="m249.655 80.547c-18.063 0-32.758 14.695-32.758 32.758s14.695 32.757 32.758 32.757 32.758-14.695 32.758-32.757-14.696-32.758-32.758-32.758z" fill="#c8d2dc"/><circle cx="249.655" cy="113.305" fill="#a2abb8" r="11.703"/></g></svg>