<svg id="Capa_1" enable-background="new 0 0 497 497" height="512" viewBox="0 0 497 497" width="512" xmlns="http://www.w3.org/2000/svg"><g><g><path d="m52.246 466.874 64.561 10 75.653-10c3.324-4.877 5.269-10.77 5.269-17.117 0-16.811-13.628-30.439-30.439-30.439-1.937 0-3.829.189-5.665.535-6.923-11.531-19.511-19.268-33.916-19.366-9.155-12.934-24.224-21.387-41.276-21.387-27.917 0-50.548 22.631-50.548 50.548 0 14.731 6.306 27.987 16.361 37.226z" fill="#7fcb8f"/></g><g><path d="m398.754 463.874-69.356 20-70.859-20c-3.324-4.877-5.269-10.77-5.269-17.117 0-16.811 13.628-30.439 30.439-30.439 1.937 0 3.829.189 5.665.535 6.923-11.531 19.511-19.268 33.916-19.366 9.155-12.934 24.224-21.387 41.276-21.387 27.917 0 50.548 22.631 50.548 50.548.001 14.731-6.305 27.987-16.36 37.226z" fill="#6dc17d"/></g><path d="m364.567 376.1c-5.218 0-10.247.799-14.981 2.269 20.583 6.396 35.529 25.592 35.529 48.279 0 14.732-6.306 27.987-16.361 37.226l-54.516 15.721 15.161 4.279 69.355-20c10.055-9.239 16.361-22.495 16.361-37.226 0-27.917-22.631-50.548-50.548-50.548z" fill="#68b76a"/><g><path d="m335.735 252.7c-5.158-2.335-11.206.022-13.437 5.2l-18.468 37.479c-1.985 4.028-6.004 6.656-10.49 6.859l-35.247 1.593c-.498.027-.986.087-1.472.153l-2.888-15.907-9.338-51.424-27.055 2.921-4.704 83.331c-1.433 25.383-7.363 49.959-17.414 72.174-9.574 21.161-14.534 44.791-14.617 68.884h80.317l-2.309-49.051c.204-2.704.453-5.402.781-8.088l2.448-20.014c1.929-15.774 2.076-31.821.463-47.738.994-.188 1.965-.446 2.873-.775l53.071-12.574 1.657-.609c2.598-.955 4.557-2.932 5.58-5.284l23.554-54.354c2.199-5.106-8.242-10.484-13.305-12.776z" fill="#c27e4e"/></g><g><path d="m430.559 131.805c.237-1.188.447-2.387.622-3.601 5.234-36.446-20.069-70.235-56.515-75.469-7.721-1.109-15.32-.834-22.556.614-9.312-26.595-32.736-47.221-62.556-51.504-35.033-5.031-67.95 14.06-81.988 44.674-7.062-4.023-14.972-6.829-23.504-8.055-36.446-5.234-70.235 20.069-75.469 56.515-.5 3.479-.717 6.934-.677 10.343-15.519 5.419-27.559 19.08-30.057 36.475-2.706 18.841 6.56 36.632 22.024 45.699-.318 1.589-.598 3.194-.831 4.817-6.868 47.827 26.335 92.166 74.162 99.034 28.46 4.087 55.684-6.017 74.513-24.947 14.657 1.487 28.852-1.143 41.395-6.985 12.174 15.783 30.254 27.036 51.542 30.093 43.387 6.23 83.609-23.89 89.84-67.277.166-1.154.292-2.305.407-3.455 16.229-5.048 28.956-19.027 31.533-36.971 3.241-22.567-10.688-43.639-31.885-50z" fill="#68b181"/></g><g><path d="m430.559 131.805c.237-1.188.447-2.387.622-3.601 5.234-36.446-20.069-70.235-56.515-75.469-7.722-1.109-15.32-.834-22.556.614-9.312-26.595-32.736-47.222-62.556-51.504-26.268-3.772-51.347 6.018-68.169 24.058 11.801-4.384 24.83-5.974 38.169-4.058 21.57 3.098 39.794 14.747 51.751 31.022 7.953 10.825 19.828 17.972 33.13 19.835.077.011.154.022.232.033 36.446 5.234 61.749 39.022 56.515 75.469-.292 2.025.826 4.013 2.733 4.752 19.29 7.48 31.596 27.495 28.53 48.851-2.405 16.749-13.654 30.044-28.34 35.845-1.935.764-3.301 2.486-3.596 4.546-.002.012-.003.023-.005.035-2.411 16.788-9.926 31.574-20.729 43.052 26.25-9.855 46.462-33.339 50.729-63.052.166-1.154.293-2.305.408-3.455 16.23-5.047 28.956-19.026 31.533-36.97 3.24-22.57-10.689-43.642-31.886-50.003z" fill="#5ea570"/></g><g><path d="m490.306 495.956h-483.612c-3.697 0-6.694-2.997-6.694-6.694v-8.601c0-9.223 7.476-16.699 16.699-16.699h463.602c9.223 0 16.699 7.476 16.699 16.699v8.601c0 3.697-2.997 6.694-6.694 6.694z" fill="#995e34"/></g><g><path d="m177.98 186.729c-4.143 0-7.5-3.358-7.5-7.5v-10.278c0-4.142 3.357-7.5 7.5-7.5s7.5 3.358 7.5 7.5v10.278c0 4.142-3.358 7.5-7.5 7.5z" fill="#457a51"/></g><g><path d="m359.927 160.973c-4.143 0-7.5-3.358-7.5-7.5v-10.278c0-4.142 3.357-7.5 7.5-7.5s7.5 3.358 7.5 7.5v10.278c0 4.142-3.358 7.5-7.5 7.5z" fill="#457a51"/></g><g><path d="m248.5 83.399c-4.143 0-7.5-3.358-7.5-7.5v-10.279c0-4.142 3.357-7.5 7.5-7.5s7.5 3.358 7.5 7.5v10.278c0 4.143-3.357 7.501-7.5 7.501z" fill="#457a51"/></g><g><path d="m185.124 175.364c-1.246 0-2.469.108-3.662.316-2.301.401-4.664.401-6.965 0-1.193-.208-2.416-.316-3.662-.316-12.915 0-23.384 11.531-23.384 25.756s10.469 25.756 23.384 25.756c1.301 0 2.577-.118 3.819-.344 2.202-.4 4.45-.4 6.652 0 1.243.226 2.518.344 3.819.344 12.915 0 23.384-11.531 23.384-25.756-.001-14.225-10.47-25.756-23.385-25.756z" fill="#dd552d"/></g><g><path d="m367.072 149.608c-1.246 0-2.469.108-3.663.316-2.301.401-4.664.401-6.965 0-1.193-.208-2.416-.316-3.662-.316-12.915 0-23.384 11.531-23.384 25.756s10.469 25.756 23.384 25.756c1.301 0 2.577-.118 3.819-.344 2.202-.401 4.45-.401 6.652 0 1.243.226 2.518.344 3.819.344 12.914 0 23.384-11.531 23.384-25.756s-10.469-25.756-23.384-25.756z" fill="#dd552d"/></g><g><path d="m255.645 72.033c-1.246 0-2.469.108-3.662.316-2.301.401-4.664.401-6.965 0-1.193-.208-2.416-.316-3.662-.316-12.915 0-23.384 11.531-23.384 25.756s10.469 25.756 23.384 25.756c1.301 0 2.577-.118 3.819-.344 2.201-.401 4.45-.401 6.652 0 1.243.226 2.518.344 3.819.344 12.915 0 23.384-11.532 23.384-25.756-.001-14.224-10.47-25.756-23.385-25.756z" fill="#dd552d"/></g></g></svg>