<svg id="Capa_1" enable-background="new 0 0 494.309 494.309" height="512" viewBox="0 0 494.309 494.309" width="512" xmlns="http://www.w3.org/2000/svg"><g><g><path d="m430.337 0h-366.365c-7.042 0-12.751 5.709-12.751 12.751v108.244l195.934 30 195.934-30v-108.244c-.001-7.042-5.71-12.751-12.752-12.751z" fill="#dce6eb"/></g><g><path d="m451.788 494.309h-98.388l-102.529-10-109.961 10h-98.389v-53.824l10-16.337-10-24.161v-35.663l10-20.249-10-20.249v-35.663l10-18.031-10-22.467v-94.181h409.267z" fill="#dce6eb"/></g><g><path d="m421.788 153.484v340.825h30v-53.824l-10-20.249 10-20.249v-35.663l-10-20.249 10-20.249v-35.663l-10-20.249 10-20.249v-94.181z" fill="#c8d2dc"/></g><g><path d="m353.4 494.309-11.42-10-18.58 10h-182.49v-134.285c0-58.677 47.567-106.245 106.245-106.245 58.677 0 106.245 47.567 106.245 106.245z" fill="#5f6c75"/></g><g><path d="m247.155 253.779c-5.093 0-10.099.366-15 1.059 51.573 7.289 91.245 51.601 91.245 105.186v134.285h30v-134.285c0-58.677-47.568-106.245-106.245-106.245z" fill="#4e5a61"/></g><g><path d="m468.351 202.513h-442.393c-6.469 0-11.713-5.244-11.713-11.713v-37.316h465.819v37.316c0 6.469-5.244 11.713-11.713 11.713z" fill="#909ba6"/></g><g><path d="m88.423 288.163h-45.902v-40.498h45.902c5.712 0 10.342 4.63 10.342 10.342v19.814c0 5.712-4.63 10.342-10.342 10.342z" fill="#a2abb8"/></g><g><path d="m86.677 364.324h-44.156v-40.498h44.156c6.676 0 12.088 5.412 12.088 12.088v16.323c0 6.675-5.412 12.087-12.088 12.087z" fill="#a2abb8"/></g><g><path d="m88.423 440.485h-45.902v-40.498h45.902c5.712 0 10.342 4.63 10.342 10.342v19.814c0 5.712-4.63 10.342-10.342 10.342z" fill="#a2abb8"/></g><g><path d="m451.788 288.163h-45.902c-5.712 0-10.342-4.63-10.342-10.342v-19.814c0-5.712 4.63-10.342 10.342-10.342h45.902z" fill="#a2abb8"/></g><g><path d="m451.788 364.324h-45.902c-5.712 0-10.342-4.63-10.342-10.342v-19.814c0-5.712 4.63-10.342 10.342-10.342h45.902z" fill="#a2abb8"/></g><g><path d="m451.788 440.485h-45.902c-5.712 0-10.342-4.63-10.342-10.342v-19.814c0-5.712 4.63-10.342 10.342-10.342h45.902z" fill="#a2abb8"/></g><g><path d="m482.661 170.484h-471.012c-5.615 0-10.167-4.552-10.167-10.167v-29.153c0-5.615 4.552-10.168 10.167-10.168h471.012c5.615 0 10.167 4.552 10.167 10.168v29.153c0 5.615-4.552 10.167-10.167 10.167z" fill="#c8d2dc"/></g><g><path d="m482.661 120.995h-30c5.615 0 10.167 4.552 10.167 10.167v29.153c0 5.615-4.552 10.167-10.167 10.167h30c5.615 0 10.167-4.552 10.167-10.167v-29.153c0-5.615-4.552-10.167-10.167-10.167z" fill="#b9c3cd"/></g><g><path d="m130.986 65.943v55.052" fill="#aa7f7f"/></g><g><path d="m247.155 65.943v55.052" fill="#aa7f7f"/></g><g><path d="m370.324 65.943v55.052" fill="#aa7f7f"/></g><g><path d="m297.646 0v64.846c0 5.692 3.358 10.306 7.5 10.306s7.5-4.614 7.5-10.306v-64.846z" fill="#c8d2dc"/></g><g><path d="m181.663 0v64.846c0 5.692 3.358 10.306 7.5 10.306s7.5-4.614 7.5-10.306v-64.846z" fill="#c8d2dc"/></g><g><path d="m51.221 60.498h391.867v60.498h-391.867z" fill="#b9c3cd"/></g><g fill="#a2abb8"><path d="m123.486 60.498h15v60.498h-15z"/><path d="m239.655 60.498h15v60.498h-15z"/><path d="m362.823 60.498h15v60.498h-15z"/></g><g><path d="m306.054 420.382c0 32.529-26.37 58.899-58.899 58.899s-58.899-26.37-58.899-58.899c0-23.681 31.216-70.598 48.197-94.368 5.247-7.344 16.157-7.344 21.403 0 16.981 23.769 48.198 70.686 48.198 94.368z" fill="#ebb34c"/></g><g><path d="m278.191 419.555c0 17.141-13.896 31.037-31.037 31.037s-31.037-13.896-31.037-31.037c0-12.463 16.409-37.14 25.364-49.681 2.783-3.897 8.562-3.897 11.345 0 8.957 12.541 25.365 37.218 25.365 49.681z" fill="#f7e365"/></g></g></svg>