<svg id="Capa_1" enable-background="new 0 0 512 512" height="512" viewBox="0 0 512 512" width="512" xmlns="http://www.w3.org/2000/svg"><g><g><path d="m357.169 210.65-28.658-11.427 49.774-124.84 23.835-7.085 4.823 18.511z" fill="#c8d2dc"/></g><g><path d="m414.054 88.644-42.88-17.096c-6.471-2.58-9.625-9.916-7.045-16.387l5.897-14.79c2.58-6.47 9.917-9.624 16.387-7.045l42.88 17.096c6.47 2.58 9.625 9.917 7.045 16.387l-5.897 14.79c-2.58 6.471-9.916 9.625-16.387 7.045z" fill="#7e8b96"/></g><g><path d="m441.393 203.589c-1.867 0-3.7.14-5.497.394-1.471-19.486-17.736-34.842-37.598-34.842-10.134 0-19.326 4.004-26.103 10.506-6.777-6.502-15.97-10.506-26.103-10.506-2.027 0-4.014.165-5.954.472-2.195-23.618-22.061-42.109-46.252-42.109-24.192 0-44.057 18.491-46.252 42.109-1.94-.308-3.928-.472-5.954-.472-20.504 0-37.174 16.364-37.694 36.742-14.963 5.394-25.661 19.713-25.661 36.535 0 21.445 17.384 38.829 38.829 38.829 8.356 0 16.089-2.649 22.424-7.14 6.335 4.491 14.068 7.14 22.424 7.14s16.089-2.649 22.424-7.14c6.335 4.491 14.068 7.14 22.424 7.14s16.089-2.649 22.424-7.14c6.335 4.491 14.068 7.14 22.424 7.14s16.089-2.649 22.424-7.14c6.335 4.491 14.068 7.14 22.424 7.14s16.089-2.649 22.424-7.14c6.335 4.491 14.068 7.14 22.424 7.14 21.445 0 38.829-17.385 38.829-38.829-.001-21.445-17.386-38.829-38.83-38.829z" fill="#785252"/></g><g><path d="m441.393 203.589c-1.867 0-3.7.14-5.497.394-1.471-19.486-17.736-34.842-37.598-34.842-10.134 0-19.326 4.004-26.103 10.506-6.777-6.502-15.97-10.506-26.103-10.506-2.027 0-4.014.165-5.954.472-2.195-23.618-22.061-42.109-46.252-42.109-17.979 0-33.562 10.218-41.284 25.16 6.377-3.294 13.611-5.16 21.284-5.16 22.341 0 40.993 15.771 45.444 36.786.615 2.902 3.26 4.898 6.226 4.855.178-.003.357-.004.536-.004 8.419 0 16.189 2.764 22.464 7.428 2.148 1.597 5.131 1.597 7.279 0 6.275-4.664 14.045-7.428 22.464-7.428 18.036 0 33.105 12.662 36.826 29.579.637 2.895 3.249 4.873 6.213 4.868h.056c21.445 0 38.829 17.384 38.829 38.829 0 5.539-1.168 10.803-3.258 15.571 13.69-6.002 23.258-19.666 23.258-35.571-.001-21.444-17.386-38.828-38.83-38.828z" fill="#664646"/></g><g><path d="m361.273 398.411h-139.019l-63.438-131.491c-3.355-6.953 1.712-15.023 9.432-15.023h319.418c7.576 0 12.645 7.795 9.572 14.719l-27.053 60.969c-19.109 43.064-61.798 70.826-108.912 70.826z" fill="#df6937"/></g><g><path d="m487.666 251.897h-30c7.576 0 12.645 7.795 9.572 14.72l-27.053 60.969c-19.109 43.065-61.798 70.826-108.912 70.826h30c47.114 0 89.803-27.761 108.912-70.826l27.053-60.969c3.072-6.925-1.997-14.72-9.572-14.72z" fill="#dd552d"/></g><g><path d="m504.5 479.574h-497c-4.142 0-7.5-3.358-7.5-7.5s3.358-7.5 7.5-7.5h497c4.142 0 7.5 3.358 7.5 7.5s-3.358 7.5-7.5 7.5z" fill="#dce6eb"/></g><path d="m352.694 390.911h-107.85c-.105-.002-.211-.002-.316 0h-56.624l-82.869-170.836c-1.254-2.585-3.875-4.227-6.748-4.227h-24.848c-4.142 0-7.5 3.358-7.5 7.5s3.358 7.5 7.5 7.5h20.149l82.741 170.572 23.63 60.42c.095.243.203.481.323.713 3.556 6.878 10.566 11.097 18.2 11.097.596 0 1.197-.026 1.799-.078 8.316-.721 15.305-6.333 17.805-14.296.055-.176.104-.353.146-.532l12.404-52.833h102.059c4.142 0 7.5-3.358 7.5-7.5-.001-4.142-3.359-7.5-7.501-7.5zm-128.991 64.086c-1.05 2.994-3.636 3.537-4.718 3.631-1.069.093-3.671.006-5.226-2.683l-19.568-50.035h41.036z" fill="#a2abb8"/><g><path d="m31.725 242.418h33.003c6.752 0 12.225-5.473 12.225-12.225v-12.219c0-6.752-5.473-12.225-12.225-12.225h-33.003c-6.752 0-12.225 5.473-12.225 12.225v12.219c0 6.752 5.474 12.225 12.225 12.225z" fill="#7e8b96"/></g><g><g><circle cx="393.12" cy="410.395" fill="#7e8b96" r="63.255"/></g><g><ellipse cx="393.12" cy="410.395" fill="#dce6eb" rx="22.708" ry="22.708" transform="matrix(.922 -.388 .388 .922 -128.445 184.703)"/></g></g></g></svg>