<svg id="Capa_1" enable-background="new 0 0 494.788 494.788" height="512" viewBox="0 0 494.788 494.788" width="512" xmlns="http://www.w3.org/2000/svg"><g><g><path d="m494.788 77.294v-12.528c0-4.935-3.712-9.081-8.617-9.624l-79.579-8.813-10 23.657 10 23.657 79.328-6.701c5.014-.423 8.868-4.616 8.868-9.648z" fill="#a2abb8"/></g><g><path d="m376.171 86.472 20-16.486-20-16.485h-194.316v32.971z" fill="#f3d332"/></g><g><path d="m186.167 425.834c102.817 0 186.167-83.35 186.167-186.167s-83.35-186.167-186.167-186.167-186.167 83.35-186.167 186.168c0 102.817 83.35 186.166 186.167 186.166zm0-105.983c-44.284 0-80.183-35.899-80.183-80.183s35.899-80.183 80.183-80.183 80.183 35.899 80.183 80.183-35.899 80.183-80.183 80.183z" fill="#f7e365"/></g><g><path d="m186.167 392.863c84.607 0 153.196-68.588 153.196-153.195 0-84.608-68.588-153.196-153.196-153.196s-153.196 68.588-153.196 153.196c0 84.607 68.588 153.195 153.196 153.195zm0-73.012c-44.284 0-80.183-35.899-80.183-80.183s35.899-80.183 80.183-80.183 80.183 35.899 80.183 80.183-35.899 80.183-80.183 80.183z" fill="#f3d332"/></g><g><path d="m186.167 355.923c64.206 0 116.256-52.049 116.256-116.256s-52.049-116.256-116.256-116.256-116.256 52.05-116.256 116.257 52.05 116.255 116.256 116.255zm0-36.072c-44.284 0-80.183-35.899-80.183-80.183s35.899-80.183 80.183-80.183 80.183 35.899 80.183 80.183-35.899 80.183-80.183 80.183z" fill="#ecc52e"/></g><g><path d="m406.592 98.064v-56.156c0-3.225-2.614-5.839-5.839-5.839h-18.744c-3.225 0-5.839 2.614-5.839 5.839v56.156c0 3.225 2.614 5.839 5.839 5.839h18.744c3.225 0 5.839-2.614 5.839-5.839z" fill="#c8d2dc"/></g><g><path d="m238.595 233.571c-10.556-19.069-30.633-30.903-52.428-30.903-21.796 0-41.873 11.834-52.428 30.903l-90.799 184.026 152.23 20 134.223-20z" fill="#80b6fc"/></g><g><path d="m238.595 233.57c-10.556-19.069-30.633-30.903-52.428-30.903-5.13 0-10.162.664-15 1.915 15.717 4.065 29.357 14.408 37.428 28.988l90.798 184.026 17.76 10 12.24-10z" fill="#62a4fb"/></g><g><path d="m338.803 458.718h-305.273c-5.667 0-10.26-4.594-10.26-10.26v-20.601c0-5.667 4.594-10.26 10.26-10.26h305.273c5.667 0 10.26 4.594 10.26 10.26v20.601c0 5.667-4.593 10.26-10.26 10.26z" fill="#4981f8"/></g><g><path d="m338.803 417.597h-30c5.667 0 10.26 4.594 10.26 10.26v20.601c0 5.667-4.594 10.26-10.26 10.26h30c5.667 0 10.26-4.594 10.26-10.26v-20.601c0-5.666-4.593-10.26-10.26-10.26z" fill="#4071f7"/></g><g><ellipse cx="186.167" cy="271.363" fill="#4981f8" rx="22.039" ry="22.039" transform="matrix(.16 -.987 .987 .16 -111.513 411.658)"/></g></g></svg>