<svg id="Capa_1" enable-background="new 0 0 497 497" height="512" viewBox="0 0 497 497" width="512" xmlns="http://www.w3.org/2000/svg"><g><g><path d="m110.5 446.095c.176-2.898.271-5.859.271-8.873 0-28.117-17.658-51.83-23.755-59.179-1.062-1.28-3.018-1.28-4.08 0-2.992 3.611-8.772 11.17-13.882 21.257-.99 1.954-3.762 1.954-4.752 0-5.11-10.087-10.89-17.647-13.882-21.257-1.061-1.28-3.018-1.28-4.079 0-6.097 7.349-23.755 31.062-23.755 59.179 0 3.014.095 5.975.271 8.873z" fill="#518f60"/></g><g><path d="m481.631 446.095c.176-2.898.271-5.859.271-8.873 0-28.117-17.658-51.83-23.755-59.179-1.062-1.28-3.018-1.28-4.079 0-2.992 3.611-8.772 11.17-13.882 21.257-.99 1.954-3.762 1.954-4.752 0-5.11-10.087-10.89-17.647-13.882-21.257-1.061-1.28-3.018-1.28-4.079 0-6.097 7.349-23.755 31.062-23.755 59.179 0 3.014.095 5.975.271 8.873z" fill="#518f60"/></g><g><path d="m51.159 17.896 321.772 170.214c3.334 1.764 4.619 5.935 2.855 9.269l-8.851 16.731c-1.764 3.334-5.935 4.619-9.269 2.855l-321.771-170.213c-3.334-1.764-4.619-5.935-2.855-9.269l8.851-16.731c1.763-3.334 5.934-4.619 9.268-2.856z" fill="#dce6eb"/></g><g><path d="m239.471 227.258 13.202-8.967c17.557-11.925 31.927-27.97 41.851-46.731l18.332-34.655c2.398-4.533 8.017-6.264 12.551-3.866l30.111 15.928c4.533 2.398 6.264 8.017 3.866 12.551l-17.955 33.943c-9.784 18.496-14.957 39.081-15.078 60.005l-.102 17.611s-43.719 12.166-64.477.353c-17.848-10.159-22.301-46.172-22.301-46.172z" fill="#7e8b96"/></g><g><path d="m324.273 311.043.012.001c.942.071 1.747-.672 1.752-1.616l.211-36.353c-32.943-5.989-63.253-21.997-86.778-45.817l-30.104 20.447c-.785.533-.95 1.621-.359 2.364 28.261 35.482 70.032 57.578 115.266 60.974z" fill="#dce6eb"/></g><g><path d="m378.304 393.978v-100.962c0-6.022-5.426-10.592-11.361-9.568l-234.472 40.476c-4.656.804-8.058 4.843-8.058 9.568v60.486c-14.938 0-27.048 12.11-27.048 27.048v25.069h307.986v-25.069c.002-14.939-12.108-27.048-27.047-27.048z" fill="#c27e4e"/></g><g><path d="m378.305 393.978v-100.962c0-6.022-5.426-10.592-11.361-9.568l-20.711 3.575c1.29 1.639 2.072 3.711 2.072 5.992v86.332c0 3.724 1.073 7.387 3.177 10.46.035.051.07.102.105.153 1.922 2.8 4.626 4.968 7.728 6.352 9.451 4.217 16.039 13.695 16.039 24.712v25.069h30v-25.069c-.001-14.936-12.111-27.046-27.049-27.046z" fill="#b36d3c"/></g><g><path d="m159.513 398.96c-4.143 0-7.5-3.358-7.5-7.5v-52.314c0-4.142 3.357-7.5 7.5-7.5s7.5 3.358 7.5 7.5v52.314c0 4.142-3.358 7.5-7.5 7.5z" fill="#b36d3c"/></g><g><path d="m225.28 387.7c-4.143 0-7.5-3.358-7.5-7.5v-52.314c0-4.142 3.357-7.5 7.5-7.5s7.5 3.358 7.5 7.5v52.314c0 4.142-3.357 7.5-7.5 7.5z" fill="#b36d3c"/></g><g><path d="m193.229 431.816c-4.143 0-7.5-3.358-7.5-7.5v-16.931c0-4.142 3.357-7.5 7.5-7.5s7.5 3.358 7.5 7.5v16.931c0 4.142-3.358 7.5-7.5 7.5z" fill="#b36d3c"/></g><g><path d="m275.507 389.735c-4.143 0-7.5-3.358-7.5-7.5v-16.931c0-4.142 3.357-7.5 7.5-7.5s7.5 3.358 7.5 7.5v16.931c0 4.142-3.358 7.5-7.5 7.5z" fill="#b36d3c"/></g><g><path d="m322.15 415.659c-4.143 0-7.5-3.358-7.5-7.5v-63.332c0-4.142 3.357-7.5 7.5-7.5s7.5 3.358 7.5 7.5v63.332c0 4.142-3.357 7.5-7.5 7.5z" fill="#b36d3c"/></g><g><path d="m489.371 479.895h-481.742c-4.214 0-7.629-3.416-7.629-7.629v-16.666c0-9.223 7.476-16.699 16.699-16.699h463.602c9.223 0 16.699 7.476 16.699 16.699v16.666c0 4.213-3.416 7.629-7.629 7.629z" fill="#6dc17d"/></g><g><path d="m480.301 438.901h-30c9.223 0 16.699 7.476 16.699 16.699v24.295h22.371c4.214 0 7.629-3.416 7.629-7.629v-16.666c0-9.223-7.476-16.699-16.699-16.699z" fill="#68b76a"/></g></g></svg>