<svg id="Capa_1" enable-background="new 0 0 492.857 492.857" height="512" viewBox="0 0 492.857 492.857" width="512" xmlns="http://www.w3.org/2000/svg"><g><g><path d="m138.207 91.448c6.047 6.315 9.774 14.868 9.774 24.283v19.126c0 4.142 3.357 7.5 7.5 7.5s7.5-3.358 7.5-7.5v-19.127c0-8.806-2.29-17.083-6.293-24.283h-18.481z" fill="#dce6eb"/></g><g><path d="m295.484 102.078h-81.999c-18.738 0-36.897 6.488-51.392 18.362l-47.585 38.98 115.797 20 115.797-20v-6.723c.001-27.956-22.662-50.619-50.618-50.619z" fill="#b9c3cd"/></g><g><path d="m295.484 102.078h-30c27.956 0 50.619 22.663 50.619 50.619v6.723l15.136 10 14.864-10v-6.723c0-27.956-22.663-50.619-50.619-50.619z" fill="#a2abb8"/></g><g><path d="m322.892 492.857h-185.172c-12.819 0-23.211-10.392-23.211-23.211v-310.226h231.594v310.226c0 12.819-10.392 23.211-23.211 23.211z" fill="#a2abb8"/></g><g><path d="m316.103 159.42v310.226c0 12.819-10.392 23.211-23.211 23.211h30c12.819 0 23.211-10.392 23.211-23.211v-310.226z" fill="#909ba6"/></g><g><path d="m235.389 236.147h-10.166c-5.947 0-10.769-4.821-10.769-10.769v-210.122c0-8.426 6.831-15.256 15.256-15.256h1.192c8.426 0 15.256 6.83 15.256 15.256v210.123c0 5.947-4.822 10.768-10.769 10.768z" fill="#c8d2dc"/></g><g><path d="m281.406 361.071h-102.2c-8.781 0-15.9-7.119-15.9-15.9v-41.429c0-8.781 7.119-15.9 15.9-15.9h102.2c8.781 0 15.9 7.119 15.9 15.9v41.429c0 8.782-7.119 15.9-15.9 15.9z" fill="#f0e9e6"/></g><g><path d="m408.071 294.907c-4.142-.048-7.461-3.444-7.413-7.586l.315-27.335c.251-21.804 18.195-39.338 39.998-39.086l9.847.113c4.142.048 7.461 3.444 7.413 7.586s-3.444 7.461-7.586 7.413l-9.847-.113c-13.533-.156-24.67 10.727-24.826 24.26l-.315 27.335c-.048 4.142-3.444 7.461-7.586 7.413z" fill="#dce6eb"/></g><g><path d="m408.498 344.311c-4.143 0-7.5 3.358-7.5 7.5v26.752c0 19.383-15.77 35.152-35.152 35.152h-281.068c-19.383 0-35.152-15.769-35.152-35.152v-262.833c0-19.383 15.77-35.152 35.152-35.152h28.052c13.914 0 25.965 8.126 31.658 19.882h16.109c-6.476-20.209-25.437-34.882-47.767-34.882h-28.052c-27.654 0-50.152 22.498-50.152 50.152v262.833c0 27.654 22.498 50.152 50.152 50.152h281.068c27.654 0 50.152-22.498 50.152-50.152v-26.752c0-4.142-3.357-7.5-7.5-7.5z" fill="#dce6eb"/></g><g><path d="m258.663 331.957h-56.713c-4.143 0-7.5-3.358-7.5-7.5s3.357-7.5 7.5-7.5h56.713c4.142 0 7.5 3.358 7.5 7.5s-3.358 7.5-7.5 7.5z" fill="#d4cdcb"/></g><g><path d="m413.108 353.811h-11.684c-6.981 0-12.64-5.659-12.64-12.64v-46.788c0-6.981 5.659-12.64 12.64-12.64h11.684c6.981 0 12.64 5.659 12.64 12.64v46.788c0 6.981-5.659 12.64-12.64 12.64z" fill="#f0e9e6"/></g></g></svg>