<svg id="Capa_1" enable-background="new 0 0 497 497" height="512" viewBox="0 0 497 497" width="512" xmlns="http://www.w3.org/2000/svg"><g><g><path d="m366.379 262.961h-117.879-117.879l-130.621 68.267 248.5 20 248.5-20z" fill="#f7e365"/></g><g><path d="m366.379 262.961h-50l130.621 68.267h50z" fill="#f5de46"/></g><g><path d="m289.925 134.817-33.803 2.92c-4.588.396-9.202.401-13.791.014l-36.961-3.12c-47.273-3.991-87.847 33.303-87.847 80.744v54.398l123.477 10 136.93-10v-54.225c.001-47.504-40.677-84.819-88.005-80.731z" fill="#f7e365"/></g><g><g><path d="m289.925 134.817-9.485.819c37.987 6.396 67.491 39.456 67.491 79.911v54.226h30v-54.226c0-47.503-40.678-84.818-88.006-80.73z" fill="#f5de46"/></g></g><g><path d="m117.523 236.675h260.407v33.098h-260.407z" fill="#e27c48"/></g><g><path d="m347.931 236.675h30v33.098h-30z" fill="#df6937"/></g><g><path d="m481.384 362.662h-465.768c-8.625 0-15.616-6.991-15.616-15.615v-15.819h497v15.819c0 8.624-6.991 15.615-15.616 15.615z" fill="#faf0b0"/></g></g></svg>