<svg id="Capa_1" enable-background="new 0 0 497 497" height="512" viewBox="0 0 497 497" width="512" xmlns="http://www.w3.org/2000/svg"><g><g><path d="m169.057 55.496c-55.151 0-99.859 44.708-99.859 99.859v185.59l96.347 30 103.371-30v-185.59c0-55.151-44.709-99.859-99.859-99.859z" fill="#b9c3cd"/></g><g><path d="m169.057 55.496c-5.099 0-10.107.384-15 1.122 48.034 7.236 84.859 48.686 84.859 98.737v185.59h30v-185.59c0-55.151-44.709-99.859-99.859-99.859z" fill="#adb6c4"/></g><g><path d="m291.906 400.51-122.849 10-122.849-10v-47.826c0-6.484 5.256-11.74 11.74-11.74h222.219c6.484 0 11.74 5.256 11.74 11.74v47.826z" fill="#dce6eb"/></g><g><path d="m280.167 340.945h-30c6.484 0 11.74 5.256 11.74 11.74v47.826l14.091 20 15.909-20v-47.826c-.001-6.484-5.257-11.74-11.74-11.74z" fill="#c8d2dc"/></g><g><path d="m103.846 291.227v-134.882c0-35.785 28.416-65.647 64.197-66.194 36.419-.557 66.225 28.908 66.225 65.203v135.872c0 8.322-6.747 15.069-15.069 15.069h-100.284c-8.322.001-15.069-6.745-15.069-15.068z" fill="#7e8b96"/></g><g><path d="m443.978 197.391h-30.9c-3.211 0-5.814-2.603-5.814-5.814v-31.394c0-3.211-2.603-5.814-5.814-5.814h-25.6c-3.211 0-5.814 2.603-5.814 5.814v31.394c0 3.211-2.603 5.814-5.814 5.814h-30.9c-3.211 0-5.814 2.603-5.814 5.814v25.601c0 3.211 2.603 5.814 5.814 5.814h30.9c3.211 0 5.814 2.603 5.814 5.814v132.865h37.229v-132.865c0-3.211 2.603-5.814 5.814-5.814h30.9c3.211 0 5.814-2.603 5.814-5.814v-25.601c-.001-3.211-2.604-5.814-5.815-5.814z" fill="#b9c3cd"/></g><g><path d="m443.537 400.51-53.888 20-53.888-20v-34.471c0-6.484 5.256-11.74 11.74-11.74h84.296c6.484 0 11.74 5.256 11.74 11.74z" fill="#a2abb8"/></g><g><path d="m431.797 354.299h-30c6.484 0 11.74 5.256 11.74 11.74v34.471l14.063 20 15.937-20v-34.471c0-6.484-5.256-11.74-11.74-11.74z" fill="#909ba6"/></g><g><path d="m195.285 175.514h-52.457c-4.143 0-7.5-3.358-7.5-7.5s3.357-7.5 7.5-7.5h52.457c4.143 0 7.5 3.358 7.5 7.5s-3.357 7.5-7.5 7.5z" fill="#909ba6"/></g><g><path d="m195.285 214.556h-52.457c-4.143 0-7.5-3.358-7.5-7.5s3.357-7.5 7.5-7.5h52.457c4.143 0 7.5 3.358 7.5 7.5s-3.357 7.5-7.5 7.5z" fill="#909ba6"/></g><g><path d="m488.35 441.504h-479.7c-4.777 0-8.65-3.873-8.65-8.65v-15.646c0-9.223 7.476-16.699 16.699-16.699h463.602c9.223 0 16.699 7.476 16.699 16.699v15.646c0 4.778-3.873 8.65-8.65 8.65z" fill="#6dc17d"/></g></g></svg>