<svg id="Capa_1" enable-background="new 0 0 497 497" height="512" viewBox="0 0 497 497" width="512" xmlns="http://www.w3.org/2000/svg"><g><g><path d="m367.109 437.043c2.503-5.492 3.908-11.59 3.908-18.019 0-24.034-19.484-43.518-43.518-43.518-2.092 0-4.147.156-6.16.442-1.649-21.839-19.878-39.05-42.139-39.05-11.357 0-21.66 4.487-29.256 11.775-7.595-7.288-17.898-11.775-29.256-11.775-2.271 0-4.499.184-6.673.529-2.461-26.47-24.725-47.195-51.838-47.195s-49.377 20.724-51.838 47.195c-2.174-.345-4.402-.529-6.673-.529-22.98 0-41.663 18.34-42.246 41.179-16.77 6.045-28.76 22.094-28.76 40.947 0 6.429 1.405 12.526 3.908 18.019z" fill="#c7865b"/></g><g><path d="m76.283 346.988c1.37.085 2.725.228 4.058.439.12-1.294.302-2.571.515-3.836-1.603 1.03-3.129 2.166-4.573 3.397z" fill="#c27e4e"/></g><g><path d="m132.178 300.233c27.113 0 49.377 20.724 51.838 47.194 2.174-.345 4.402-.529 6.673-.529 11.357 0 21.66 4.487 29.255 11.775 7.325-7.028 17.172-11.439 28.051-11.746-7.367-6.247-16.89-10.029-27.306-10.029-2.271 0-4.499.184-6.673.529-2.461-26.47-24.725-47.194-51.838-47.194-11.478 0-22.079 3.725-30.684 10.016.229-.003.455-.016.684-.016z" fill="#c27e4e"/></g><g><path d="m327.499 375.506c-2.092 0-4.147.157-6.16.442-1.649-21.839-19.878-39.05-42.139-39.05-10.45 0-20.001 3.806-27.378 10.089 21.054 1.29 37.933 17.986 39.517 38.96 2.013-.286 4.068-.442 6.16-.442 24.035 0 43.518 19.483 43.518 43.518 0 2.742-.27 5.418-.757 8.019h26.85c2.502-5.492 3.908-11.589 3.908-18.019-.001-24.034-19.484-43.517-43.519-43.517z" fill="#c27e4e"/></g><g><path d="m483.636 471.044h-470.272c-7.381 0-13.364-5.983-13.364-13.364v-10.932c0-9.223 7.476-16.699 16.699-16.699h463.602c9.223 0 16.699 7.476 16.699 16.699v10.932c0 7.381-5.983 13.364-13.364 13.364z" fill="#6dc17d"/></g><path d="m480.301 430.05h-30c9.222 0 16.699 7.476 16.699 16.699v10.932c0 7.38-5.983 13.364-13.363 13.364h30c7.38 0 13.363-5.983 13.363-13.364v-10.932c0-9.223-7.476-16.699-16.699-16.699z" fill="#68b76a"/><g><path d="m432.706 27.075-342.717 233.524c-3.153 2.07-4.038 6.344-1.968 9.497l10.39 15.821c2.071 3.153 6.344 4.039 9.497 1.968l342.717-233.523c3.153-2.071 4.039-6.344 1.968-9.497l-10.39-15.821c-2.07-3.154-6.344-4.039-9.497-1.969z" fill="#dce6eb"/></g><g><path d="m159.814 191.239 1.551 23.709c3.479 53.172 37.595 99.452 87.357 118.506l10.354 3.965c5.806 2.223 6.202 10.287.641 13.068-78.324 5.655-145.242-55.811-146.247-134.332l-.22-17.194c-.047-3.657 2.465-6.851 6.03-7.668l31.052-7.114c4.661-1.069 9.17 2.289 9.482 7.06z" fill="#a2abb8"/></g><g><path d="m189.361 401.101c-4.143 0-7.5-3.358-7.5-7.5 0-11.472-9.333-20.805-20.805-20.805-11.473 0-20.806 9.333-20.806 20.805 0 4.142-3.357 7.5-7.5 7.5s-7.5-3.358-7.5-7.5c0-19.743 16.063-35.805 35.806-35.805s35.805 16.062 35.805 35.805c0 4.142-3.357 7.5-7.5 7.5z" fill="#c27e4e"/></g></g></svg>