<svg id="Capa_1" enable-background="new 0 0 494.383 494.383" height="512" viewBox="0 0 494.383 494.383" width="512" xmlns="http://www.w3.org/2000/svg"><g><g><path d="m424.637 494.383h-354.891c-7.663 0-13.874-6.212-13.874-13.874v-156.104h382.64v156.104c0 7.662-6.212 13.874-13.875 13.874z" fill="#ddebfd"/></g><path d="m408.512 324.405v156.104c0 7.663-6.212 13.874-13.874 13.874h30c7.662 0 13.874-6.212 13.874-13.874v-156.104z" fill="#bed9fd"/><g><path d="m444.778 314.84h-395.173c-6.783 0-12.283-5.499-12.283-12.283v-199.347h419.739v199.348c0 6.783-5.499 12.282-12.283 12.282z" fill="#ddebfd"/></g><g><path d="m427.061 113.21v199.348c0 6.783-5.499 12.282-12.283 12.282h30c6.783 0 12.283-5.499 12.283-12.282v-199.348z" fill="#bed9fd"/></g><g><path d="m202.542 81.519h268.947c3.216 0 5.822 2.607 5.822 5.822v19.114c0 3.215-2.607 5.822-5.822 5.822h-448.595c-3.216 0-5.822-2.607-5.822-5.822v-19.113c0-3.215 2.607-5.822 5.822-5.822h53.864" fill="#fff4f1"/></g><g><path d="m444.778 324.84h-395.173c-6.783 0-12.283-5.499-12.283-12.283v-30.88h419.739v30.88c0 6.784-5.499 12.283-12.283 12.283z" fill="#9ec8fc"/></g><g><path d="m427.061 281.677v30.88c0 6.783-5.499 12.282-12.283 12.282h30c6.783 0 12.283-5.499 12.283-12.282v-30.88z" fill="#80b6fc"/></g><g><circle cx="247.192" cy="69.383" fill="#f0e9e6" r="69.383"/></g><g><path d="m277.017 55.466h-10.088c-3.215 0-5.82-2.606-5.82-5.82v-10.088c0-3.214-2.606-5.82-5.82-5.82h-16.194c-3.214 0-5.82 2.606-5.82 5.82v10.088c0 3.214-2.606 5.82-5.82 5.82h-10.088c-3.214 0-5.82 2.606-5.82 5.82v16.194c0 3.215 2.606 5.82 5.82 5.82h10.088c3.215 0 5.82 2.606 5.82 5.82v10.088c0 3.215 2.606 5.82 5.82 5.82h16.194c3.215 0 5.82-2.606 5.82-5.82v-10.087c0-3.215 2.606-5.82 5.82-5.82h10.088c3.215 0 5.82-2.606 5.82-5.82v-16.195c0-3.214-2.606-5.82-5.82-5.82z" fill="#62a4fb"/></g><g><path d="m92.882 171.55h308.619v110.128h-308.619z" fill="#faf8f8"/></g><g><g><path d="m313.029 494.383h-134.105v-116.592c0-8.314 6.74-15.054 15.054-15.054h103.997c8.314 0 15.054 6.74 15.054 15.054z" fill="#9ec8fc"/></g><g><path d="m313.029 494.383h-67.052v-131.646h54.202c7.097 0 12.851 5.754 12.851 12.851v118.795z" fill="#80b6fc"/></g><g><path d="m216.061 444.899c-4.142 0-7.5-3.396-7.5-7.585v-8.79c0-4.189 3.358-7.585 7.5-7.585s7.5 3.396 7.5 7.585v8.79c0 4.189-3.358 7.585-7.5 7.585z" fill="#62a4fb"/></g><g><path d="m275.891 444.899c-4.142 0-7.5-3.396-7.5-7.585v-8.79c0-4.189 3.358-7.585 7.5-7.585s7.5 3.396 7.5 7.585v8.79c0 4.189-3.358 7.585-7.5 7.585z" fill="#62a4fb"/></g></g><path d="m401.501 219.114h-54.73v-46.862c0-.237-.014-.47-.035-.702h-14.929c-.022.231-.035.465-.035.702v46.862h-46.387v-46.862c0-.237-.014-.47-.035-.702h-14.93c-.022.231-.035.465-.035.702v46.862h-46.387v-46.862c0-.237-.014-.47-.035-.702h-14.929c-.021.231-.035.465-.035.702v46.862h-46.386v-46.862c0-.237-.014-.47-.035-.702h-14.929c-.021.231-.035.465-.035.702v46.862h-54.732v15h54.729v46.622c0 .32.027.633.066.942h14.869c.039-.309.065-.622.065-.942v-46.622h46.386v46.622c0 .32.026.633.065.942h14.869c.039-.309.066-.622.066-.942v-46.622h46.387v46.622c0 .32.026.633.065.942h14.869c.039-.309.066-.622.066-.942v-46.622h46.387v46.622c0 .32.026.633.065.942h14.869c.039-.309.065-.622.065-.942v-46.622h54.73v-15z" fill="#bed9fd"/></g></svg>