<svg id="Capa_1" enable-background="new 0 0 510 510" height="512" viewBox="0 0 510 510" width="512" xmlns="http://www.w3.org/2000/svg"><g><g><path d="m161.825 140.969c-4.142 0-7.5-3.358-7.5-7.5v-27.01c0-4.142 3.358-7.5 7.5-7.5s7.5 3.358 7.5 7.5v27.01c0 4.142-3.358 7.5-7.5 7.5z" fill="#b9c3cd"/></g><g><path d="m131.427 140.969c-4.142 0-7.5-3.358-7.5-7.5v-27.01c0-4.142 3.358-7.5 7.5-7.5s7.5 3.358 7.5 7.5v27.01c0 4.142-3.358 7.5-7.5 7.5z" fill="#b9c3cd"/></g><g><path d="m378.573 140.969c-4.142 0-7.5-3.358-7.5-7.5v-27.01c0-4.142 3.358-7.5 7.5-7.5s7.5 3.358 7.5 7.5v27.01c0 4.142-3.358 7.5-7.5 7.5z" fill="#b9c3cd"/></g><g><path d="m348.176 140.969c-4.142 0-7.5-3.358-7.5-7.5v-27.01c0-4.142 3.358-7.5 7.5-7.5s7.5 3.358 7.5 7.5v27.01c0 4.142-3.358 7.5-7.5 7.5z" fill="#b9c3cd"/></g><g><path d="m401.217 111.728h-303.723c-5.763 0-10.434-4.672-10.434-10.434v-33.545c0-5.763 4.672-10.434 10.434-10.434h303.723c5.763 0 10.434 4.672 10.434 10.434v33.545c.001 5.762-4.671 10.434-10.434 10.434z" fill="#faf8f8"/></g><g><path d="m401.217 57.315h-30c5.763 0 10.434 4.672 10.434 10.434v33.545c0 5.762-4.672 10.434-10.434 10.434h30c5.763 0 10.434-4.672 10.434-10.434v-33.545c.001-5.763-4.671-10.434-10.434-10.434z" fill="#f0e9e6"/></g><g><path d="m46.247 166.839h417.507v278.347h-417.507z" fill="#d7efdd"/></g><g><path d="m433.754 166.839h30v278.347h-30z" fill="#c0e6c9"/></g><g><path d="m46.247 366.836h417.507v78.35h-417.507z" fill="#aaddb6"/></g><g><path d="m433.754 366.836h30v78.35h-30z" fill="#94d4a2"/></g><g><path d="m467.288 187.071h-424.576c-7.222 0-13.076-5.854-13.076-13.076v-26.691c0-7.222 5.854-13.076 13.076-13.076h424.576c7.222 0 13.076 5.854 13.076 13.076v26.691c0 7.221-5.854 13.076-13.076 13.076z" fill="#7fcb8f"/></g><g><path d="m467.288 134.227h-30c7.222 0 13.076 5.854 13.076 13.076v26.691c0 7.222-5.854 13.076-13.076 13.076h30c7.222 0 13.076-5.854 13.076-13.076v-26.691c0-7.222-5.854-13.076-13.076-13.076z" fill="#6dc17d"/></g><g><path d="m339.706 445.185h-169.412v-183.768c0-8.337 6.759-15.096 15.096-15.096h139.22c8.337 0 15.096 6.759 15.096 15.096z" fill="#9ec8fc"/></g><g><path d="m324.61 246.321h-69.669v198.865h84.765v-183.769c0-8.337-6.759-15.096-15.096-15.096z" fill="#80b6fc"/></g><path d="m324.61 246.321h-30c8.337 0 15.096 6.759 15.096 15.096v183.768h30v-183.768c0-8.337-6.759-15.096-15.096-15.096z" fill="#62a4fb"/><g><path d="m107.333 389.824h-61.086v-143.503h61.087c7.984 0 14.457 6.473 14.457 14.457v114.589c-.001 7.984-6.473 14.457-14.458 14.457z" fill="#9ec8fc"/></g><g><path d="m463.754 389.824h-61.087c-7.984 0-14.457-6.473-14.457-14.457v-114.589c0-7.984 6.473-14.457 14.457-14.457h61.087z" fill="#9ec8fc"/></g><g><path d="m433.754 246.321h30v143.503h-30z" fill="#80b6fc"/></g><g><path d="m502.5 452.685h-495c-4.142 0-7.5-3.358-7.5-7.5s3.358-7.5 7.5-7.5h495c4.142 0 7.5 3.358 7.5 7.5s-3.358 7.5-7.5 7.5z" fill="#dce6eb"/></g><g><path d="m217.209 366.477c-4.142 0-7.5-3.358-7.5-7.5v-13.278c0-4.142 3.358-7.5 7.5-7.5s7.5 3.358 7.5 7.5v13.278c0 4.142-3.358 7.5-7.5 7.5z" fill="#5392f9"/></g><g><path d="m292.791 366.477c-4.142 0-7.5-3.358-7.5-7.5v-13.278c0-4.142 3.358-7.5 7.5-7.5s7.5 3.358 7.5 7.5v13.278c0 4.142-3.357 7.5-7.5 7.5z" fill="#5392f9"/></g></g></svg>