<svg id="Capa_1" enable-background="new 0 0 495.405 495.405" height="512" viewBox="0 0 495.405 495.405" width="512" xmlns="http://www.w3.org/2000/svg"><g><path d="m270.62 30.604h-15.417v-23.104c0-4.142-3.357-7.5-7.5-7.5-4.142 0-7.5 3.358-7.5 7.5v23.104h-15.417c-4.142 0-7.5 3.358-7.5 7.5s3.358 7.5 7.5 7.5h15.417v49.875c0 4.142 3.358 7.5 7.5 7.5 4.143 0 7.5-3.358 7.5-7.5v-49.875h15.417c4.143 0 7.5-3.358 7.5-7.5s-3.357-7.5-7.5-7.5z" fill="#b9c3cd"/><g><path d="m36.832 287.683h421.741v207.723h-421.741z" fill="#f0e9e6"/></g><g><path d="m428.573 287.683h30v207.723h-30z" fill="#d4cdcb"/></g><g><path d="m460.919 292.164h-426.433c-11.177 0-20.237-9.061-20.237-20.237 0-11.177 9.061-20.237 20.237-20.237h426.433c11.177 0 20.237 9.061 20.237 20.237 0 11.177-9.06 20.237-20.237 20.237z" fill="#ebb34c"/></g><g><path d="m335.096 495.405h-51.205l-36.188-10-36.189 10h-51.205v-319.216c0-46.389 37.606-83.995 83.995-83.995h6.796c46.389 0 83.995 37.606 83.995 83.995v319.216z" fill="#faf8f8"/></g><g><path d="m247.703 92.193c-5.33 0-10.54.504-15.607 1.417 40.815 7.362 71.787 43.041 71.787 85.976v315.819h31.214v-315.818c-.001-48.266-39.128-87.394-87.394-87.394z" fill="#f0e9e6"/></g><g><path d="m352.717 204.882h-210.029c-2.9 0-5.251-2.351-5.251-5.251v-21.237c0-2.9 2.351-5.251 5.251-5.251h210.029c2.9 0 5.251 2.351 5.251 5.251v21.237c0 2.9-2.351 5.251-5.251 5.251z" fill="#ebb34c"/></g><g><path d="m247.703 368.575c19.986 0 36.188 16.202 36.188 36.189v90.642h-72.377v-90.642c0-19.987 16.202-36.189 36.189-36.189z" fill="#785252"/></g><g><path d="m247.703 368.575c-5.352 0-10.429 1.171-15 3.257 12.498 5.702 21.189 18.298 21.189 32.932v90.642h30v-90.642c-.001-19.987-16.203-36.189-36.189-36.189z" fill="#664646"/></g><g><path d="m78.027 372.205c-4.142 0-7.5-3.358-7.5-7.5v-25.666c0-4.142 3.358-7.5 7.5-7.5s7.5 3.358 7.5 7.5v25.666c0 4.142-3.358 7.5-7.5 7.5z" fill="#c8d2dc"/></g><g><path d="m116.413 372.205c-4.142 0-7.5-3.358-7.5-7.5v-25.666c0-4.142 3.358-7.5 7.5-7.5s7.5 3.358 7.5 7.5v25.666c0 4.142-3.358 7.5-7.5 7.5z" fill="#c8d2dc"/></g><g><path d="m78.027 447.397c-4.142 0-7.5-3.358-7.5-7.5v-25.666c0-4.142 3.358-7.5 7.5-7.5s7.5 3.358 7.5 7.5v25.666c0 4.142-3.358 7.5-7.5 7.5z" fill="#c8d2dc"/></g><g><path d="m116.413 447.397c-4.142 0-7.5-3.358-7.5-7.5v-25.666c0-4.142 3.358-7.5 7.5-7.5s7.5 3.358 7.5 7.5v25.666c0 4.142-3.358 7.5-7.5 7.5z" fill="#c8d2dc"/></g><g><path d="m377.335 372.205c-4.143 0-7.5-3.358-7.5-7.5v-25.666c0-4.142 3.357-7.5 7.5-7.5s7.5 3.358 7.5 7.5v25.666c0 4.142-3.358 7.5-7.5 7.5z" fill="#c8d2dc"/></g><g><path d="m415.721 372.205c-4.143 0-7.5-3.358-7.5-7.5v-25.666c0-4.142 3.357-7.5 7.5-7.5 4.142 0 7.5 3.358 7.5 7.5v25.666c0 4.142-3.358 7.5-7.5 7.5z" fill="#c8d2dc"/></g><g><path d="m377.335 447.397c-4.143 0-7.5-3.358-7.5-7.5v-25.666c0-4.142 3.357-7.5 7.5-7.5s7.5 3.358 7.5 7.5v25.666c0 4.142-3.358 7.5-7.5 7.5z" fill="#c8d2dc"/></g><g><path d="m415.721 447.397c-4.143 0-7.5-3.358-7.5-7.5v-25.666c0-4.142 3.357-7.5 7.5-7.5 4.142 0 7.5 3.358 7.5 7.5v25.666c0 4.142-3.358 7.5-7.5 7.5z" fill="#c8d2dc"/></g><g><path d="m208.551 274.427c-4.142 0-7.5-3.358-7.5-7.5v-25.666c0-4.142 3.358-7.5 7.5-7.5s7.5 3.358 7.5 7.5v25.666c0 4.142-3.358 7.5-7.5 7.5z" fill="#c8d2dc"/></g><g><path d="m247.703 274.427c-4.142 0-7.5-3.358-7.5-7.5v-25.666c0-4.142 3.358-7.5 7.5-7.5 4.143 0 7.5 3.358 7.5 7.5v25.666c0 4.142-3.357 7.5-7.5 7.5z" fill="#c8d2dc"/></g><g><path d="m286.855 274.427c-4.142 0-7.5-3.358-7.5-7.5v-25.666c0-4.142 3.358-7.5 7.5-7.5 4.143 0 7.5 3.358 7.5 7.5v25.666c0 4.142-3.357 7.5-7.5 7.5z" fill="#c8d2dc"/></g><g><path d="m208.551 340.978c-4.142 0-7.5-3.358-7.5-7.5v-25.666c0-4.142 3.358-7.5 7.5-7.5s7.5 3.358 7.5 7.5v25.666c0 4.143-3.358 7.5-7.5 7.5z" fill="#c8d2dc"/></g><g><path d="m247.703 340.978c-4.142 0-7.5-3.358-7.5-7.5v-25.666c0-4.142 3.358-7.5 7.5-7.5 4.143 0 7.5 3.358 7.5 7.5v25.666c0 4.143-3.357 7.5-7.5 7.5z" fill="#c8d2dc"/></g><g><path d="m286.855 340.978c-4.142 0-7.5-3.358-7.5-7.5v-25.666c0-4.142 3.358-7.5 7.5-7.5 4.143 0 7.5 3.358 7.5 7.5v25.666c0 4.143-3.357 7.5-7.5 7.5z" fill="#c8d2dc"/></g></g></svg>