<svg id="Capa_1" enable-background="new 0 0 493.734 493.734" height="512" viewBox="0 0 493.734 493.734" width="512" xmlns="http://www.w3.org/2000/svg"><g><g><path d="m458.728 439.042h-422.456v-258.941l210.057-20 212.399 20z" fill="#faf8f8"/></g><g><path d="m246.395 155.51c-4.143 0-7.5-4.145-7.5-9.257v-37.238c0-5.113 3.357-9.257 7.5-9.257s7.5 4.145 7.5 9.257v37.238c0 5.113-3.357 9.257-7.5 9.257z" fill="#a2abb8"/></g><g><path d="m319.918 113.824c0 4.357-3.852 7.708-8.167 7.105-11.195-1.563-22.566-1.357-33.697.611-8.561 1.514-17.275 1.987-25.95 1.409l-13.209-.88v-30.766c0-4.15 3.511-7.435 7.651-7.159l5.557.37c8.675.578 17.388.105 25.95-1.409 11.131-1.968 22.502-2.175 33.697-.611l1.984.277c3.545.495 6.182 3.527 6.182 7.106v23.947z" fill="#fe646f"/></g><g><path d="m464.724 180.101h-434.448c-2.9 0-5.251-2.351-5.251-5.251v-25.85c0-2.9 2.351-5.251 5.251-5.251h434.448c2.9 0 5.251 2.351 5.251 5.251v25.85c0 2.9-2.351 5.251-5.251 5.251z" fill="#b9c3cd"/></g><g><path d="m184.561 282.893h-14.342c-6.063 0-10.978-4.915-10.978-10.978v-48.418c0-6.063 4.915-10.978 10.978-10.978h14.342c6.063 0 10.978 4.915 10.978 10.978v48.418c-.001 6.063-4.915 10.978-10.978 10.978z" fill="#bed9fd"/></g><g><path d="m159.241 248.813v22.781c0 6.24 5.059 11.299 11.299 11.299h13.699c6.24 0 11.299-5.059 11.299-11.299v-22.781z" fill="#9ec8fc"/></g><g><g><path d="m322.44 282.893h-14.342c-6.063 0-10.978-4.915-10.978-10.978v-48.418c0-6.063 4.915-10.978 10.978-10.978h14.342c6.063 0 10.978 4.915 10.978 10.978v48.418c0 6.063-4.915 10.978-10.978 10.978z" fill="#bed9fd"/></g><g><path d="m297.12 248.813v22.781c0 6.24 5.059 11.299 11.299 11.299h13.699c6.24 0 11.299-5.059 11.299-11.299v-22.781z" fill="#9ec8fc"/></g></g><g><g><path d="m253.5 282.893h-14.342c-6.063 0-10.978-4.915-10.978-10.978v-48.418c0-6.063 4.915-10.978 10.978-10.978h14.342c6.063 0 10.978 4.915 10.978 10.978v48.418c0 6.063-4.915 10.978-10.978 10.978z" fill="#bed9fd"/></g><g><path d="m228.18 248.813v25.743c0 4.604 3.732 8.337 8.337 8.337h16.662c6.24 0 11.299-5.059 11.299-11.299v-22.781z" fill="#9ec8fc"/></g></g><g><g><path d="m184.561 397.058h-14.342c-6.063 0-10.978-4.915-10.978-10.978v-48.418c0-6.063 4.915-10.978 10.978-10.978h14.342c6.063 0 10.978 4.915 10.978 10.978v48.418c-.001 6.063-4.915 10.978-10.978 10.978z" fill="#bed9fd"/></g><g><path d="m159.241 362.978v25.743c0 4.604 3.732 8.337 8.337 8.337h16.662c6.24 0 11.299-5.059 11.299-11.299v-22.781z" fill="#9ec8fc"/></g></g><g><g><path d="m322.44 397.058h-14.342c-6.063 0-10.978-4.915-10.978-10.978v-48.418c0-6.063 4.915-10.978 10.978-10.978h14.342c6.063 0 10.978 4.915 10.978 10.978v48.418c0 6.063-4.915 10.978-10.978 10.978z" fill="#bed9fd"/></g><g><path d="m297.12 362.978v23.79c0 5.683 4.607 10.289 10.289 10.289h14.709c6.24 0 11.299-5.059 11.299-11.299v-22.781h-36.297z" fill="#9ec8fc"/></g></g><g><g><path d="m253.5 397.058h-14.342c-6.063 0-10.978-4.915-10.978-10.978v-48.418c0-6.063 4.915-10.978 10.978-10.978h14.342c6.063 0 10.978 4.915 10.978 10.978v48.418c0 6.063-4.915 10.978-10.978 10.978z" fill="#bed9fd"/></g><g><path d="m228.18 362.978v22.781c0 6.24 5.059 11.299 11.299 11.299h13.699c6.24 0 11.299-5.059 11.299-11.299v-22.781z" fill="#9ec8fc"/></g></g><g><path d="m125.852 439.042h-113.091c-7.048 0-12.761-5.713-12.761-12.761v-315.784l62.926-10 62.926 10z" fill="#faf8f8"/></g><g><path d="m98.344 110.497h27.507v328.545h-27.507z" fill="#f0e9e6"/></g><g><path d="m0 304.762c0-34.753 28.173-62.926 62.926-62.926 34.753 0 62.926 28.173 62.926 62.926v134.281h-113.091c-7.048-.001-12.761-5.714-12.761-12.762z" fill="#f0e9e6"/></g><g><path d="m62.926 241.836c-4.727 0-9.325.538-13.754 1.526 28.135 6.276 49.172 31.373 49.172 61.4v134.281h27.507v-134.281c.001-34.753-28.172-62.926-62.925-62.926z" fill="#d4cdcb"/></g><g><path d="m121.912 95.393-53.344-38.864c-3.363-2.45-7.922-2.45-11.284 0l-53.345 38.864c-2.475 1.804-3.939 4.682-3.939 7.745v7.36h125.852v-7.36c0-3.063-1.465-5.941-3.94-7.745z" fill="#b9c3cd"/></g><g><path d="m57.284 56.529-8.111 5.91 39.283 28.621c6.213 4.527 9.888 11.751 9.888 19.438h27.507v-7.36c0-3.063-1.464-5.941-3.939-7.744l-53.344-38.865c-3.363-2.45-7.922-2.45-11.284 0z" fill="#a2abb8"/></g><g><path d="m62.926 335.275c16.352 0 29.608 13.256 29.608 29.608v74.159h-59.216v-74.159c0-16.352 13.256-29.608 29.608-29.608z" fill="#c7865b"/></g><g><path d="m480.972 439.042h-113.09v-328.545l62.926-20 62.926 20v315.784c0 7.048-5.714 12.761-12.762 12.761z" fill="#faf8f8"/></g><g><path d="m466.226 110.497v328.545h14.746c7.048 0 12.761-5.713 12.761-12.761v-315.784z" fill="#f0e9e6"/></g><g><path d="m367.882 304.762c0-34.753 28.173-62.926 62.926-62.926 34.753 0 62.926 28.173 62.926 62.926v121.52c0 7.048-5.713 12.761-12.761 12.761h-113.09v-134.281" fill="#f0e9e6"/></g><g><path d="m430.808 241.836c-4.727 0-9.325.538-13.754 1.526 28.135 6.276 49.172 31.373 49.172 61.4v134.281h14.746c7.048 0 12.761-5.713 12.761-12.761v-121.52c.001-34.753-28.172-62.926-62.925-62.926z" fill="#d4cdcb"/></g><g><path d="m489.794 95.393-53.344-38.864c-3.363-2.45-7.922-2.45-11.284 0l-53.344 38.865c-2.475 1.803-3.939 4.681-3.939 7.744v7.36h125.851v-7.36c0-3.063-1.464-5.941-3.94-7.745z" fill="#b9c3cd"/></g><g><path d="m425.166 56.529-8.112 5.91 39.284 28.621c6.213 4.527 9.888 11.751 9.888 19.438h27.507v-7.36c0-3.063-1.464-5.941-3.939-7.744l-53.344-38.865c-3.362-2.45-7.922-2.45-11.284 0z" fill="#a2abb8"/></g><g><g><path d="m70.097 212.799h-14.342c-6.063 0-10.978-4.915-10.978-10.978v-48.418c0-6.063 4.915-10.978 10.978-10.978h14.342c6.063 0 10.978 4.915 10.978 10.978v48.418c0 6.063-4.915 10.978-10.978 10.978z" fill="#bed9fd"/></g><g><path d="m44.777 178.72v22.78c0 6.24 5.059 11.299 11.299 11.299h13.699c6.24 0 11.299-5.059 11.299-11.299v-22.78z" fill="#9ec8fc"/></g></g><g><g><path d="m437.979 212.799h-14.342c-6.063 0-10.978-4.915-10.978-10.978v-48.418c0-6.063 4.915-10.978 10.978-10.978h14.342c6.063 0 10.978 4.915 10.978 10.978v48.418c0 6.063-4.915 10.978-10.978 10.978z" fill="#bed9fd"/></g><g><path d="m412.659 178.72v22.78c0 6.24 5.059 11.299 11.299 11.299h13.699c6.24 0 11.299-5.059 11.299-11.299v-22.78z" fill="#9ec8fc"/></g></g><g><path d="m429.218 335.275c16.352 0 29.608 13.256 29.608 29.608v74.159h-59.216v-74.159c0-16.352 13.256-29.608 29.608-29.608z" fill="#c7865b"/></g></g></svg>