<svg id="Capa_1" enable-background="new 0 0 497 497" height="512" viewBox="0 0 497 497" width="512" xmlns="http://www.w3.org/2000/svg"><g><g><path d="m277.298 40.935c-3.032-5.251-10.611-5.251-13.643 0l-125.464 204.579h282.335z" fill="#8d562f"/></g><g><path d="m316.39 96.772-39.092-55.837c-3.032-5.251-10.611-5.251-13.643 0l-34.243 55.837h18.089c5.637 0 11.133 1.759 15.721 5.033l7.282 5.194c9.378 6.69 21.964 6.712 31.365.055z" fill="#cf9875"/></g><g><path d="m370.577 137.071c-4.048-6.015-14.169-6.015-18.217 0l-51.195 61.478c-5.136 7.631-17.977 7.631-23.113 0l-92.303-122.553c-4.048-6.015-14.169-6.015-18.217 0l-167.532 234.321 225.936 46.711 131.283-10.544 139.781-36.167z" fill="#b36d3c"/></g><g><path d="m370.576 137.071c-4.048-6.015-14.169-6.015-18.217 0l-6.28 7.541 120.921 165.705h30z" fill="#995e34"/></g><g><path d="m167.98 460.003h-153.594c-7.945 0-14.386-6.441-14.386-14.386v-135.3h497v60.039z" fill="#6dc17d"/></g><g><path d="m401.98 180.105-31.404-43.035c-4.048-6.015-14.169-6.015-18.217 0l-35.836 43.035 14.958 4.998c11.188 3.738 23.352 3.297 34.24-1.241 5.949-2.48 12.33-3.757 18.775-3.757z" fill="#cf9875"/></g><g><path d="m370.576 137.071c-4.048-6.015-14.169-6.015-18.217 0l-6.28 7.541 26.906 36.871c4.017-.381 4.547-.774 11.51-1.378h17.485z" fill="#c7865b"/></g><g><path d="m232.528 138.105-46.779-62.109c-4.048-6.015-14.169-6.015-18.217 0l-44.406 62.109 11.705 19.697c5.155 8.674 17.395 9.512 23.683 1.62l9.221-11.572c4.46-5.597 12.349-7.078 18.536-3.48l12.536 7.293c4.888 2.844 10.988 2.569 15.6-.703z" fill="#cf9875"/></g><g><path d="m185.749 75.996c-4.048-6.015-14.169-6.015-18.217 0l-5.738 8.025 31.752 42.158c4.919 6.531 3.473 15.834-3.195 20.565l8.457 4.919c4.888 2.844 10.988 2.569 15.6-.703l18.121-12.855z" fill="#c7865b"/></g><g><path d="m256.97 370.356h240.03v75.261c0 7.945-6.441 14.386-14.386 14.386h-314.634v-.657c0-49.148 39.842-88.99 88.99-88.99z" fill="#62a4fb"/></g><g><path d="m467 370.356v75.261c0 7.945-6.441 14.386-14.386 14.386h30c7.945 0 14.386-6.441 14.386-14.386v-75.261z" fill="#5392f9"/></g><g><path d="m332.49 411.709h-79.038c-4.143 0-7.5-3.358-7.5-7.5s3.357-7.5 7.5-7.5h79.038c4.143 0 7.5 3.358 7.5 7.5s-3.357 7.5-7.5 7.5z" fill="#5392f9"/></g><g><path d="m383.147 437.73h-39.52c-4.142 0-7.5-3.358-7.5-7.5s3.358-7.5 7.5-7.5h39.52c4.143 0 7.5 3.358 7.5 7.5s-3.357 7.5-7.5 7.5z" fill="#5392f9"/></g><g><path d="m453.88 413.23h-39.52c-4.143 0-7.5-3.358-7.5-7.5s3.357-7.5 7.5-7.5h39.52c4.143 0 7.5 3.358 7.5 7.5s-3.358 7.5-7.5 7.5z" fill="#5392f9"/></g></g></svg>