<svg id="Capa_1" enable-background="new 0 0 497 497" height="512" viewBox="0 0 497 497" width="512" xmlns="http://www.w3.org/2000/svg"><g><g><path d="m154.416 497h-9.922c-6.213 0-11.249-5.036-11.249-11.249v-151.163l32.42-8.008v159.171c0 6.213-5.036 11.249-11.249 11.249z" fill="#909ba6"/></g><g><path d="m352.506 497h-9.922c-6.213 0-11.249-5.036-11.249-11.249v-159.171l32.42 8.008v151.163c0 6.213-5.036 11.249-11.249 11.249z" fill="#909ba6"/></g><g><path d="m363.755 334.588h-230.51v-220.09c0-63.235 51.263-114.498 114.499-114.498h1.513c63.236 0 114.499 51.263 114.499 114.498v220.09z" fill="#a2abb8"/></g><g><path d="m248.5 0c-5.118 0-10.157.338-15.099.985 56.518 7.396 100.156 55.735 100.156 114.27v219.333l13.988 20 16.21-20v-219.333c0-63.654-51.601-115.255-115.255-115.255z" fill="#909ba6"/></g><g><path d="m323.755 127.276v-12.778c0-41.144-33.354-74.498-74.499-74.498h-1.513c-41.144 0-74.498 33.354-74.498 74.498v12.778c0 5.667 4.594 10.261 10.261 10.261h129.988c5.667 0 10.261-4.594 10.261-10.261z" fill="#7e8b96"/></g><g><path d="m295.444 293.646h-93.889c-5.555 0-10.058-4.503-10.058-10.058v-25.96c0-5.555 4.503-10.058 10.058-10.058h93.889c5.555 0 10.058 4.503 10.058 10.058v25.96c.001 5.555-4.503 10.058-10.058 10.058z" fill="#f0e9e6"/></g><g><path d="m298.578 221.055h-100.156c-4.143 0-7.5-3.358-7.5-7.5s3.357-7.5 7.5-7.5h100.156c4.143 0 7.5 3.358 7.5 7.5s-3.357 7.5-7.5 7.5z" fill="#7e8b96"/></g><g><path d="m298.578 186.944h-100.156c-4.143 0-7.5-3.358-7.5-7.5s3.357-7.5 7.5-7.5h100.156c4.143 0 7.5 3.358 7.5 7.5s-3.357 7.5-7.5 7.5z" fill="#7e8b96"/></g></g></svg>