<svg id="Capa_1" enable-background="new 0 0 496.144 496.144" height="512" viewBox="0 0 496.144 496.144" width="512" xmlns="http://www.w3.org/2000/svg"><g><g><path d="m435.236 392.301-182.227 40-192.1-40v-179.659l186.877-15 187.45 15z" fill="#faf8f8"/></g><g><path d="m405.236 217.642v174.659h30v-174.659l-12.18-10z" fill="#f0e9e6"/></g><g><path d="m443.891 217.443h-391.638c-2.678 0-4.848-2.171-4.848-4.848v-27.489l200.381-20 200.952 20v27.489c.001 2.677-2.17 4.848-4.847 4.848z" fill="#e18720"/></g><g><path d="m435.236 392.301-187.164 30-187.163-30v-55.763h28.899l7.5 10 7.5-10h20.885l8.922 10 6.078-10h20.885l7.5 10 7.5-10h142.766l7.5 10 7.5-10h20.885l8.5 10 6.5-10h20.885l7.5 10 7.5-10h29.122z" fill="#7e8b96"/></g><g><path d="m162.712 296.382h-56.195c-2.964 0-5.366-2.402-5.366-5.366v-29.566c0-2.964 2.402-5.366 5.366-5.366h56.195c2.964 0 5.366 2.402 5.366 5.366v29.566c0 2.964-2.402 5.366-5.366 5.366z" fill="#ddebfd"/></g><g><path d="m391.827 296.382h-56.195c-2.964 0-5.366-2.402-5.366-5.366v-29.566c0-2.964 2.402-5.366 5.366-5.366h56.195c2.964 0 5.366 2.402 5.366 5.366v29.566c0 2.964-2.403 5.366-5.366 5.366z" fill="#ddebfd"/></g><g><path d="m288.294 392.301-40.222 30-40.793-30v-129.106c0-6.462 5.238-11.701 11.7-11.701h57.615c6.462 0 11.7 5.239 11.7 11.701z" fill="#c8d2dc"/></g><path d="m276.594 251.495h-30c6.462 0 11.7 5.239 11.7 11.7v129.106l15.062 30 14.938-30v-129.106c0-6.462-5.238-11.7-11.7-11.7z" fill="#b9c3cd"/><g fill="#5f6c75"><path d="m89.808 392.301 7.5 10 7.5-10v-55.763h-15z"/><path d="m176.578 336.538h-15v55.763l7.5 10 7.5-10z"/><path d="m140.693 336.538h-15v55.763l7.5 10 7.5-10z"/><path d="m406.114 336.538h-15v55.763l7.5 10 7.5-10z"/><path d="m370.229 336.538h-15v55.763l8.5 10 6.5-10z"/><path d="m334.344 336.538h-15v55.763l7.5 10 7.5-10z"/></g><g><path d="m491.916 470.978h-487.688c-2.335 0-4.228-1.893-4.228-4.228v-37.468c0-20.424 16.557-36.981 36.981-36.981h422.183c20.424 0 36.981 16.557 36.981 36.981v37.468c-.001 2.335-1.894 4.228-4.229 4.228z" fill="#68b181"/></g><g><path d="m459.163 392.301h-30c20.424 0 36.981 16.557 36.981 36.981v37.468c0 2.335-1.893 4.228-4.228 4.228h30c2.335 0 4.228-1.893 4.228-4.228v-37.468c0-20.424-16.557-36.981-36.981-36.981z" fill="#5ea570"/></g><g><path d="m363.904 74.15h-37.036v-39.694c0-5.131 4.159-9.29 9.29-9.29h18.456c5.131 0 9.29 4.159 9.29 9.29z" fill="#c8d2dc"/></g><g><path d="m47.405 185.305 23.016-117.167c.729-3.46 3.782-5.936 7.318-5.936h340.667c3.536 0 6.588 2.476 7.318 5.936l23.016 117.167" fill="#ebb34c"/></g><g><path d="m425.723 68.138c-.729-3.46-3.782-5.936-7.318-5.936h-30c3.536 0 6.588 2.476 7.318 5.936l23.016 117.167h30z" fill="#e9a52d"/></g><g><path d="m153.28 114.984c-6.918 0-13.342-3.119-17.626-8.558-2.563-3.254-2.002-7.97 1.252-10.533 3.253-2.563 7.97-2.003 10.533 1.251 1.421 1.805 3.55 2.839 5.842 2.839 2.291 0 4.42-1.035 5.841-2.838 2.564-3.254 7.281-3.811 10.533-1.247 3.253 2.564 3.811 7.28 1.247 10.533-4.284 5.436-10.707 8.553-17.622 8.553z" fill="#e9a52d"/></g><g><path d="m216.261 114.984c-6.918 0-13.342-3.119-17.626-8.558-2.563-3.254-2.002-7.97 1.251-10.533 3.254-2.563 7.97-2.003 10.533 1.251 1.421 1.805 3.55 2.839 5.842 2.839 2.291 0 4.42-1.035 5.841-2.838 2.564-3.254 7.28-3.811 10.533-1.247s3.811 7.28 1.247 10.533c-4.283 5.436-10.706 8.553-17.621 8.553z" fill="#e9a52d"/></g><g><path d="m279.242 114.984c-6.918 0-13.342-3.119-17.626-8.558-2.563-3.254-2.002-7.97 1.252-10.533 3.253-2.563 7.97-2.003 10.533 1.251 1.421 1.805 3.55 2.839 5.842 2.839 2.29 0 4.419-1.034 5.84-2.837 2.564-3.254 7.28-3.812 10.533-1.248s3.812 7.279 1.248 10.533c-4.284 5.435-10.707 8.553-17.622 8.553z" fill="#e9a52d"/></g><g><path d="m342.223 114.984c-6.918 0-13.342-3.119-17.626-8.558-2.563-3.254-2.002-7.97 1.251-10.533s7.97-2.003 10.533 1.251c1.421 1.805 3.55 2.839 5.842 2.839 2.29 0 4.419-1.035 5.841-2.838 2.564-3.254 7.28-3.811 10.533-1.247s3.811 7.28 1.247 10.533c-4.284 5.436-10.706 8.553-17.621 8.553z" fill="#e9a52d"/></g><g><path d="m124.967 152.62c-6.917 0-13.342-3.119-17.626-8.557-2.563-3.254-2.003-7.969 1.251-10.533 3.253-2.563 7.97-2.003 10.533 1.251 1.421 1.805 3.551 2.84 5.843 2.84 2.291 0 4.419-1.034 5.841-2.838 2.564-3.253 7.281-3.811 10.533-1.247 3.253 2.564 3.811 7.28 1.247 10.533-4.285 5.435-10.708 8.551-17.622 8.551z" fill="#e9a52d"/></g><g><path d="m187.948 152.62c-6.918 0-13.343-3.119-17.626-8.558-2.563-3.254-2.002-7.97 1.251-10.533 3.254-2.563 7.97-2.002 10.533 1.251 1.421 1.804 3.55 2.839 5.842 2.839 2.291 0 4.419-1.034 5.841-2.838 2.565-3.253 7.281-3.811 10.533-1.247 3.253 2.564 3.811 7.28 1.247 10.533-4.284 5.437-10.707 8.553-17.621 8.553z" fill="#e9a52d"/></g><g><path d="m250.929 152.62c-6.918 0-13.342-3.119-17.626-8.558-2.563-3.254-2.003-7.97 1.251-10.533 3.253-2.563 7.97-2.002 10.533 1.251 1.421 1.804 3.55 2.839 5.842 2.839 2.291 0 4.42-1.034 5.841-2.838 2.565-3.253 7.281-3.811 10.533-1.247 3.253 2.564 3.811 7.28 1.247 10.533-4.284 5.437-10.707 8.553-17.621 8.553z" fill="#e9a52d"/></g><g><path d="m313.91 152.62c-6.918 0-13.342-3.119-17.626-8.558-2.563-3.254-2.002-7.97 1.251-10.533s7.97-2.002 10.533 1.251c1.421 1.804 3.55 2.839 5.842 2.839 2.29 0 4.42-1.034 5.841-2.838 2.565-3.253 7.281-3.811 10.533-1.247 3.253 2.564 3.811 7.28 1.247 10.533-4.284 5.437-10.707 8.553-17.621 8.553z" fill="#e9a52d"/></g><g><path d="m376.891 152.62c-6.918 0-13.342-3.119-17.626-8.558-2.563-3.254-2.003-7.97 1.251-10.533s7.97-2.002 10.533 1.251c1.421 1.804 3.55 2.839 5.842 2.839 2.29 0 4.42-1.034 5.841-2.838 2.565-3.253 7.281-3.811 10.533-1.247 3.253 2.564 3.811 7.28 1.247 10.533-4.284 5.437-10.707 8.553-17.621 8.553z" fill="#e9a52d"/></g></g></svg>