<svg id="Capa_1" enable-background="new 0 0 496.144 496.144" height="512" viewBox="0 0 496.144 496.144" width="512" xmlns="http://www.w3.org/2000/svg"><g><g><path d="m449.522 172.229c-13.485-12.914-21.11-30.775-21.11-49.447v-.152c0-1.876-1.521-3.396-3.396-3.396h-42.431c-1.876 0-3.396 1.521-3.396 3.396 0 18.759-7.697 36.697-21.294 49.622-2.605 2.477-5.354 6.434-7.948 10.814-7.875 13.298-11.878 28.534-11.878 43.989v107.201c0 19.947 16.17 36.118 36.118 36.118h59.227c19.947 0 36.118-16.17 36.118-36.118v-107.269c0-15.907-4.191-31.604-12.557-45.133-2.265-3.661-7.453-9.625-7.453-9.625z" fill="#a2abb8"/></g><g><path d="m456.973 181.854c-2.263-3.66-7.452-9.624-7.452-9.624-13.485-12.914-21.11-30.775-21.11-49.447v-.152c0-1.876-1.521-3.396-3.397-3.396h-30c1.876 0 3.397 1.521 3.397 3.396v.152c0 18.671 7.625 36.532 21.11 49.447 0 0 5.189 5.964 7.452 9.624 8.367 13.529 12.557 29.227 12.557 45.133v107.269c0 19.947-16.17 36.118-36.117 36.118h30c19.947 0 36.117-16.17 36.117-36.118v-107.269c0-15.907-4.19-31.604-12.557-45.133z" fill="#909ba6"/></g><path d="m361.956 181.854c-2.263-3.66-7.452-9.624-7.452-9.624-13.485-12.914-21.11-30.775-21.11-49.447v-.152c0-1.876-1.521-3.396-3.396-3.396h-42.431c-1.876 0-3.397 1.521-3.397 3.396 0 10.154-2.255 20.068-6.481 29.076-3.581 7.633-8.576 14.617-14.813 20.545-2.605 2.477-5.354 6.434-7.948 10.814-7.875 13.298-11.877 28.534-11.877 43.989v107.201c0 19.947 16.17 36.118 36.118 36.118h59.227c19.947 0 36.118-16.17 36.118-36.118v-107.269c-.001-15.907-4.192-31.604-12.558-45.133z" fill="#c8d2dc"/><path d="m361.956 181.854c-2.263-3.66-7.452-9.624-7.452-9.624-13.485-12.914-21.11-30.775-21.11-49.447v-.152c0-1.876-1.521-3.396-3.396-3.396h-30c1.876 0 3.396 1.521 3.396 3.396v.152c0 18.671 7.626 36.532 21.11 49.447 0 0 5.189 5.964 7.452 9.624 8.366 13.529 12.557 29.227 12.557 45.133v107.269c0 19.947-16.17 36.118-36.118 36.118h30c19.947 0 36.118-16.17 36.118-36.118v-107.269c0-15.907-4.191-31.604-12.557-45.133z" fill="#b9c3cd"/><g><path d="m251.148 90.772-84.484-33.479-84.485 33.479-38.464 73.36v196.04l122.949 30 122.949-30v-196.04z" fill="#df6937"/></g><g><path d="m251.148 90.772-84.484-33.479-84.485 33.479-.074.141 54.559-21.62 84.484 33.479 38.465 73.36v184.04h30v-196.04z" fill="#dd552d"/></g><g fill="#cf462a"><path d="m81.598 172.373c4.142 0 7.5-3.967 7.5-8.861v-75.482l-6.919 2.742-8.081 15.413v57.328c0 4.893 3.358 8.86 7.5 8.86z"/><path d="m166.664 185.763c-4.142 0-7.5 3.832-7.5 8.559v81.954c0 4.727 3.358 8.559 7.5 8.559s7.5-3.832 7.5-8.559v-81.954c0-4.726-3.358-8.559-7.5-8.559z"/><path d="m122.582 169.849c4.142 0 7.5-3.967 7.5-8.861v-89.199l-15 5.944v83.255c0 4.894 3.358 8.861 7.5 8.861z"/><path d="m159.163 60.265v100.722c0 4.894 3.358 8.861 7.5 8.861s7.5-3.967 7.5-8.861v-100.722l-7.499-2.972z"/><path d="m210.744 169.849c4.142 0 7.5-3.967 7.5-8.861v-83.255l-15-5.944v89.199c0 4.894 3.358 8.861 7.5 8.861z"/><path d="m89.098 360.172v-170.85c0-4.727-3.358-8.559-7.5-8.559s-7.5 3.832-7.5 8.559v170.85z"/><path d="m130.083 189.323c0-4.727-3.358-8.559-7.5-8.559s-7.5 3.832-7.5 8.559v170.85h15z"/><path d="m251.148 90.772-6.55-2.596v75.336c0 4.894 3.357 8.861 7.5 8.861s7.5-3.967 7.5-8.861v-56.625z"/><path d="m259.598 189.323c0-4.727-3.357-8.559-7.5-8.559s-7.5 3.832-7.5 8.559v170.85h15z"/><path d="m218.244 189.323c0-4.727-3.358-8.559-7.5-8.559s-7.5 3.832-7.5 8.559v170.85h15z"/></g><g><path d="m294.951 196.654h-256.574c-8.214 0-14.873-6.659-14.873-14.873v-2.034c0-8.214 6.659-14.873 14.873-14.873h256.574c8.214 0 14.873 6.659 14.873 14.873v2.034c-.001 8.214-6.659 14.873-14.873 14.873z" fill="#ba3f2a"/></g><g><path d="m210.744 360.172-44.081 20-44.081-20v-74.897c0-7.158 5.802-12.96 12.96-12.96h62.241c7.158 0 12.96 5.802 12.96 12.96v74.897z" fill="#f4daa7"/></g><g><path d="m491.916 438.851h-487.688c-2.335 0-4.228-1.893-4.228-4.228v-37.468c0-20.424 16.557-36.981 36.981-36.981h422.183c20.424 0 36.981 16.557 36.981 36.981v37.468c-.001 2.335-1.894 4.228-4.229 4.228z" fill="#68b181"/></g><g><path d="m459.163 360.174h-30c20.424 0 36.981 16.557 36.981 36.981v37.468c0 2.335-1.893 4.228-4.228 4.228h30c2.335 0 4.228-1.893 4.228-4.228v-37.468c0-20.424-16.557-36.981-36.981-36.981z" fill="#5ea570"/></g></g></svg>