<svg id="Capa_1" enable-background="new 0 0 496.144 496.144" height="512" viewBox="0 0 496.144 496.144" width="512" xmlns="http://www.w3.org/2000/svg"><g><g><path d="m135.138 32.088-18.87 10-18.87-10v-13.431c0-7.407 6.005-13.411 13.411-13.411h10.917c7.407 0 13.411 6.004 13.411 13.411v13.431z" fill="#df6937"/></g><g><path d="m264.834 32.088-18.87 10-18.87-10v-13.431c0-7.407 6.005-13.411 13.411-13.411h10.917c7.407 0 13.411 6.004 13.411 13.411v13.431z" fill="#df6937"/></g><g><path d="m394.53 32.088-18.87 10-18.87-10v-13.431c0-7.407 6.004-13.411 13.411-13.411h10.917c7.407 0 13.411 6.004 13.411 13.411v13.431z" fill="#df6937"/></g><g><path d="m51.201 72.647v222.544c0 1.536.528 3.025 1.495 4.218l58.149 71.736c2.681 3.308 7.727 3.308 10.408 0l58.149-71.736c.967-1.193 1.495-2.682 1.495-4.218l20-115.794-19.969-106.75z" fill="#a2abb8"/></g><g><path d="m150.803 98.304.162 196.88c.001 1.536-.526 3.026-1.492 4.219l-48.31 59.686 9.805 12.078c2.684 3.306 7.729 3.302 10.408-.008l58.097-71.778c.966-1.194 1.493-2.684 1.492-4.219l-.162-222.515z" fill="#909ba6"/></g><g><path d="m180.897 98.304v-25.825c0-22.307-18.083-40.39-40.39-40.39h-48.915c-22.307 0-40.39 18.083-40.39 40.39v25.825z" fill="#dce6eb"/></g><g><path d="m180.897 72.647v222.544c0 1.536.528 3.025 1.495 4.218l58.149 71.736c2.681 3.308 7.727 3.308 10.408 0l58.149-71.736c.967-1.193 1.495-2.682 1.495-4.218l20-122.324-19.966-100.22z" fill="#a2abb8"/></g><g><path d="m280.593 95.039v200.152c0 1.536-.528 3.025-1.495 4.218l-48.353 59.651 9.796 12.085c2.681 3.308 7.727 3.308 10.408 0l58.149-71.736c.967-1.193 1.495-2.682 1.495-4.218v-222.544z" fill="#909ba6"/></g><g><path d="m310.593 98.304v-25.825c0-22.307-18.083-40.39-40.39-40.39h-48.915c-22.307 0-40.39 18.083-40.39 40.39v25.825z" fill="#dce6eb"/></g><g><path d="m310.593 72.647v222.544c0 1.536.528 3.025 1.495 4.218l58.149 71.736c2.681 3.308 7.727 3.308 10.408 0l58.149-71.736c.967-1.193 1.495-2.682 1.495-4.218v-222.544z" fill="#a2abb8"/></g><g><path d="m410.289 98.304v196.887c0 1.536-.528 3.025-1.495 4.218l-48.353 59.651 9.796 12.085c2.681 3.308 7.727 3.308 10.408 0l58.149-71.736c.967-1.193 1.495-2.682 1.495-4.218v-222.544z" fill="#909ba6"/></g><g><path d="m440.289 98.304v-25.825c0-22.307-18.083-40.39-40.39-40.39h-48.915c-22.307 0-40.39 18.083-40.39 40.39v25.825z" fill="#dce6eb"/></g><g><path d="m140.507 32.088h-30c22.307 0 40.39 18.083 40.39 40.39v25.825h30v-25.824c0-22.307-18.083-40.391-40.39-40.391z" fill="#c8d2dc"/></g><g><path d="m270.203 32.088h-30c22.307 0 40.391 18.083 40.391 40.39v25.825h30v-25.824c-.001-22.307-18.084-40.391-40.391-40.391z" fill="#c8d2dc"/></g><g><path d="m399.899 32.088h-30c22.307 0 40.39 18.083 40.39 40.39v25.825h30v-25.824c0-22.307-18.083-40.391-40.39-40.391z" fill="#c8d2dc"/></g><g><path d="m-27.455 338.198h160.669v27.375h-160.669z" fill="#c27e4e" transform="matrix(0 1 -1 0 404.765 299.006)"/></g><g><path d="m100.563 338.198h160.669v27.375h-160.669z" fill="#c27e4e" transform="matrix(0 1 -1 0 532.783 170.988)"/></g><g><path d="m230.259 338.198h160.669v27.375h-160.669z" fill="#c27e4e" transform="matrix(0 1 -1 0 662.479 41.293)"/></g><g><path d="m359.955 338.198h160.669v27.375h-160.669z" fill="#c27e4e" transform="matrix(0 1 -1 0 792.175 -88.404)"/></g><g><path d="m469.522 287.956h-442.9c-7.559 0-13.688-6.128-13.688-13.688 0-7.559 6.128-13.688 13.688-13.688h442.9c7.56 0 13.688 6.128 13.688 13.688 0 7.56-6.128 13.688-13.688 13.688z" fill="#995e34"/></g><g><path d="m137.138 176.441h-46.23c-4.391 0-7.95-3.559-7.95-7.95v-19.602c0-4.391 3.56-7.95 7.95-7.95h46.23c4.391 0 7.95 3.56 7.95 7.95v19.602c0 4.391-3.559 7.95-7.95 7.95z" fill="#faf8f8"/></g><g><path d="m268.86 176.441h-46.23c-4.391 0-7.95-3.559-7.95-7.95v-19.602c0-4.391 3.559-7.95 7.95-7.95h46.229c4.391 0 7.95 3.56 7.95 7.95v19.602c.001 4.391-3.558 7.95-7.949 7.95z" fill="#faf8f8"/></g><g><path d="m400.582 176.441h-46.229c-4.391 0-7.95-3.559-7.95-7.95v-19.602c0-4.391 3.56-7.95 7.95-7.95h46.229c4.391 0 7.95 3.56 7.95 7.95v19.602c0 4.391-3.559 7.95-7.95 7.95z" fill="#faf8f8"/></g><g><path d="m491.916 490.899h-487.688c-2.335 0-4.228-1.893-4.228-4.228v-37.468c0-20.424 16.557-36.981 36.981-36.981h422.183c20.424 0 36.981 16.557 36.981 36.981v37.468c-.001 2.335-1.894 4.228-4.229 4.228z" fill="#eec06b"/></g><g><path d="m459.163 412.222h-30c20.424 0 36.981 16.557 36.981 36.981v37.468c0 2.335-1.893 4.228-4.228 4.228h30c2.335 0 4.228-1.893 4.228-4.228v-37.468c0-20.424-16.557-36.981-36.981-36.981z" fill="#ebb34c"/></g></g></svg>