<svg id="Capa_1" enable-background="new 0 0 497 497" height="512" viewBox="0 0 497 497" width="512" xmlns="http://www.w3.org/2000/svg"><g><g><path d="m149.31 7.662h-50.875c-3.475 0-6.855 1.13-9.631 3.22l-35.543 26.754 66.572 12.059z" fill="#4e5a61"/></g><g><circle cx="319.117" cy="125.404" fill="#6dc17d" r="46.15"/></g><g><path d="m319.117 79.254c-3.865 0-7.617.482-11.204 1.377 20.072 5.007 34.945 23.15 34.945 44.773s-14.873 39.765-34.945 44.773c3.588.895 7.34 1.377 11.204 1.377 25.488 0 46.15-20.662 46.15-46.15-.001-25.488-20.663-46.15-46.15-46.15z" fill="#68b76a"/></g><g><circle cx="446.196" cy="125.404" fill="#6dc17d" r="46.15"/></g><g><path d="m446.196 79.254c-3.865 0-7.617.482-11.205 1.377 20.072 5.007 34.945 23.15 34.945 44.773s-14.873 39.765-34.945 44.773c3.588.895 7.34 1.377 11.205 1.377 25.488 0 46.15-20.662 46.15-46.15-.001-25.488-20.662-46.15-46.15-46.15z" fill="#68b76a"/></g><path d="m340.093 114.795c-2.929-2.929-7.678-2.929-10.607 0l-1.314 1.314v-5.214c0-4.142-3.358-7.5-7.5-7.5s-7.5 3.358-7.5 7.5v25.141l-.609-.609c-2.929-2.929-7.678-2.929-10.606 0-2.929 2.929-2.929 7.678 0 10.607l10.972 10.971c.078.078.163.146.244.221v42.219c0 4.142 3.358 7.5 7.5 7.5s7.5-3.358 7.5-7.5v-62.146c.081-.074.166-.143.245-.221l11.676-11.676c2.928-2.929 2.928-7.678-.001-10.607z" fill="#995e34"/><path d="m467.172 114.795c-2.929-2.929-7.678-2.928-10.606 0l-1.314 1.314v-5.213c0-4.142-3.358-7.5-7.5-7.5s-7.5 3.358-7.5 7.5v25.142l-.61-.61c-2.929-2.929-7.678-2.929-10.606 0-2.929 2.929-2.929 7.678 0 10.607l10.972 10.971c.079.079.164.147.245.221v42.218c0 4.142 3.358 7.5 7.5 7.5s7.5-3.358 7.5-7.5v-62.146c.081-.074.166-.143.245-.221l11.676-11.676c2.927-2.929 2.927-7.678-.002-10.607z" fill="#995e34"/><g><path d="m113.628 147.171h69.363v-105.79c0-2.382-1.018-4.65-2.797-6.234l-30.884-27.485-35.681 29.974v109.535z" fill="#faf8f8"/></g><g><path d="m53.26 37.636h60.368v109.535h-60.368z" fill="#f0e9e6"/></g><g><path d="m122.058 100.32c-67.411 0-122.058 54.647-122.058 122.057v239.614h305.311v-178.418c0-101.208-82.045-183.253-183.253-183.253z" fill="#b36d3c"/></g><g><path d="m122.058 100.32c-4.565 0-9.069.259-13.504.747 93.477 8.342 166.757 86.86 166.757 182.506v178.418h30v-178.418c0-101.208-82.045-183.253-183.253-183.253z" fill="#995e34"/></g><g><path d="m172.505 176.006h-67.637c-3.129 0-6.195.871-8.857 2.515l-45.928 28.364 83.288 13.324z" fill="#5f6c75"/></g><g><path d="m127.836 347.965h-77.754v-141.08h77.754l20 70.54z" fill="#f0e9e6"/></g><g><path d="m127.836 347.965h89.339v-138.345c0-1.712-.841-3.316-2.249-4.289l-42.42-29.324-44.669 30.879v141.079z" fill="#faf8f8"/></g><g><path d="m246.883 251.969c0 32.498-26.345 58.843-58.842 58.843h-129.198c-32.498-.001-58.843 26.344-58.843 58.842v102.949c0 9.242 7.492 16.735 16.735 16.735h230.149 34.837l84.057-30 84.489 30h30c9.242 0 16.734-7.492 16.734-16.735v-161.792-64.398c0-29.43-23.857-53.287-53.287-53.287h-137.988c-32.498 0-58.843 26.345-58.843 58.843z" fill="#c7865b"/></g><g><path d="m443.713 193.126h-30c29.429 0 53.287 23.857 53.287 53.287v64.398 161.792c0 9.242-7.492 16.735-16.734 16.735h30c9.242 0 16.734-7.492 16.734-16.735v-161.792-64.398c0-29.43-23.857-53.287-53.287-53.287z" fill="#c27e4e"/></g><g><g><path d="m326.389 317.379h67.637c3.129 0 6.195.871 8.857 2.515l45.928 28.364-85.972 12.982z" fill="#a2abb8"/></g><g><path d="m371.059 489.338h77.754v-141.08h-77.754l-10 69.085z" fill="#f0e9e6"/></g><g><path d="m418.813 348.258h30v141.08h-30z" fill="#e3dbd9"/></g><g><path d="m371.059 489.338h-89.339v-138.84c0-1.402.689-2.716 1.842-3.513l42.827-29.605 44.669 30.879v141.079z" fill="#faf8f8"/></g><g><path d="m335.861 403.359h-18.943c-2.778 0-5.031-2.252-5.031-5.031v-21.69c0-2.778 2.252-5.031 5.031-5.031h18.943c2.778 0 5.031 2.252 5.031 5.031v21.69c-.001 2.778-2.253 5.031-5.031 5.031z" fill="#80b6fc"/></g><g><path d="m340.891 489.248h-29.004v-31.035c0-8.009 6.493-14.502 14.502-14.502 8.009 0 14.502 6.493 14.502 14.502z" fill="#9d6c6c"/></g></g><g><g><path d="m106.425 435.197c0 17.968-14.566 32.535-32.534 32.535s-32.535-14.566-32.535-32.535c0-17.968 14.566-83.888 32.535-83.888s32.534 65.919 32.534 83.888z" fill="#518f60"/></g><g><path d="m218.423 435.197c0 17.968-14.566 32.535-32.535 32.535-17.968 0-32.534-14.566-32.534-32.535 0-17.968 14.566-83.888 32.534-83.888 17.969 0 32.535 65.919 32.535 83.888z" fill="#518f60"/></g><g><path d="m160.614 435.197c0 17.968-14.566 32.535-32.535 32.535-17.968 0-32.535-14.566-32.535-32.535 0-17.968 14.566-83.888 32.535-83.888 17.968 0 32.535 65.919 32.535 83.888z" fill="#5ea570"/></g><g><path d="m81.391 489.338v-44.388c0-4.142-3.358-7.5-7.5-7.5s-7.5 3.358-7.5 7.5v44.388z" fill="#995e34"/></g><g><path d="m193.389 489.338v-44.388c0-4.142-3.358-7.5-7.5-7.5s-7.5 3.358-7.5 7.5v44.388z" fill="#995e34"/></g><g><path d="m135.579 489.338v-44.388c0-4.142-3.358-7.5-7.5-7.5s-7.5 3.358-7.5 7.5v44.388z" fill="#995e34"/></g></g><g><path d="m182.525 258.422h-18.943c-2.778 0-5.031-2.252-5.031-5.031v-21.69c0-2.778 2.252-5.031 5.031-5.031h18.943c2.778 0 5.031 2.252 5.031 5.031v21.69c0 2.779-2.253 5.031-5.031 5.031z" fill="#bed9fd"/></g></g></svg>