<svg id="Capa_1" enable-background="new 0 0 497 497" height="512" viewBox="0 0 497 497" width="512" xmlns="http://www.w3.org/2000/svg"><g><g><path d="m224.383 10.058-105.23 81.868 129.347 10 129.347-10-114.643-82.585c-11.665-8.403-27.474-8.111-38.821.717z" fill="#c27e4e"/></g><g><path d="m119.153 243.665h42.631v247.5h-42.631z" fill="#8d562f"/></g><g><path d="m335.216 243.665h42.631v247.5h-42.631z" fill="#995e34"/></g><g><path d="m335.216 454.774v-112.69" fill="#995e34"/></g><g><path d="m377.847 344.084v109.671" fill="#995e34"/></g><g><path d="m377.847 175.311-129.347 20-129.347-20v-83.386h87.215l42.132 10 42.132-10h87.215z" fill="#995e34"/></g><g><path d="m377.847 258.698-129.347 20-129.347-20v-83.387h258.694z" fill="#c7865b"/></g><g><path d="m347.847 175.312h30v83.386h-30z" fill="#c27e4e"/></g><g><path d="m119.153 258.698h258.694v83.386h-258.694z" fill="#995e34"/></g><g><path d="m347.847 91.925h30v83.386h-30z" fill="#8d562f"/></g><g><path d="m347.847 258.698h30v83.386h-30z" fill="#8d562f"/></g><g><path d="m490.84 493.768h-484.68c-3.402 0-6.16-2.758-6.16-6.16v-9.135c0-9.223 7.476-16.699 16.699-16.699h463.602c9.223 0 16.699 7.476 16.699 16.699v9.135c0 3.402-2.758 6.16-6.16 6.16z" fill="#6dc17d"/></g><g><path d="m277.913 300.391h-58.826c-7.024 0-12.719-5.694-12.719-12.719v-28.974h84.264v28.974c0 7.024-5.695 12.719-12.719 12.719z" fill="#804e2b"/></g><g><path d="m279.505 217.004h-62.011c-6.145 0-11.126-4.982-11.126-11.126v-30.567h84.264v30.567c0 6.145-4.982 11.126-11.127 11.126z" fill="#804e2b"/></g><g><path d="m276.578 133.618h-56.155c-7.762 0-14.054-6.292-14.054-14.054v-27.639h84.264v27.639c-.001 7.762-6.293 14.054-14.055 14.054z" fill="#804e2b"/></g></g></svg>