<svg id="Capa_1" enable-background="new 0 0 512 512" height="512" viewBox="0 0 512 512" width="512" xmlns="http://www.w3.org/2000/svg"><g><g><path d="m395.979 183.278h-16.398l-18.479-55.401h65.824c6.366 0 11.526 5.161 11.526 11.527v1.4c.001 23.458-19.015 42.474-42.473 42.474z" fill="#bed9fd"/></g><g><path d="m186.233 183.278 23.978 42.667h129.617l36.852-42.667z" fill="#f5de46"/></g><g><path d="m346.68 183.278-36.852 42.667h30l36.852-42.667z" fill="#f3d332"/></g><g><ellipse cx="111.757" cy="315.473" fill="#7e8b96" rx="82.854" ry="82.854" transform="matrix(.707 -.707 .707 .707 -190.34 171.424)"/></g><g><circle cx="111.757" cy="315.473" fill="#dce6eb" r="49.528"/></g><g><ellipse cx="423.363" cy="315.473" fill="#7e8b96" rx="82.854" ry="82.854" transform="matrix(.707 -.707 .707 .707 -99.073 391.763)"/></g><g><circle cx="423.363" cy="315.473" fill="#dce6eb" r="49.528"/></g><g><circle cx="260" cy="314.536" fill="#dce6eb" r="31.568"/></g><g><path d="m504.5 409.623h-497c-4.142 0-7.5-3.358-7.5-7.5s3.358-7.5 7.5-7.5h497c4.142 0 7.5 3.358 7.5 7.5s-3.358 7.5-7.5 7.5z" fill="#dce6eb"/></g><path d="m430.478 312.163-68.266-204.659c-1.042-3.125-3.972-5.189-7.296-5.125l-45.857 1.11c-4.141.101-7.417 3.539-7.316 7.68.099 4.079 3.436 7.319 7.494 7.318.061 0 .123-.001.185-.003l40.315-.976 20.571 61.673-107.687 124.678-93.474-167.069c-2.023-3.615-6.592-4.905-10.208-2.883-3.615 2.023-4.906 6.593-2.883 10.208l21.164 37.828-72.012 128.937c-.005.009-.008.018-.013.027-.101.182-.191.37-.277.561-.017.038-.038.075-.054.113-.076.177-.141.36-.204.544-.018.054-.042.107-.059.161-.037.118-.064.241-.095.361-.032.123-.069.245-.095.368-.011.054-.016.11-.026.165-.036.193-.068.386-.089.579-.004.041-.004.083-.007.124-.018.208-.031.417-.032.625 0 .01-.002.02-.002.03 0 .063.008.124.009.186.005.173.01.345.026.516.011.115.03.228.046.342.017.124.033.248.056.371.026.138.061.271.094.406.025.098.047.196.075.293.041.14.09.276.139.413.033.092.064.184.101.274.052.128.11.253.168.378.046.098.09.195.14.291.057.109.119.213.181.319.063.108.126.216.195.321.057.087.119.171.18.256.082.115.165.229.254.34.059.073.121.142.182.212.098.113.196.225.301.332.068.069.14.134.211.2.104.098.206.195.316.288.094.079.192.151.29.226.093.071.184.143.282.21.141.097.288.185.435.273.055.032.104.069.16.1.008.004.016.007.023.011.262.145.534.274.814.388.061.025.122.044.183.067.208.079.42.148.637.208.094.026.188.051.283.073.187.044.377.079.57.109.1.015.199.034.3.045.227.026.458.039.691.043.05.001.1.009.15.009.007 0 .015-.001.022-.001h148.213c.008 0 .015.001.022.001.05 0 .099-.008.149-.009.234-.005.465-.018.693-.043.1-.011.199-.03.299-.045.172-.027.342-.056.51-.093.543.122 1.096.19 1.648.19 2.104 0 4.196-.88 5.679-2.598l106.848-123.704 40.418 121.173c1.048 3.142 3.974 5.129 7.114 5.129.787 0 1.587-.125 2.374-.387 3.929-1.311 6.053-5.559 4.742-9.488zm-183.268-5.127h-122.674l61.283-109.727z" fill="#b9c3cd"/><g><path d="m186.13 151.452h-49.056c-10.074 0-18.241-8.167-18.241-18.241v-6.309c0-10.998 9.66-19.495 20.568-18.092l49.056 6.309c9.1 1.17 15.914 8.917 15.914 18.092 0 10.074-8.167 18.241-18.241 18.241z" fill="#c8d2dc"/></g></g></svg>