<svg id="Capa_1" enable-background="new 0 0 497 497" height="512" viewBox="0 0 497 497" width="512" xmlns="http://www.w3.org/2000/svg"><g><g><path d="m436.969 370.427h-378.318c-14.554 0-26.352-11.798-26.352-26.352v-13.822c0-54.15 43.897-98.048 98.048-98.048h234.926c54.15 0 98.048 43.898 98.048 98.048v13.822c0 14.554-11.799 26.352-26.352 26.352z" fill="#eec06b"/></g><g><path d="m365.273 232.205h-30c54.15 0 98.048 43.898 98.048 98.048v13.822c0 14.554-11.798 26.352-26.352 26.352h30c14.554 0 26.352-11.798 26.352-26.352v-13.822c0-54.15-43.898-98.048-98.048-98.048z" fill="#ebb34c"/></g><g><path d="m147.346 232.205 5.648 78.719c.568 7.916 7.155 14.047 15.091 14.047 7.673 0 14.131-5.743 15.026-13.363l9.336-79.403z" fill="#e69824"/></g><g><path d="m224.37 232.205 5.648 78.719c.568 7.916 7.155 14.047 15.091 14.047 7.673 0 14.131-5.743 15.026-13.363l9.336-79.403z" fill="#e69824"/></g><g><path d="m301.394 232.205 5.648 78.719c.568 7.916 7.155 14.047 15.091 14.047 7.673 0 14.131-5.743 15.026-13.363l9.336-79.403z" fill="#e69824"/></g><g><path d="m25 397.643 223.5-30 223.5 30v11.748c0 22.972-18.623 41.595-41.595 41.595h-363.81c-22.972 0-41.595-18.623-41.595-41.595z" fill="#909ba6"/></g><g><path d="m442 397.643v11.748c0 22.972-18.623 41.595-41.595 41.595h30c22.972 0 41.595-18.623 41.595-41.595v-11.748z" fill="#7e8b96"/></g><g><path d="m476.392 397.643h-455.784c-11.381 0-20.608-9.227-20.608-20.608 0-11.382 9.227-20.608 20.608-20.608h455.784c11.382 0 20.608 9.227 20.608 20.608 0 11.381-9.227 20.608-20.608 20.608z" fill="#dce6eb"/></g><g><path d="m476.392 356.427h-30c11.382 0 20.608 9.227 20.608 20.608 0 11.382-9.227 20.608-20.608 20.608h30c11.382 0 20.608-9.227 20.608-20.608 0-11.382-9.227-20.608-20.608-20.608z" fill="#c8d2dc"/></g><g><path d="m195.336 185.705c-4.142 0-7.5-3.358-7.5-7.5 0-12.101 3.05-18.439 5.742-24.032 2.379-4.943 4.258-8.848 4.258-17.527 0-8.681-1.879-12.587-4.258-17.531-2.691-5.593-5.742-11.933-5.742-24.035s3.05-18.441 5.742-24.035c2.379-4.944 4.258-8.85 4.258-17.531 0-4.142 3.358-7.5 7.5-7.5s7.5 3.358 7.5 7.5c0 12.102-3.05 18.441-5.742 24.035-2.379 4.944-4.258 8.85-4.258 17.531s1.879 12.586 4.258 17.531c2.691 5.593 5.742 11.933 5.742 24.035 0 12.101-3.05 18.439-5.742 24.032-2.379 4.943-4.258 8.848-4.258 17.527 0 4.142-3.358 7.5-7.5 7.5z" fill="#f4daa7"/></g><g><path d="m294.472 185.705c-4.142 0-7.5-3.358-7.5-7.5 0-12.101 3.05-18.439 5.742-24.032 2.379-4.943 4.258-8.848 4.258-17.527 0-8.681-1.879-12.587-4.258-17.531-2.691-5.593-5.742-11.933-5.742-24.035s3.05-18.441 5.742-24.035c2.379-4.944 4.258-8.85 4.258-17.531 0-4.142 3.358-7.5 7.5-7.5s7.5 3.358 7.5 7.5c0 12.102-3.05 18.441-5.742 24.035-2.379 4.944-4.258 8.85-4.258 17.531s1.879 12.586 4.258 17.531c2.691 5.593 5.742 11.933 5.742 24.035 0 12.101-3.05 18.439-5.742 24.032-2.379 4.943-4.258 8.848-4.258 17.527 0 4.142-3.358 7.5-7.5 7.5z" fill="#f4daa7"/></g></g></svg>