<svg id="Capa_1" enable-background="new 0 0 497 497" height="512" viewBox="0 0 497 497" width="512" xmlns="http://www.w3.org/2000/svg"><g><g><path d="m368.759 12.713c-2.263 0-4.46.282-6.561.806-6.086-8.202-15.84-13.519-26.838-13.519-9.878 0-18.752 4.292-24.866 11.108-7.274-6.88-17.083-11.108-27.885-11.108-22.42 0-40.594 18.174-40.594 40.594 0 22.419 18.174 40.594 40.594 40.594 14.755 0 27.669-7.874 34.776-19.647 5.19 3.322 11.355 5.256 17.975 5.256 6.487 0 12.539-1.856 17.663-5.057 4.434 3.179 9.863 5.057 15.735 5.057 14.935 0 27.042-12.107 27.042-27.042s-12.107-27.042-27.041-27.042z" fill="#dd552d"/></g><g><path d="m373.922 254.642h-152.89l51.454-168.584c5.038-23.677 25.949-40.606 50.156-40.606 28.321 0 51.279 22.959 51.279 51.279v157.911z" fill="#ebb34c"/></g><g><path d="m322.643 45.451c-5.189 0-10.224.783-14.986 2.239 20.994 6.419 36.266 25.944 36.266 49.041v157.911h30v-157.911c-.001-28.321-22.959-51.28-51.28-51.28z" fill="#e9a52d"/></g><g><path d="m415.217 139.644h-41.295v-36.842h4.453c20.348 0 36.842 16.495 36.842 36.842z" fill="#f5de46"/></g><g><path d="m245.318 459.151h-5.474v-65.653h-32.024v65.653h-5.474c-12.859 0-23.284 10.425-23.284 23.283v5.642c0 4.929 3.995 8.924 8.924 8.924h71.692c4.928 0 8.924-3.995 8.924-8.924v-5.642c0-12.858-10.424-23.283-23.284-23.283z" fill="#f5de46"/></g><g><path d="m81.783 225.078v30.956c0 63.023 51.09 114.113 114.113 114.113h6.461v27.067c0 3.471 2.814 6.285 6.285 6.285h31.654c3.471 0 6.285-2.814 6.285-6.285v-27.067h13.23c63.023 0 114.113-51.09 114.113-114.113v-42.134h-280.964c-6.173 0-11.177 5.005-11.177 11.178z" fill="#faf8f8"/></g><g><path d="m343.922 213.901v42.133c0 63.023-51.09 114.113-114.113 114.113-7.307 0-13.23 5.923-13.23 13.23v20.121h23.715c3.471 0 6.285-2.814 6.285-6.285v-27.067h13.23c63.023 0 114.113-51.09 114.113-114.113v-42.133h-30z" fill="#f0e9e6"/></g><g><path d="m258.351 183.005-134.015 19.253c-6.133.881-10.391 6.568-9.51 12.701l1.316 9.16c6.96 48.45 51.879 82.084 100.329 75.124l57.394-8.245c27.292-3.921 46.238-29.224 42.317-56.515l-1.316-9.16c-3.92-27.293-29.223-46.239-56.515-42.318z" fill="#f0e9e6"/></g><g><path d="m316.182 234.482-1.316-9.16c-3.921-27.292-29.224-46.238-56.515-42.317l-9.408 1.352c18.435 5.187 33.025 20.789 35.923 40.965l1.316 9.16c3.921 27.292-15.025 52.595-42.317 56.515l-54.946 7.894c8.884 1.518 18.151 1.702 27.552.352l57.394-8.246c27.292-3.921 46.238-29.223 42.317-56.515z" fill="#d4cdcb"/></g><g><ellipse cx="326.773" cy="92.03" fill="#5f6c75" rx="7.547" ry="7.547" transform="matrix(.707 -.707 .707 .707 30.634 258.018)"/></g><g fill="#d4cdcb"><path d="m181.758 267.257c-.643-4.092-4.482-6.891-8.572-6.246l-34.298 5.384c-1.297.204-2.463.73-3.431 1.482 3.72 4.507 7.871 8.622 12.376 12.297l27.679-4.345c4.092-.642 6.888-4.481 6.246-8.572z"/><path d="m185.154 225.325-66.535 10.446c1.412 4.988 3.24 9.776 5.44 14.33l63.42-9.957c4.092-.643 6.889-4.48 6.246-8.572-.641-4.093-4.487-6.895-8.571-6.247z"/></g></g></svg>