<svg id="Capa_1" enable-background="new 0 0 497 497" height="512" viewBox="0 0 497 497" width="512" xmlns="http://www.w3.org/2000/svg"><g><g><ellipse cx="429.784" cy="239.928" fill="#7fcb8f" rx="59.216" ry="59.216" transform="matrix(.707 -.707 .707 .707 -43.774 374.176)"/></g><g><path d="m299.113 248.738c0 26.62 21.58 48.2 48.2 48.2s48.2-21.58 48.2-48.2-21.58-124.28-48.2-124.28-48.2 97.66-48.2 124.28z" fill="#518f60"/></g><g><path d="m347.313 124.458c-5.238 0-10.279 3.792-15 10.068 19.275 25.623 33.2 92.829 33.2 114.212 0 21.381-13.927 39.5-33.2 45.808 4.722 1.546 9.761 2.392 15 2.392 26.62 0 48.2-21.58 48.2-48.2s-21.58-124.28-48.2-124.28z" fill="#457a51"/></g><g><ellipse cx="63.216" cy="239.928" fill="#7fcb8f" rx="59.216" ry="59.216" transform="matrix(.924 -.383 .383 .924 -87.005 42.455)"/></g><g><path d="m193.887 248.738c0 26.62-21.58 48.2-48.2 48.2s-48.2-21.58-48.2-48.2 21.58-124.28 48.2-124.28 48.2 97.66 48.2 124.28z" fill="#518f60"/></g><g><path d="m145.687 124.458c-5.238 0-10.279 3.792-15 10.068 19.275 25.623 33.2 92.829 33.2 114.212 0 21.381-13.927 39.5-33.2 45.808 4.722 1.546 9.761 2.392 15 2.392 26.62 0 48.2-21.58 48.2-48.2s-21.58-124.28-48.2-124.28z" fill="#457a51"/></g><g><path d="m286.13 175.947c4.001-6.814 6.305-14.745 6.305-23.218 0-25.369-20.566-45.935-45.935-45.935s-45.935 20.566-45.935 45.935c0 8.473 2.304 16.404 6.305 23.218-15.452 11.893-25.419 30.561-25.419 51.568 0 35.926 29.123 65.049 65.049 65.049 35.925 0 65.049-29.123 65.049-65.049 0-21.007-9.967-39.676-25.419-51.568z" fill="#68b76a"/></g><g><path d="m286.13 175.947c4.001-6.814 6.305-14.745 6.305-23.219 0-25.369-20.566-45.935-45.935-45.935-5.255 0-10.298.894-15 2.519 18.001 6.219 30.935 23.302 30.935 43.416 0 8.473-2.304 16.404-6.305 23.219 15.452 11.893 25.419 30.561 25.419 51.568 0 30.76-21.358 56.516-50.049 63.291 4.818 1.138 9.835 1.758 15 1.758 35.926 0 65.049-29.123 65.049-65.049 0-21.007-9.967-39.676-25.419-51.568z" fill="#5ea55b"/></g><g fill="#b36d3c"><path d="m451.438 251.793c-2.072-3.588-6.66-4.816-10.245-2.745l-3.909 2.257v-11.376c0-4.142-3.357-7.5-7.5-7.5s-7.5 3.358-7.5 7.5v105.95c0 4.142 3.357 7.5 7.5 7.5s7.5-3.358 7.5-7.5v-77.254l11.409-6.587c3.587-2.071 4.816-6.658 2.745-10.245z"/><path d="m347.313 269.324c-4.143 0-7.5 3.358-7.5 7.5v67.987c0 4.142 3.357 7.5 7.5 7.5s7.5-3.358 7.5-7.5v-67.987c0-4.142-3.358-7.5-7.5-7.5z"/><path d="m63.216 232.428c-4.142 0-7.5 3.358-7.5 7.5v11.376l-3.909-2.257c-3.588-2.072-8.174-.842-10.245 2.745s-.842 8.174 2.745 10.245l11.409 6.587v77.254c0 4.142 3.358 7.5 7.5 7.5s7.5-3.358 7.5-7.5v-105.95c0-4.142-3.358-7.5-7.5-7.5z"/><path d="m145.687 269.324c-4.142 0-7.5 3.358-7.5 7.5v67.987c0 4.142 3.358 7.5 7.5 7.5s7.5-3.358 7.5-7.5v-67.987c0-4.142-3.358-7.5-7.5-7.5z"/><path d="m260.075 228.171-6.076 3.508v-14.165c0-4.142-3.357-7.5-7.5-7.5-4.142 0-7.5 3.358-7.5 7.5v127.296c0 4.142 3.358 7.5 7.5 7.5s7.5-3.358 7.5-7.5v-95.81l13.576-7.838c3.587-2.071 4.816-6.658 2.745-10.245-2.07-3.588-6.66-4.817-10.245-2.746z"/></g><g><path d="m487.303 430.961h-477.606c-5.355 0-9.697-4.341-9.697-9.697v-65.689c0-5.355 4.341-9.697 9.697-9.697h477.607c5.355 0 9.697 4.341 9.697 9.697v65.689c-.001 5.356-4.342 9.697-9.698 9.697z" fill="#995e34"/></g><g><path d="m487.303 345.879h-30c5.355 0 9.697 4.341 9.697 9.697v65.689c0 5.355-4.341 9.697-9.697 9.697h30c5.355 0 9.697-4.341 9.697-9.697v-65.689c0-5.356-4.341-9.697-9.697-9.697z" fill="#8d562f"/></g><g><path d="m487.303 480.67h-477.606c-5.355 0-9.697-4.341-9.697-9.697v-65.689c0-5.355 4.341-9.697 9.697-9.697h477.607c5.355 0 9.697 4.341 9.697 9.697v65.689c-.001 5.355-4.342 9.697-9.698 9.697z" fill="#c7865b"/></g><g><path d="m487.303 395.587h-30c5.355 0 9.697 4.341 9.697 9.697v65.689c0 5.355-4.341 9.697-9.697 9.697h30c5.355 0 9.697-4.341 9.697-9.697v-65.689c0-5.356-4.341-9.697-9.697-9.697z" fill="#c27e4e"/></g><g><circle cx="414.504" cy="57.228" fill="#f5de46" r="40.898"/></g><g><path d="m414.504 16.33c-5.297 0-10.354 1.018-15 2.852 15.163 5.984 25.898 20.756 25.898 38.046s-10.734 32.062-25.898 38.046c4.646 1.833 9.703 2.851 15 2.851 22.587 0 40.898-18.31 40.898-40.897s-18.311-40.898-40.898-40.898z" fill="#f3d332"/></g></g></svg>