<svg id="Capa_1" enable-background="new 0 0 497 497" height="512" viewBox="0 0 497 497" width="512" xmlns="http://www.w3.org/2000/svg"><g><g><path d="m205.824 239.192 39.616-24.064c72.846-44.249 166.192-48.65 243.441-12.038 4.943 2.343 8.119 7.297 8.119 12.766v93.546h-291.176z" fill="#68b76a"/></g><g fill="#5ea55b"><path d="m309.928 268.593c.091-.024.182-.05.271-.077 3.867-1.179 6.216-5.498 5.271-9.794-.078-.351-7.435-35.622 18.261-76.25.042-.066.075-.136.115-.204-6.714 1.155-13.384 2.573-19.99 4.253-20.341 40.815-13.316 74.464-12.973 76.023.968 4.396 5.017 7.105 9.045 6.049z"/><path d="m482.022 199.965c-5.602-2.451-11.283-4.684-17.026-6.714-36.034 44.623-32.371 82.463-32.191 84.099.557 5.082 4.787 8.745 9.443 8.137.062-.008.124-.017.185-.027 4.558-.704 7.79-5.225 7.24-10.24-.129-1.36-2.758-33.781 31.134-73.414.486-.568.885-1.19 1.215-1.841z"/><path d="m368.849 178.65c-29.477 41.441-24.959 80.195-24.743 81.887.571 4.478 4.359 7.603 8.462 6.98.093-.014.185-.03.277-.048 3.953-.763 6.676-4.812 6.118-9.189-.046-.358-4.226-36.242 24.966-73.951 1.29-1.667 1.858-3.732 1.752-5.751-5.611-.155-11.225-.13-16.832.072z"/><path d="m432.062 184.029c-5.139-1.077-10.306-1.994-15.494-2.757-30.455 44.848-23.835 83.352-23.531 85.005.807 4.383 4.679 7.221 8.696 6.419.03-.006.06-.012.089-.018 4.05-.862 6.697-5.155 5.929-9.58-.244-1.408-5.653-34.933 22.771-74.82.908-1.276 1.41-2.752 1.54-4.249z"/></g><g><path d="m0 246.161c0-11.448 8.077-21.305 19.302-23.556l72.638-14.564c57.519-11.533 117.532-6.866 172.067 13.379l32.355 12.011c58.515 21.723 121.111 32.894 184.309 32.894 9.018 0 16.329 7.311 16.329 16.329v150.713c0 4.031-3.268 7.3-7.3 7.3h-482.4c-4.031 0-7.3-3.268-7.3-7.3z" fill="#518f60"/></g><g><path d="m480.671 266.325c-18.755 0-30.047-.818-30.047-.818s16.376 8.129 16.376 17.147v150.713c0 4.031-3.268 7.299-7.3 7.299h30c4.031 0 7.3-3.268 7.3-7.299v-150.713c0-9.018-7.311-16.329-16.329-16.329z" fill="#457a51"/></g><g><path d="m159.923 238.075c4.489-7.645 7.073-16.542 7.073-26.048 0-28.461-23.072-51.533-51.533-51.533s-51.533 23.072-51.533 51.533c0 9.506 2.584 18.403 7.073 26.048-17.335 13.342-28.516 34.286-28.516 57.852 0 40.304 32.673 72.976 72.976 72.976 40.304 0 72.976-32.673 72.976-72.976.001-23.566-11.181-44.51-28.516-57.852z" fill="#6dc17d"/></g><g><path d="m159.923 238.075c4.489-7.645 7.073-16.542 7.073-26.048 0-28.461-23.072-51.533-51.533-51.533-5.218 0-10.253.783-15 2.225 21.143 6.424 36.533 26.066 36.533 49.308 0 9.506-2.585 18.403-7.073 26.048 17.335 13.342 28.517 34.286 28.517 57.852 0 35.161-24.87 64.508-57.976 71.426 4.842 1.012 9.858 1.55 15 1.55 40.304 0 72.976-32.673 72.976-72.976 0-23.566-11.182-44.51-28.517-57.852z" fill="#68b76a"/></g><g><ellipse cx="216.775" cy="65.371" fill="#f5de46" rx="47.302" ry="47.303" transform="matrix(.993 -.122 .122 .993 -6.363 26.976)"/></g><g><path d="m158.992 110.045h24.413c5.093-8.037 14.061-13.377 24.282-13.377 2.542 0 5.006.334 7.353.953 6.527-10.697 18.309-17.84 31.76-17.84 7.181 0 13.883 2.041 19.568 5.567 9.934-17.073 28.593-28.446 49.881-27.977 29.866.658 54.234 24.984 54.932 54.84.005.201.008.4.011.601.142 11.016-8.823 19.995-19.843 19.995h-159.96-11.461-21.235c-6.215 0-11.266-4.978-11.382-11.163-.119-6.379 5.3-11.599 11.681-11.599z" fill="#80b6fc"/></g><g><path d="m0 246.161c0-11.448 8.077-21.305 19.302-23.556l72.638-14.564c57.519-11.533 117.532-6.866 172.067 13.379l32.355 12.011c58.515 21.723 121.111 32.894 184.309 32.894 9.018 0 16.329 7.311 16.329 16.329v150.713c0 4.031-3.268 7.3-7.3 7.3h-482.4c-4.031 0-7.3-3.268-7.3-7.3z" fill="none"/></g><path d="m141.395 311.42c-2.07-3.588-6.66-4.816-10.245-2.745l-8.187 4.726v-17.475c0-4.142-3.357-7.5-7.5-7.5s-7.5 3.358-7.5 7.5v142.81c0 4.142 3.357 7.5 7.5 7.5s7.5-3.358 7.5-7.5v-108.036c.085-.045.174-.078.258-.127l15.429-8.908c3.587-2.07 4.817-6.657 2.745-10.245z" fill="#b36d3c"/><g><g><path d="m234.605 453.28c-4.143 0-7.5-4.296-7.5-9.595v-46.872c0-5.299 3.357-9.595 7.5-9.595s7.5 4.296 7.5 9.595v46.872c0 5.299-3.358 9.595-7.5 9.595z" fill="#995e34"/></g><g><path d="m430.783 453.28c-4.143 0-7.5-4.296-7.5-9.595v-46.872c0-5.299 3.357-9.595 7.5-9.595s7.5 4.296 7.5 9.595v46.872c0 5.299-3.357 9.595-7.5 9.595z" fill="#995e34"/></g></g><g><path d="m253.755 383.206c-4.143 0-7.5-4.363-7.5-9.745v-34.331c0-5.382 3.357-9.745 7.5-9.745s7.5 4.363 7.5 9.745v34.331c0 5.382-3.358 9.745-7.5 9.745z" fill="#995e34"/></g><g><path d="m411.16 383.206c-4.142 0-7.5-4.363-7.5-9.745v-34.331c0-5.382 3.358-9.745 7.5-9.745 4.143 0 7.5 4.363 7.5 9.745v34.331c0 5.382-3.358 9.745-7.5 9.745z" fill="#995e34"/></g><g><path d="m431.107 343.085h-196.826c-5.382 0-9.744-4.363-9.744-9.744v-33.499c0-5.382 4.363-9.744 9.744-9.744h196.825c5.382 0 9.744 4.363 9.744 9.744v33.499c.001 5.381-4.362 9.744-9.743 9.744z" fill="#c7865b"/></g><g><circle cx="254.627" cy="316.591" fill="#995e34" r="6.989"/></g><g><circle cx="410.761" cy="316.591" fill="#995e34" r="6.989"/></g><g><path d="m445.084 401.931h-224.78c-5.382 0-9.744-4.363-9.744-9.744v-9.937c0-5.382 4.363-9.744 9.744-9.744h224.78c5.382 0 9.744 4.363 9.744 9.744v9.937c0 5.381-4.362 9.744-9.744 9.744z" fill="#c7865b"/></g><g><path d="m480.892 478.932h-464.784c-8.896 0-16.108-7.212-16.108-16.108v-30.704h497v30.705c0 8.895-7.212 16.107-16.108 16.107z" fill="#ebb34c"/></g></g></svg>