<svg id="Capa_1" enable-background="new 0 0 492.994 492.994" height="512" viewBox="0 0 492.994 492.994" width="512" xmlns="http://www.w3.org/2000/svg"><g><g><path d="m492.895 217.356v-172.301c0-5.59-4.531-10.121-10.121-10.121-141.712 0-262.889 87.915-311.971 212.179z" fill="#995e34"/></g><g><path d="m482.773 34.934c-8.646 0-17.214.328-25.695.971 3.434 1.619 5.817 5.102 5.817 9.15v410.805c0 9.086-7.366 16.451-16.451 16.451h30c9.086 0 16.451-7.365 16.451-16.451v-410.805c0-5.59-4.532-10.121-10.122-10.121z" fill="#8d562f"/></g><g><path d="m236.855 217.356h256.04v121.24l-246.04 133.715h-230.404c-9.086 0-16.451-7.365-16.451-16.451v-153.243" fill="#62a4fb"/></g><g><path d="m492.895 338.596v-121.24h-30v134.498z" fill="#5392f9"/></g><g><circle cx="145.113" cy="56.665" fill="#f5de46" r="35.982"/></g><g><path d="m492.994 455.86v-117.264c0-5.59-4.531-10.121-10.121-10.121h-21.855c-96.787 0-179.674 59.459-214.164 143.836h229.688c9.087 0 16.452-7.365 16.452-16.451z" fill="#b36d3c"/></g><g><path d="m482.873 328.475h-21.855c-2.258 0-4.506.043-6.749.107 4.927.682 8.725 4.899 8.725 10.014v117.264c0 9.086-7.366 16.451-16.451 16.451h30c9.086 0 16.451-7.365 16.451-16.451v-117.264c0-5.59-4.531-10.121-10.121-10.121z" fill="#995e34"/></g><g><path d="m0 303.496v-162.017c0-6.773 5.491-12.264 12.264-12.264h26.48c110.886 0 206.713 64.411 252.149 157.852 3.692 7.593-1.917 16.428-10.36 16.428h-280.533z" fill="#c27e4e"/></g><g><path d="m290.893 287.067c-45.436-93.441-141.263-157.851-252.149-157.851h-26.48c-.181 0-.357.019-.536.027 109.618 1.145 204.138 65.223 249.165 157.825 3.692 7.593-1.917 16.428-10.36 16.428h30c8.443 0 14.052-8.836 10.36-16.429z" fill="#b36d3c"/></g><g><g><path d="m438.842 268.63h-79.038c-4.143 0-7.5-3.358-7.5-7.5s3.357-7.5 7.5-7.5h79.038c4.143 0 7.5 3.358 7.5 7.5s-3.358 7.5-7.5 7.5z" fill="#5392f9"/></g><g><path d="m127.602 359.666h-79.039c-4.143 0-7.5-3.358-7.5-7.5s3.357-7.5 7.5-7.5h79.038c4.143 0 7.5 3.358 7.5 7.5s-3.357 7.5-7.499 7.5z" fill="#5392f9"/></g><g><path d="m219.024 410.393h-79.038c-4.143 0-7.5-3.358-7.5-7.5s3.357-7.5 7.5-7.5h79.038c4.143 0 7.5 3.358 7.5 7.5s-3.357 7.5-7.5 7.5z" fill="#5392f9"/></g><g><path d="m369.694 310.996h-19.781c-4.143 0-7.5-3.358-7.5-7.5s3.357-7.5 7.5-7.5h19.781c4.143 0 7.5 3.358 7.5 7.5s-3.357 7.5-7.5 7.5z" fill="#5392f9"/></g><g><path d="m189.396 359.666h-19.782c-4.143 0-7.5-3.358-7.5-7.5s3.357-7.5 7.5-7.5h19.782c4.143 0 7.5 3.358 7.5 7.5s-3.357 7.5-7.5 7.5z" fill="#5392f9"/></g></g></g></svg>