<svg id="Capa_1" enable-background="new 0 0 496.144 496.144" height="512" viewBox="0 0 496.144 496.144" width="512" xmlns="http://www.w3.org/2000/svg"><g><g><path d="m214.78 286.66h64.422v126.603h-64.422z" fill="#7e8b96"/></g><g><path d="m368.715 295.988h-241.286c-13.287 0-24.059-10.772-24.059-24.059v-21.531l146.734-20 142.67 20v21.531c0 13.287-10.771 24.059-24.059 24.059z" fill="#ebb34c"/></g><g><path d="m362.774 250.398v21.531c0 13.288-10.772 24.059-24.059 24.059h30c13.287 0 24.059-10.772 24.059-24.059v-21.531z" fill="#e9a52d"/></g><g><path d="m491.916 483.875h-487.688c-2.335 0-4.228-1.893-4.228-4.228v-37.468c0-20.424 16.557-36.981 36.981-36.981h422.183c20.424 0 36.981 16.557 36.981 36.981v37.468c-.001 2.335-1.894 4.228-4.229 4.228z" fill="#eec06b"/></g><g><path d="m459.163 405.198h-30c20.424 0 36.981 16.557 36.981 36.981v37.468c0 2.335-1.893 4.228-4.228 4.228h30c2.335 0 4.228-1.893 4.228-4.228v-37.468c0-20.424-16.557-36.981-36.981-36.981z" fill="#ebb34c"/></g><g><path d="m463.162 250.398h-430.18c-14.898 0-25.196-14.9-19.929-28.836l73.897-195.521c3.133-8.288 11.068-13.772 19.929-13.772h282.387c8.86 0 16.796 5.484 19.928 13.772l73.896 195.52c5.267 13.936-5.03 28.837-19.928 28.837z" fill="#9ec8fc"/></g><g><path d="m483.09 221.561-73.896-195.52c-3.133-8.288-11.068-13.772-19.929-13.772h-30c8.861 0 16.796 5.484 19.929 13.772l73.896 195.52c5.267 13.936-5.03 28.836-19.928 28.836h30c14.898.001 25.195-14.9 19.928-28.836z" fill="#80b6fc"/></g><path d="m343.435 181.386h124.472l-5.669-15h-121.91l-14.83-71.614h109.673l-5.669-15h-107.11l-13.979-67.503h-15.317l13.979 67.503h-118.005l13.979-67.503h-15.317l-13.979 67.503h-107.11l-5.669 15h109.673l-14.83 71.614h-121.91l-5.669 15h124.472l-14.291 69.011h15.317l14.291-69.011h160.091l14.291 69.011h15.317zm-172.302-15 14.83-71.614h124.217l14.831 71.614z" fill="#62a4fb"/></g></svg>