<svg id="Capa_1" enable-background="new 0 0 497 497" height="512" viewBox="0 0 497 497" width="512" xmlns="http://www.w3.org/2000/svg"><g><g><path d="m403.034 164.133c-4.143 0-7.5-3.357-7.5-7.5v-27.073c0-4.142 3.357-7.5 7.5-7.5s7.5 3.358 7.5 7.5v27.073c0 4.142-3.358 7.5-7.5 7.5z" fill="#b9c3cd"/></g><g><path d="m423.673 195.123-19.445 20-21.832-20v-45.558c0-6.081 4.929-11.01 11.01-11.01h19.258c6.081 0 11.01 4.929 11.01 11.01v45.558z" fill="#dce6eb"/></g><g><path d="m478.898 394.427h-155.456v-199.304h118.602c20.354 0 36.854 16.5 36.854 36.855z" fill="#e27c48"/></g><g><path d="m442.044 195.123h-30c20.354 0 36.854 16.5 36.854 36.855v162.449h30v-162.449c0-20.354-16.5-36.855-36.854-36.855z" fill="#df6937"/></g><g><path d="m478.898 259.556h-29.627c-4.143 0-7.5-3.358-7.5-7.5s3.357-7.5 7.5-7.5h29.627c4.143 0 7.5 3.358 7.5 7.5s-3.358 7.5-7.5 7.5z" fill="#cf462a"/></g><g><path d="m367.858 52.332h-47.935c-4.143 0-7.5-3.358-7.5-7.5s3.357-7.5 7.5-7.5h47.935c4.142 0 7.5 3.358 7.5 7.5s-3.358 7.5-7.5 7.5z" fill="#e27c48"/></g><g><path d="m334.461 261.845h-273.441l50-115.943-50-93.57 136.72-20 136.721 20-30 93.57z" fill="#9ec8fc"/></g><g><path d="m189.083 261.845h-128.063v-209.513l61.991-20 66.072 20v2.752 40.991l10 66.116z" fill="#62a4fb"/></g><g><path d="m304.461 42.332v219.513h30v-209.513z" fill="#80b6fc"/></g><g><path d="m189.083 261.845h-128.063v-99.654h128.063l10 27.506z" fill="#4e5a61"/></g><g><path d="m293.998 11.869h-192.515c-22.347 0-40.463 18.116-40.463 40.463h273.441c0-22.347-18.116-40.463-40.463-40.463z" fill="#e27c48"/></g><g><path d="m232.548 234.97h-43.466v-138.895h16.105c15.111 0 27.361 12.25 27.361 27.361z" fill="#909ba6"/></g><g><path d="m323.512 292.206c-2.85 0-5.574-1.632-6.831-4.396l-46.761-102.756c-1.716-3.77-.051-8.217 3.72-9.933s8.218-.049 9.933 3.72l46.761 102.757c1.716 3.77.051 8.217-3.72 9.933-1.007.458-2.064.675-3.102.675z" fill="#5392f9"/></g><g><path d="m259.048 197.238c-2.592 0-5.113-1.345-6.502-3.751-2.071-3.587-.842-8.174 2.745-10.245l33.178-19.155c3.586-2.072 8.175-.842 10.245 2.745 2.071 3.587.842 8.174-2.745 10.245l-33.178 19.155c-1.18.682-2.471 1.006-3.743 1.006z" fill="#5392f9"/></g><g><path d="m408.533 394.756h-192.22v-132.911h163.687c15.758 0 28.533 12.775 28.533 28.533z" fill="#909ba6"/></g><g><path d="m380 261.845h-30c15.758 0 28.533 12.775 28.533 28.533v104.378h30v-104.378c0-15.758-12.774-28.533-28.533-28.533z" fill="#7e8b96"/></g><g><ellipse cx="430.571" cy="418.702" fill="#5f6c75" rx="66.429" ry="66.429" transform="matrix(.23 -.973 .973 .23 -75.855 741.557)"/></g><g><ellipse cx="430.571" cy="418.702" fill="#c8d2dc" rx="18.7" ry="18.7" transform="matrix(.16 -.987 .987 .16 -51.694 776.645)"/></g><g><path d="m478.898 292.44h-29.627c-4.143 0-7.5-3.358-7.5-7.5s3.357-7.5 7.5-7.5h29.627c4.143 0 7.5 3.358 7.5 7.5s-3.358 7.5-7.5 7.5z" fill="#cf462a"/></g><g><path d="m478.898 325.323h-29.627c-4.143 0-7.5-3.358-7.5-7.5s3.357-7.5 7.5-7.5h29.627c4.143 0 7.5 3.358 7.5 7.5 0 4.143-3.358 7.5-7.5 7.5z" fill="#cf462a"/></g><g><path d="m408.534 326.986h-131.835c-4.143 0-7.5-3.358-7.5-7.5s3.357-7.5 7.5-7.5h131.834c4.143 0 7.5 3.358 7.5 7.5.001 4.142-3.357 7.5-7.499 7.5z" fill="#4e5a61"/></g><g fill="#4e5a61"><path d="m430.46 375.292c4.252 0 7.698-3.447 7.698-7.698v-14.878c-2.491-.283-5.02-.444-7.587-.444-2.643 0-5.246.172-7.809.472v14.849c0 4.253 3.446 7.699 7.698 7.699z"/><path d="m461.189 377.041c-3.007 3.006-3.007 7.88-.001 10.887 1.504 1.504 3.473 2.255 5.444 2.255 1.97 0 3.94-.752 5.443-2.255l10.516-10.515c-3.203-4.03-6.863-7.677-10.905-10.867z"/><path d="m364.614 426.511h14.849c4.252 0 7.698-3.447 7.698-7.698 0-4.252-3.446-7.698-7.698-7.698h-14.878c-.283 2.492-.444 5.02-.444 7.587.001 2.643.173 5.246.473 7.809z"/><path d="m394.354 390.34c1.97 0 3.94-.752 5.444-2.255 3.006-3.007 3.006-7.881-.001-10.887l-10.516-10.515c-4.03 3.203-7.677 6.863-10.867 10.905l10.497 10.497c1.503 1.503 3.474 2.255 5.443 2.255z"/><path d="m496.528 410.893h-14.848c-4.252 0-7.698 3.447-7.698 7.698s3.446 7.698 7.698 7.698h14.876c.283-2.491.444-5.02.444-7.587 0-2.644-.172-5.246-.472-7.809z"/><path d="m482.728 459.815-10.496-10.496c-3.007-3.007-7.882-3.007-10.887 0-3.007 3.006-3.007 7.88-.001 10.887l10.515 10.516c4.032-3.205 7.679-6.865 10.869-10.907z"/><path d="m389.458 470.859 10.497-10.497c3.006-3.006 3.006-7.88-.001-10.887-3.005-3.007-7.879-3.006-10.887 0l-10.515 10.515c3.204 4.032 6.864 7.679 10.906 10.869z"/><path d="m438.38 484.659v-14.849c0-4.251-3.446-7.698-7.698-7.698s-7.698 3.447-7.698 7.698v14.877c2.491.284 5.02.444 7.587.444 2.644 0 5.246-.172 7.809-.472z"/></g><g><circle cx="143.35" cy="341.781" fill="#7e8b96" r="143.35"/></g><g><path d="m143.35 198.431c-5.066 0-10.07.267-15 .779 72.12 7.499 128.35 68.467 128.35 142.571s-56.23 135.071-128.35 142.57c4.93.513 9.934.779 15 .779 79.17 0 143.35-64.18 143.35-143.35 0-79.169-64.18-143.349-143.35-143.349z" fill="#5f6c75"/></g><g><circle cx="143.35" cy="341.781" fill="#c8d2dc" r="82.33"/></g><g><ellipse cx="143.35" cy="341.781" fill="#7e8b96" rx="26.993" ry="26.993" transform="matrix(.23 -.973 .973 .23 -222.223 402.771)"/></g><g fill="#4e5a61"><path d="m143.35 225.665c4.142 0 7.5-3.358 7.5-7.5v-19.54c-2.484-.128-4.984-.194-7.5-.194s-5.016.066-7.5.194v19.54c0 4.142 3.358 7.5 7.5 7.5z"/><path d="m27.234 341.781c0-4.142-3.358-7.5-7.5-7.5h-19.54c-.127 2.484-.194 4.984-.194 7.5s.067 5.016.194 7.5h19.54c4.142 0 7.5-3.358 7.5-7.5z"/><path d="m36.825 245.863 13.812 13.811c1.464 1.465 3.384 2.197 5.303 2.197s3.839-.732 5.303-2.197c2.929-2.929 2.929-7.678 0-10.607l-13.812-13.811c-3.716 3.35-7.257 6.89-10.606 10.607z"/><path d="m225.456 249.068c-2.929 2.929-2.929 7.677 0 10.607 1.464 1.465 3.384 2.197 5.303 2.197s3.839-.732 5.303-2.197l13.812-13.811c-3.349-3.717-6.889-7.257-10.606-10.607z"/><path d="m249.875 437.699-13.812-13.812c-2.929-2.929-7.678-2.929-10.607 0s-2.929 7.678 0 10.606l13.812 13.812c3.717-3.348 7.258-6.889 10.607-10.606z"/><path d="m286.505 334.281h-19.539c-4.143 0-7.5 3.358-7.5 7.5s3.357 7.5 7.5 7.5h19.539c.128-2.484.194-4.984.194-7.5.001-2.516-.065-5.016-.194-7.5z"/><path d="m47.432 448.306 13.812-13.812c2.929-2.929 2.929-7.678 0-10.606-2.929-2.929-7.678-2.929-10.606 0l-13.812 13.812c3.348 3.716 6.889 7.257 10.606 10.606z"/><path d="m150.85 484.937v-19.54c0-4.142-3.358-7.5-7.5-7.5s-7.5 3.358-7.5 7.5v19.54c2.484.128 4.984.194 7.5.194s5.016-.066 7.5-.194z"/></g></g></svg>