<svg id="Capa_1" enable-background="new 0 0 497 497" height="512" viewBox="0 0 497 497" width="512" xmlns="http://www.w3.org/2000/svg"><g><g><ellipse cx="153.737" cy="178.321" fill="#dd552d" rx="60.518" ry="60.518" transform="matrix(.23 -.973 .973 .23 -55.135 286.975)"/></g><g><path d="m139.046 193.225c-6.055-4.311-10.511-10.461-12.55-17.608-.036-.128-.073-.255-.111-.383-3.202-10.92-9.534-20.068-17.73-26.759-5.675-4.633-9.505-11.062-11.017-18.23-.456-2.161-1.1-4.32-1.946-6.459-7.07-17.885-26.349-28.148-45.132-24.02-22.611 4.97-35.925 27.907-29.522 49.742.31 1.056.66 2.089 1.048 3.097 2.637 6.846 2.666 14.37.422 21.355-3.211 9.992-3.567 21.018-.391 31.849.038.128.075.255.114.382 2.144 7.117 1.715 14.7-1.053 21.598-3.441 8.574-3.917 18.414-.549 27.928 6.661 18.82 26.687 29.788 46.131 25.265 6.619-1.54 12.424-4.626 17.149-8.772 7.237-6.349 16.81-9.156 26.33-7.721 6.216.937 12.769.4 19.171-1.878 18.808-6.694 29.738-26.74 25.181-46.176-2.304-9.827-8.018-17.852-15.545-23.21z" fill="#6dc17d"/></g><path d="m95.18 241.604-15.522-52.931c-1.165-3.974-5.33-6.251-9.308-5.086-3.975 1.165-6.252 5.333-5.087 9.307l3.911 13.338-5.599-.89c-4.095-.646-7.934 2.14-8.584 6.23-.65 4.091 2.14 7.934 6.23 8.585l12.624 2.006 6.939 23.662c.959 3.271 3.95 5.392 7.194 5.392.698 0 1.409-.099 2.113-.305 3.977-1.166 6.254-5.333 5.089-9.308z" fill="#5ea570"/><g><ellipse cx="308.313" cy="182.321" fill="#dd552d" rx="60.518" ry="60.518" transform="matrix(.16 -.987 .987 .16 78.96 457.449)"/></g><g><circle cx="414.021" cy="216.863" fill="#dd552d" r="60.518"/></g><g><ellipse cx="224.537" cy="271.681" fill="#518f60" rx="127.902" ry="127.902" transform="matrix(.707 -.707 .707 .707 -126.342 238.345)"/></g><g><path d="m324.361 289.75c0 57.362-46.501 103.863-103.863 103.863s-103.863-46.501-103.863-103.863 46.501-103.863 103.863-103.863 103.863 46.501 103.863 103.863z" fill="#68b181"/></g><g><path d="m444.067 181.596c-31.41 41.291-74.757 61.159-74.757 61.159s7.579-47.077 38.989-88.368c20.439-26.869 45.934-44.667 61.249-53.822 5.26-3.144 11.668 1.73 10.042 7.639-4.735 17.203-15.083 46.523-35.523 73.392z" fill="#68b181"/></g><g><path d="m348.499 126.889c-19.7 47.994-14.883 95.433-14.883 95.433s36.757-30.374 56.457-78.368c12.819-31.231 15.257-62.228 15.396-80.07.048-6.128-7.401-9.185-11.672-4.791-12.437 12.795-32.479 36.565-45.298 67.796z" fill="#68b181"/></g><g><path d="m431.595 137.785c-25.774 45.025-66.168 70.361-66.168 70.361s1.393-47.663 27.166-92.688c16.772-29.299 39.735-50.261 53.73-61.33 4.807-3.802 11.794.198 10.95 6.268-2.459 17.674-8.907 48.09-25.678 77.389z" fill="#5ea570"/></g><g><path d="m227.583 448.947c-10.686-6.117-14.984-19.346-9.934-30.575l101.575-225.856c11.651-25.906 43.097-36.122 67.749-22.011 24.652 14.111 31.766 46.402 15.327 69.566l-143.321 201.959c-7.126 10.042-20.71 13.035-31.396 6.917z" fill="#e9a52d"/></g><g><path d="m323.044 281.725c0 .021-.001.04-.001.061v39.444c0 36.299-29.426 65.725-65.725 65.725h-17.635c-36.299 0-65.725-29.426-65.725-65.725v-39.444c0-.021-.001-.04-.001-.061h-173.957v165.786c0 13.714 11.117 24.832 24.831 24.832h180.179l40.358-20 39.132 20h187.668c13.714 0 24.832-11.117 24.832-24.832v-165.786z" fill="#c27e4e"/></g><g><path d="m143.958 281.786v39.444c0 36.299 29.426 65.725 65.725 65.725h17.635c2.086 0 4.146-.108 6.182-.298-33.398-3.118-59.542-31.214-59.542-65.427v-39.444c0-25.607-20.759-46.366-46.366-46.366h-30c25.607 0 46.366 20.759 46.366 46.366z" fill="#b36d3c"/></g><g><path d="m472.169 235.42h-30c13.714 0 24.831 11.117 24.831 24.831v187.259c0 13.714-11.117 24.832-24.831 24.832h30c13.714 0 24.831-11.117 24.831-24.832v-187.259c0-13.713-11.117-24.831-24.831-24.831z" fill="#b36d3c"/></g><g><path d="m173.958 289.592v-7.806c0-25.607-20.759-46.366-46.366-46.366h-102.761c-13.714 0-24.831 11.118-24.831 24.831v29.341z" fill="#f4daa7"/></g><g><path d="m497 289.592v-29.341c0-13.714-11.117-24.831-24.831-24.831h-102.76c-25.607 0-46.366 20.759-46.366 46.366v7.806z" fill="#f4daa7"/></g><g><path d="m472.169 235.42h-30c13.714 0 24.831 11.117 24.831 24.831v29.341h30v-29.341c0-13.713-11.117-24.831-24.831-24.831z" fill="#f1cd88"/></g><g><path d="m244.755 24.657c13.85 0 25.078 11.228 25.078 25.078v387.357h-50.156v-387.357c0-13.85 11.228-25.078 25.078-25.078z" fill="#995e34"/></g><g><path d="m205.01 472.342h79.49v-121.995c0-8.627-6.994-15.621-15.621-15.621h-48.247c-8.627 0-15.621 6.994-15.621 15.621v121.995z" fill="#cf9875"/></g><g><circle cx="244.755" cy="377.039" fill="#c7865b" r="7.5"/></g><g><circle cx="244.755" cy="403.534" fill="#c7865b" r="7.5"/></g><g><path d="" style="fill:none;stroke:#000;stroke-width:15;stroke-linecap:round;stroke-linejoin:round;stroke-miterlimit:10"/></g><g><g><path d="m95.904 342.225h-55.904c-4.143 0-7.5-3.358-7.5-7.5s3.357-7.5 7.5-7.5h55.904c4.143 0 7.5 3.358 7.5 7.5s-3.357 7.5-7.5 7.5z" fill="#b36d3c"/></g><g><path d="m95.904 432.491h-55.904c-4.143 0-7.5-3.358-7.5-7.5s3.357-7.5 7.5-7.5h55.904c4.143 0 7.5 3.358 7.5 7.5s-3.357 7.5-7.5 7.5z" fill="#b36d3c"/></g><g><path d="m144.189 387.359h-104.189c-4.143 0-7.5-3.358-7.5-7.5s3.357-7.5 7.5-7.5h104.189c4.143 0 7.5 3.358 7.5 7.5s-3.357 7.5-7.5 7.5z" fill="#b36d3c"/></g><g><path d="m451.51 342.225h-55.904c-4.143 0-7.5-3.358-7.5-7.5s3.357-7.5 7.5-7.5h55.904c4.143 0 7.5 3.358 7.5 7.5s-3.358 7.5-7.5 7.5z" fill="#b36d3c"/></g><g><path d="m451.51 432.491h-55.904c-4.143 0-7.5-3.358-7.5-7.5s3.357-7.5 7.5-7.5h55.904c4.143 0 7.5 3.358 7.5 7.5s-3.358 7.5-7.5 7.5z" fill="#b36d3c"/></g><g><path d="m451.51 387.359h-104.19c-4.143 0-7.5-3.358-7.5-7.5s3.357-7.5 7.5-7.5h104.19c4.143 0 7.5 3.358 7.5 7.5s-3.358 7.5-7.5 7.5z" fill="#b36d3c"/></g></g></g></svg>