<svg id="Flat" height="512" viewBox="0 0 512 512" width="512" xmlns="http://www.w3.org/2000/svg"><path d="m368 177.846c0 16.654-15.488 30.154-34.59 30.154a37.763 37.763 0 0 1 -21.41-6.469 37.769 37.769 0 0 1 -21.413 6.469c-19.102 0-34.587-13.5-34.587-30.154a28.07 28.07 0 0 1 9.17-20.451 23.649 23.649 0 0 1 -5.876-15.446c0-11.617 8.8-21.445 20.893-24.7 3.771-12.239 16.585-21.249 31.813-21.249s28.041 9.01 31.813 21.248c12.1 3.256 20.893 13.084 20.893 24.7a23.654 23.654 0 0 1 -5.876 15.446 28.074 28.074 0 0 1 9.17 20.452z" fill="#6a9c72"/><path d="m312 264a8 8 0 0 1 -8-8v-96a8 8 0 0 1 16 0v96a8 8 0 0 1 -8 8z" fill="#996046"/><path d="m311.993 192a7.973 7.973 0 0 1 -3.572-.847l-16-8a8 8 0 1 1 7.156-14.31l16 8a8 8 0 0 1 -3.584 15.157z" fill="#996046"/><path d="m488 169.231c0 21.411-19.912 38.769-44.472 38.769a48.561 48.561 0 0 1 -27.528-8.317 48.567 48.567 0 0 1 -27.531 8.317c-24.559 0-44.469-17.358-44.469-38.769 0-10.149 4.473-19.385 11.79-26.294a30.41 30.41 0 0 1 -7.555-19.86c0-14.935 11.308-27.572 26.862-31.759 4.849-15.733 21.324-27.318 40.903-27.318s36.053 11.585 40.9 27.318c15.554 4.187 26.862 16.824 26.862 31.759a30.414 30.414 0 0 1 -7.554 19.86c7.317 6.909 11.792 16.145 11.792 26.294z" fill="#88c791"/><path d="m416 264a8 8 0 0 1 -8-8v-112a8 8 0 0 1 16 0v112a8 8 0 0 1 -8 8z" fill="#b37a60"/><path d="m416 184a7.992 7.992 0 0 1 -4.438-1.344l-24-16a8 8 0 1 1 8.875-13.312l19.563 13.041 19.562-13.041a8 8 0 1 1 8.875 13.312l-24 16a7.989 7.989 0 0 1 -4.437 1.344z" fill="#b37a60"/><path d="m224 256v32h-192v-32l78.46-103.6c8.48-11.2 26.6-11.2 35.08 0z" fill="#828c52"/><path d="m264 256v32h-136v-32l52.08-71.98a19.8 19.8 0 0 1 31.83 0z" fill="#8f9e46"/><path d="m224 256h-200c0 128.13 103.87 232 232 232a233.679 233.679 0 0 0 36.11-2.79c110.979-17.351 195.89-113.361 195.89-229.21z" fill="#a3d4f7"/><path d="m292.109 485.209a233.679 233.679 0 0 1 -36.109 2.791c-128.13 0-232-103.87-232-232h200s8 32 64 56c49.359 21.149 63.569 104.449 4.109 173.209z" fill="#6a9c72"/><path d="m488 256a231.384 231.384 0 0 1 -76.21 171.91c-15.97-26.54-19.1-51.08-3.79-91.91 24-64-32-80-32-80z" fill="#6a9c72"/><path d="m152 72a24.006 24.006 0 0 1 -24 24 23.725 23.725 0 0 1 -12.14-3.31 39.969 39.969 0 0 1 -55.72 0 23.725 23.725 0 0 1 -12.14 3.31 24 24 0 0 1 0-48 23.1 23.1 0 0 1 3.24.22 40.006 40.006 0 0 1 73.52 0 23.1 23.1 0 0 1 3.24-.22 24.006 24.006 0 0 1 24 24z" fill="#a3d4f7"/><g fill="#734b39"><path d="m256 64a8 8 0 0 1 -8-8 12.077 12.077 0 0 0 -1.312-4.72c-.894-1.623-2.388-3.28-6.688-3.28a8 8 0 1 1 0-16c7.009 0 12.241 2.274 16 5.621 3.759-3.347 8.99-5.621 16-5.621a8 8 0 0 1 0 16c-4.3 0-5.8 1.658-6.689 3.28a12.026 12.026 0 0 0 -1.311 4.8 8 8 0 0 1 -8 7.92z"/><path d="m200 128a8 8 0 0 1 -8-8 12.077 12.077 0 0 0 -1.312-4.72c-.894-1.623-2.388-3.28-6.688-3.28a8 8 0 0 1 0-16c7.009 0 12.241 2.274 16 5.621 3.759-3.347 8.99-5.621 16-5.621a8 8 0 0 1 0 16c-4.3 0-5.795 1.658-6.689 3.28a12.026 12.026 0 0 0 -1.311 4.8 8 8 0 0 1 -8 7.92z"/></g></svg>